<svg width="24" height="24" viewBox="0 0 24 24" fill="none" xmlns="http://www.w3.org/2000/svg">
<g clip-path="url(#clip0_4_379)">
<path d="M11.9996 22.8534C12.4196 22.8437 12.8226 22.6858 13.1374 22.4077C13.4521 22.1295 13.6584 21.749 13.7196 21.3334H10.213C10.2759 21.7602 10.4918 22.1497 10.8205 22.4293C11.1491 22.7089 11.5682 22.8596 11.9996 22.8534Z" fill="#666666"/>
<path d="M21.8996 18.7534L21.6729 18.5534C21.0299 17.9804 20.467 17.3234 19.9996 16.6C19.489 15.6017 19.1831 14.5115 19.0996 13.3934V10.1C19.0969 9.69998 19.0612 9.30086 18.9929 8.90668C17.8636 8.67458 16.8493 8.05936 16.1216 7.1652C15.3938 6.27104 14.9975 5.15288 14.9996 4.00002V3.58002C14.3035 3.23748 13.5557 3.01222 12.7862 2.91335V2.07335C12.7862 1.83731 12.6925 1.61093 12.5256 1.44402C12.3586 1.27712 12.1323 1.18335 11.8962 1.18335C11.6602 1.18335 11.4338 1.27712 11.2669 1.44402C11.1 1.61093 11.0062 1.83731 11.0062 2.07335V2.94668C9.28338 3.18972 7.70661 4.04785 6.56705 5.36264C5.42748 6.67743 4.80205 8.36011 4.80623 10.1V13.3934C4.72273 14.5115 4.41675 15.6017 3.90623 16.6C3.44682 17.3216 2.89303 17.9785 2.25956 18.5534L2.0329 18.7534V20.6334H21.8996V18.7534Z" fill="#666666"/>
<path d="M19.9996 7.33341C21.8405 7.33341 23.3329 5.84103 23.3329 4.00008C23.3329 2.15913 21.8405 0.666748 19.9996 0.666748C18.1586 0.666748 16.6663 2.15913 16.6663 4.00008C16.6663 5.84103 18.1586 7.33341 19.9996 7.33341Z" fill="#A32015"/>
</g>
<defs>
<clipPath id="clip0_4_379">
<rect width="24" height="24" fill="white"/>
</clipPath>
</defs>
</svg>
