<svg width="30" height="30" viewBox="0 0 30 30" fill="none" xmlns="http://www.w3.org/2000/svg">
<path d="M6.66662 6.83337H20V8.16671H6.66662V6.83337ZM6.66662 13.5H13.405V14.8334H6.66662V13.5ZM19.4816 10.1667H6.66662V11.5H18.1491L19.4816 10.1667ZM10.6608 24.2267C10.8849 24.4837 11.1694 24.681 11.4887 24.8009C11.808 24.9208 12.152 24.9594 12.49 24.9134H18.9925C19.1472 24.9134 19.2955 24.8519 19.4049 24.7425C19.5143 24.6331 19.5758 24.4848 19.5758 24.33C19.5758 24.1753 19.5143 24.027 19.4049 23.9176C19.2955 23.8082 19.1472 23.7467 18.9925 23.7467H12.49C11.7308 23.7334 11.8658 23.0742 11.9725 22.87C12.1115 22.6304 12.2199 22.3742 12.295 22.1075C12.3448 21.893 12.3213 21.6679 12.2283 21.4682C12.1352 21.2685 11.978 21.1058 11.7816 21.0059C11.4662 20.8638 11.1128 20.8289 10.7757 20.9067C10.4386 20.9846 10.1362 21.1707 9.91496 21.4367C9.62829 21.7325 9.22996 22.185 8.84829 22.625C9.08412 21.7009 9.38996 20.515 9.68996 19.3584C9.77593 19.0948 9.75881 18.8085 9.64206 18.557C9.52531 18.3056 9.31761 18.1078 9.06079 18.0034C8.77638 17.9058 8.46555 17.9197 8.19102 18.0424C7.91649 18.165 7.6987 18.3873 7.58162 18.6642C7.22162 19.3567 4.37162 24.1325 4.34329 24.1809C4.304 24.2466 4.27806 24.3195 4.26693 24.3953C4.2558 24.4711 4.25971 24.5484 4.27844 24.6226C4.29717 24.6969 4.33034 24.7668 4.37607 24.8283C4.4218 24.8897 4.47919 24.9416 4.54496 24.9809C4.67779 25.0602 4.8367 25.0835 4.98672 25.0457C5.13675 25.0079 5.26561 24.912 5.34496 24.7792C5.45162 24.6 7.72662 20.7892 8.44412 19.5167C7.90412 21.6 7.30912 23.9184 7.27412 24.1267C7.23473 24.2799 7.24655 24.4417 7.3078 24.5875C7.36904 24.7334 7.47634 24.8551 7.61329 24.9342C7.76583 25.0099 7.93922 25.0326 8.1061 24.9988C8.27299 24.965 8.42387 24.8766 8.53496 24.7475C8.63996 24.6525 8.83662 24.4267 9.33246 23.8509C9.79443 23.3075 10.2676 22.7738 10.7516 22.25C10.9333 22.0584 11.0433 22.1434 10.9366 22.3317C10.728 22.5954 10.5927 22.9095 10.5444 23.2422C10.4961 23.575 10.5357 23.9146 10.6608 24.2267Z" fill="#A32015"/>
<path d="M23.3334 18.0791V26.6666H3.33341V3.33329H23.3334V7.49413L24.4417 6.38579C24.6124 6.21752 24.7994 6.06676 25.0001 5.93579V2.49996C25.0001 2.27895 24.9123 2.06698 24.756 1.9107C24.5997 1.75442 24.3878 1.66663 24.1667 1.66663H2.50008C2.27907 1.66663 2.06711 1.75442 1.91083 1.9107C1.75455 2.06698 1.66675 2.27895 1.66675 2.49996V27.5C1.66675 27.721 1.75455 27.9329 1.91083 28.0892C2.06711 28.2455 2.27907 28.3333 2.50008 28.3333H24.1667C24.3878 28.3333 24.5997 28.2455 24.756 28.0892C24.9123 27.9329 25.0001 27.721 25.0001 27.5V17.8558C24.4889 18.1266 23.8978 18.2058 23.3334 18.0791Z" fill="#A32015"/>
<path d="M28.4399 9.88415L28.0041 9.44832C28.2268 9.15395 28.3396 8.79094 28.3228 8.42218C28.3061 8.05342 28.1609 7.70212 27.9124 7.42915C27.5898 7.14485 27.168 6.99951 26.7388 7.0248C26.3095 7.05008 25.9077 7.24394 25.6207 7.56415L15.1832 18L14.4857 20.6183C14.4747 20.6526 14.4733 20.6892 14.4818 20.7242C14.4903 20.7592 14.5084 20.7911 14.5339 20.8165C14.5594 20.8418 14.5915 20.8596 14.6265 20.8679C14.6616 20.8762 14.6982 20.8746 14.7324 20.8633L17.3415 20.1575L27.0849 10.4141L27.4965 10.8266C27.5253 10.8554 27.5481 10.8895 27.5637 10.927C27.5792 10.9645 27.5872 11.0048 27.5872 11.0454C27.5872 11.086 27.5792 11.1263 27.5637 11.1638C27.5481 11.2013 27.5253 11.2354 27.4965 11.2641L23.399 15.3616C23.2741 15.4867 23.2039 15.6564 23.204 15.8332C23.2041 16.01 23.2744 16.1796 23.3995 16.3046C23.5246 16.4295 23.6942 16.4997 23.871 16.4996C24.0478 16.4996 24.2174 16.4292 24.3424 16.3041L28.4399 12.2066C28.7479 11.8985 28.9209 11.4807 28.9209 11.045C28.9209 10.6093 28.7479 10.1915 28.4399 9.88332V9.88415Z" fill="#A32015"/>
</svg>
