<svg width="219" height="52" viewBox="0 0 219 52" fill="none" xmlns="http://www.w3.org/2000/svg">
<path d="M182.026 18.8276L179.428 19.3966L177.368 19.8391L175.808 20.0345L172.009 20.5058L176.555 19.6868L182.026 18.8276Z" fill="white"/>
<path d="M179.428 19.3966L177.368 19.8391L175.808 20.0345L178.474 19.4943L179.428 19.3966Z" fill="white"/>
<path d="M177.549 28.8075L179.965 28.3793L184.221 27.7126H185.328L182.991 28.4483L181.943 29.0718L185.922 30.069L189.402 30.2069L201.299 30.5115L202.71 30.5948V30.8994L185.422 31.0115C185.422 31.0115 182.026 31.1092 181.899 31.0402L179.621 29.8621L177.549 29.3075V28.8075Z" fill="white"/>
<mask id="mask0_5_2962" style="mask-type:luminance" maskUnits="userSpaceOnUse" x="211" y="25" width="8" height="7">
<path d="M211.052 25.6034H218.67V31.4885H211.052V25.6034Z" fill="white"/>
</mask>
<g mask="url(#mask0_5_2962)">
<path d="M218.514 29.8879C218.106 29.8218 217.704 29.7212 217.313 29.5833C217.023 29.477 216.744 29.3534 216.471 29.2097C216.853 28.6983 217.083 28.1264 217.161 27.4914C217.172 27.4023 217.178 27.3161 217.175 27.227L214.577 26.7299L213.362 26.4942L212.353 26.2988C212.471 27.1264 212.477 27.9511 212.368 28.7787C212.261 29.5661 212.054 30.3247 211.744 31.0517H214.813C215.296 31.0661 218.376 31.1781 218.598 30.3189C218.632 30.1638 218.603 30.0201 218.514 29.8879ZM212.146 30.7758C212.577 29.908 212.807 28.9885 212.836 28.0172C212.848 27.5891 212.819 27.1638 212.753 26.7414L216.359 27.3391C216.161 27.9109 215.865 28.4281 215.477 28.8908C214.327 30.2643 212.727 30.6638 212.146 30.7758ZM217.327 30.6379C216.54 30.8735 215.917 30.8046 215.267 30.7902C214.526 30.7586 213.784 30.773 213.043 30.8304C214.08 30.6781 215.187 30.5546 216.359 30.4712L217.948 30.3879C217.747 30.4856 217.54 30.5689 217.327 30.6379Z" fill="white"/>
</g>
<mask id="mask1_5_2962" style="mask-type:luminance" maskUnits="userSpaceOnUse" x="164" y="23" width="5" height="8">
<path d="M164.601 23.3966H168.385V30.7529H164.601V23.3966Z" fill="white"/>
</mask>
<g mask="url(#mask1_5_2962)">
<path d="M165.155 24.1093C165.112 24.1093 164.988 24.3161 164.658 25.4799C164.649 26.7903 164.94 28.0288 165.529 29.1955L166.08 30.319L168.029 30.5116C167.675 30.1035 167.411 29.6409 167.241 29.1265C167.106 28.707 167.046 28.2788 167.06 27.8363C166.629 27.7501 166.25 27.5575 165.928 27.2558C165.307 26.6581 165.224 25.842 165.169 25.3564C165.098 24.6351 165.224 24.1236 165.155 24.1093Z" fill="white"/>
</g>
<path d="M214.523 24.6638C214.106 24.3765 213.678 24.115 213.238 23.8736L212.615 23.5546C210.253 22.4454 209.244 22.569 205.155 21.6006C202.488 20.9627 202.721 20.6035 199.669 19.6466C197.523 18.954 195.33 18.4799 193.092 18.2184C189.845 17.8449 187.44 18.1207 184.511 18.3851C182.273 18.5776 179.802 19.0345 175.862 19.5489L169.396 20.7414L168.083 20.977L167.394 21.1006L168.054 21.0747L169.313 21.0173L176.181 20.7414L178.764 21.5862L183.905 22.8765L185.644 22.1408L192.207 22.6121L193.589 22.9857L188.172 22.7931L185.865 22.6811L185.052 23.069L195.592 24.9253L202.736 26.0489C203.215 25.0776 203.928 24.3362 204.879 23.819C207.31 22.5144 209.825 23.7615 210.031 23.8736C210.991 24.3765 211.741 25.0948 212.284 26.0345L213.362 26.2155L214.577 26.4224L217.037 26.8535C216.281 26.0288 215.442 25.2989 214.523 24.6638ZM175.463 20.5201L172.546 20.6983L175.807 20.0345L177.368 19.8391L179.428 19.3966L181.293 19.1753L177.756 20.1581L175.463 20.5201ZM201.77 22.819L200.747 22.9311L194.06 22.3334L185.327 21.7529L179.58 21.4627L178.017 20.9914L178.169 20.6581L181.293 19.6466L183.753 19.0086L190.08 18.5374L196.215 19.2155L200.054 20.2414L204.85 21.9052L201.77 22.819ZM214.577 26.2012L213.362 25.9397L212.56 25.773C212.27 25.273 211.917 24.8247 211.497 24.4282C210.891 23.8448 210.195 23.4052 209.411 23.1121C209.925 23.1121 210.437 23.1609 210.942 23.2644C211.761 23.4339 212.537 23.7242 213.264 24.138C213.405 24.2069 213.537 24.2845 213.667 24.3736C213.928 24.5259 214.218 24.704 214.549 24.9397C215.21 25.4196 215.807 25.9627 216.345 26.5747L214.577 26.2012Z" fill="white"/>
<path d="M169.051 20.7126L168.112 20.8247L166.839 21.0029L166.494 21.1983L165.086 20.3678L168.166 20.6293L169.051 20.7126Z" fill="white"/>
<path d="M176.123 26.7012C175.937 26.3707 175.71 26.069 175.442 25.8018C175.172 25.5317 174.873 25.3018 174.546 25.115C174.215 24.9253 173.868 24.7817 173.5 24.6868C173.132 24.592 172.758 24.546 172.379 24.5518C170.06 24.5661 168.181 26.4225 168.195 28.684C168.198 29.2242 168.307 29.7414 168.526 30.2357C168.187 29.638 168.017 28.9972 168.014 28.3075C168 26.0489 169.879 24.2069 172.201 24.1926C172.615 24.184 173.02 24.2357 173.419 24.3477C173.819 24.4569 174.192 24.6265 174.543 24.8506C174.891 25.0719 175.201 25.342 175.471 25.6581C175.741 25.9713 175.957 26.3219 176.123 26.7012Z" fill="#F4F4F4"/>
<path d="M176.457 28.2529C176.454 27.7126 176.345 27.1954 176.124 26.7011C176.037 26.5345 175.934 26.3793 175.822 26.2299L175.724 26.1034C175.71 26.0776 175.684 26.0632 175.67 26.0488C175.655 26.0345 175.655 26.023 175.641 26.0086L175.557 25.9253L175.477 25.8276L175.365 25.7299C175.339 25.6925 175.307 25.658 175.267 25.6322L175.172 25.5373L174.951 25.3707L174.868 25.3161L174.784 25.2586L174.661 25.1753H174.647L174.578 25.1494C174.549 25.1207 174.523 25.1207 174.494 25.1063L174.425 25.0661C174.411 25.046 174.394 25.0373 174.371 25.0373H174.342L174.233 24.9827L174.149 24.9396H174.135C174.121 24.9224 174.103 24.9138 174.08 24.9138L173.983 24.8707L173.83 24.8161L173.707 24.773L173.569 24.7327H173.486L173.293 24.6781L173.155 24.6494H171.856L171.414 24.7184L171.29 24.7615L171.152 24.7873L171.026 24.8304L170.888 24.885H170.874L170.779 24.9253H170.75L170.652 24.9684L170.543 25.023L170.46 25.0661L170.391 25.0919L170.293 25.1494L170.129 25.2442L170.003 25.3276L169.879 25.4253C169.715 25.5345 169.563 25.6609 169.422 25.7988L169.342 25.8822C169.282 25.9368 169.233 25.9971 169.19 26.0632C169.161 26.0919 169.132 26.1034 169.121 26.1322L169.023 26.2586C168.983 26.3046 168.945 26.3563 168.914 26.4109L168.83 26.5345L168.773 26.6322L168.704 26.7299C168.692 26.7672 168.675 26.8046 168.649 26.8391C168.632 26.885 168.609 26.9253 168.58 26.9655C168.566 27.0115 168.546 27.0575 168.526 27.1034L168.486 27.2011C168.468 27.2241 168.46 27.2529 168.457 27.2816C168.457 27.296 168.457 27.296 168.442 27.296L168.402 27.4368C168.374 27.4971 168.356 27.5632 168.345 27.6293C168.33 27.6609 168.322 27.6925 168.319 27.727L168.29 27.796C168.29 27.8161 168.287 27.8333 168.276 27.8506C168.276 27.8793 168.264 27.908 168.264 27.9483C168.264 27.9885 168.25 28.0172 168.236 28.0603C168.238 28.1006 168.233 28.1437 168.221 28.1839C168.224 28.2213 168.218 28.2586 168.207 28.296V28.4195C168.195 28.4598 168.192 28.5029 168.195 28.5431V28.6954C168.195 29.2385 168.307 29.7557 168.526 30.25C168.713 30.5804 168.942 30.8793 169.21 31.1494C169.477 31.4195 169.776 31.6465 170.106 31.8362C170.434 32.0258 170.782 32.1667 171.149 32.2615C171.517 32.3592 171.891 32.4023 172.27 32.3965H172.379C171.684 32.3879 171.034 32.2069 170.437 31.8506C169.836 31.4942 169.365 31.0115 169.023 30.4023C168.83 29.9454 168.736 29.4684 168.733 28.9741C168.721 28.1322 168.974 27.3793 169.494 26.7155C169.782 26.2385 170.17 25.8649 170.652 25.5919C171.138 25.3218 171.658 25.1868 172.215 25.1896H172.575C172.922 25.1839 173.264 25.2241 173.603 25.3103C173.942 25.3965 174.261 25.5259 174.563 25.6983C174.868 25.8736 175.141 26.0833 175.388 26.3304C175.635 26.5776 175.842 26.8534 176.014 27.158C176.215 27.6121 176.316 28.0891 176.319 28.5862C176.325 29.1925 176.19 29.7644 175.917 30.3046C176.279 29.6695 176.46 28.9856 176.457 28.2529Z" fill="white"/>
<path d="M211.359 26.9081C211.17 26.5776 210.943 26.2788 210.672 26.0115C210.405 25.7443 210.106 25.5144 209.776 25.3276C209.448 25.1408 209.101 25 208.733 24.9052C208.365 24.8104 207.991 24.7673 207.615 24.773C205.279 24.7874 203.414 26.6322 203.428 28.8908C203.431 29.4282 203.537 29.9454 203.744 30.4426C203.414 29.8506 203.247 29.2127 203.247 28.5316C203.233 26.2701 205.101 24.4138 207.434 24.3995C207.848 24.3937 208.253 24.4483 208.652 24.5604C209.049 24.6724 209.422 24.842 209.77 25.0633C210.121 25.2874 210.428 25.5546 210.698 25.8707C210.968 26.1839 211.19 26.5288 211.359 26.9081Z" fill="#F4F4F4"/>
<path d="M211.69 28.4741C211.693 28.2155 211.667 27.9569 211.615 27.7011C211.563 27.4454 211.486 27.1983 211.382 26.9597C211.276 26.7212 211.149 26.4971 210.997 26.2845C210.845 26.0747 210.672 25.8793 210.48 25.7069C210.287 25.5316 210.081 25.3793 209.854 25.2471C209.629 25.1178 209.394 25.0115 209.147 24.931C208.899 24.8506 208.647 24.7988 208.388 24.7701C208.129 24.7442 207.871 24.7471 207.615 24.773H207.006L206.868 24.8017H206.854L206.701 24.8304L206.563 24.8563L206.411 24.8994L206.273 24.954L206.178 24.9827H206.135L205.997 25.0373H205.983L205.845 25.1063H205.831L205.707 25.1753H205.693L205.609 25.2184L205.348 25.3707L205.112 25.5373C204.951 25.6552 204.799 25.7845 204.658 25.9253L204.575 26.0086C204.535 26.0316 204.503 26.0661 204.477 26.1034L204.408 26.1753L204.339 26.2586L204.118 26.5488L204.063 26.6465L203.994 26.7557C203.986 26.7643 203.98 26.773 203.98 26.7845L203.882 26.9511C203.802 27.0977 203.733 27.25 203.675 27.408C203.661 27.4368 203.661 27.477 203.649 27.5057C203.635 27.5316 203.635 27.546 203.621 27.5603V27.5891C203.606 27.6006 203.606 27.6293 203.592 27.6437C203.592 27.6781 203.583 27.7097 203.566 27.7414L203.523 27.9195C203.512 27.9483 203.512 27.977 203.497 28.0029C203.483 28.0316 203.483 28.0718 203.483 28.1006C203.483 28.1293 203.468 28.1695 203.468 28.1983C203.468 28.2241 203.454 28.2672 203.454 28.296C203.454 28.3218 203.443 28.4597 203.428 28.5316V29.0431C203.428 29.0546 203.434 29.0632 203.443 29.0718V29.25C203.443 29.2931 203.454 29.3333 203.454 29.3764C203.466 29.408 203.471 29.4396 203.468 29.4741C203.48 29.5 203.486 29.5287 203.483 29.5575L203.523 29.6954C203.523 29.7097 203.537 29.7356 203.537 29.75C203.552 29.7931 203.552 29.8333 203.566 29.8764C203.581 29.9166 203.649 30.1235 203.704 30.25C203.759 30.3735 203.718 30.3046 203.73 30.3333C203.914 30.6753 204.135 30.9856 204.402 31.2672C204.667 31.5488 204.966 31.7902 205.296 31.9914C205.629 32.1896 205.98 32.3419 206.351 32.4483C206.724 32.5517 207.104 32.6034 207.489 32.6063H207.601C206.905 32.6006 206.259 32.4195 205.661 32.0661C205.063 31.7126 204.595 31.2299 204.256 30.6235C204.063 30.1666 203.96 29.6925 203.951 29.1954C203.951 28.3534 204.204 27.5948 204.713 26.9224C205.009 26.4511 205.399 26.0804 205.885 25.8103C206.371 25.5402 206.894 25.4023 207.448 25.3965H207.808C208.517 25.3879 209.178 25.5603 209.793 25.9138C210.411 26.2643 210.894 26.75 211.247 27.3649C211.451 27.8247 211.552 28.3046 211.552 28.8075C211.552 29.4109 211.414 29.977 211.138 30.5115C211.509 29.885 211.695 29.2069 211.69 28.4741Z" fill="white"/>
<path d="M184 26.7989C182.535 25.5058 180.931 24.4167 179.193 23.5259C177.923 22.8765 176.512 22.1696 174.509 21.8908C173.696 21.7759 172.882 21.7472 172.063 21.8075C170.897 21.8995 169.776 22.1811 168.704 22.6523C168.181 22.8995 167.684 23.1926 167.213 23.5259L167.158 23.7357C167.523 23.4684 167.911 23.2385 168.319 23.0403C169.77 22.3219 171.095 22.2098 172.009 22.1265C172.902 22.0575 173.796 22.0805 174.687 22.1954C175.836 22.3765 176.871 22.7242 179.081 23.888C180.773 24.773 182.411 25.7414 184 26.7989Z" fill="white"/>
<path d="M177.77 28.0862C177.827 27.75 177.822 27.4109 177.755 27.0747C177.701 26.7327 177.586 26.4138 177.411 26.1178C178.612 26.5488 179.842 26.8707 181.097 27.0891C182.014 27.2414 182.937 27.3333 183.862 27.3649L177.77 28.0862Z" fill="white"/>
<mask id="mask2_5_2962" style="mask-type:luminance" maskUnits="userSpaceOnUse" x="167" y="2" width="48" height="21">
<path d="M167.649 2H214.73V22.6609H167.649V2Z" fill="white"/>
</mask>
<g mask="url(#mask2_5_2962)">
<path d="M168.167 18.6753C170.721 9.11207 179.994 2 191.02 2C203.483 2 213.721 11.0948 214.523 22.5575C214.121 22.2931 213.693 22.0431 213.239 21.7931C212.049 11.3305 202.543 3.13793 191.02 3.13793C180.644 3.13793 171.882 9.79023 169.397 18.7874L168.083 19.0086C168.086 18.9598 168.098 18.9138 168.112 18.8707L168.167 18.6753Z" fill="white"/>
</g>
<path d="M192.069 4.70398L193.078 6.69823L195.345 7.0172L193.701 8.57179L194.086 10.7614L192.069 9.72122L190.037 10.7614L190.425 8.57179L188.782 7.0172L191.046 6.69823L192.069 4.70398Z" fill="white"/>
<path d="M182.647 7.35059L183.477 8.97415L185.313 9.23564L183.986 10.4971L184.29 12.2845L182.647 11.4397L181.003 12.2845L181.319 10.4971L179.98 9.23564L181.819 8.97415L182.647 7.35059Z" fill="white"/>
<path d="M176.457 12.2844L177.132 13.589L178.612 13.8103L177.535 14.8218L177.796 16.2643L176.457 15.5833L175.129 16.2643L175.379 14.8218L174.302 13.8103L175.793 13.589L176.457 12.2844Z" fill="white"/>
<path d="M205.583 12.2844L206.259 13.589L207.753 13.8103L206.661 14.8218L206.922 16.2643L205.583 15.5833L204.256 16.2643L204.506 14.8218L203.428 13.8103L204.92 13.589L205.583 12.2844Z" fill="white"/>
<path d="M199.905 7.35059L200.718 8.97415L202.572 9.23564L201.23 10.4971L201.549 12.2845L199.905 11.4397L198.247 12.2845L198.563 10.4971L197.224 9.23564L199.075 8.97415L199.905 7.35059Z" fill="white"/>
<mask id="mask3_5_2962" style="mask-type:luminance" maskUnits="userSpaceOnUse" x="171" y="39" width="41" height="11">
<path d="M171.328 39.5804H211.052V50H171.328V39.5804Z" fill="white"/>
</mask>
<g mask="url(#mask3_5_2962)">
<path d="M209.328 40.2155H210.819C206.578 46.1063 199.405 49.9999 191.31 49.9999C183.213 49.9999 176.029 46.1063 171.799 40.2155H173.279C177.353 45.4396 183.917 48.8505 191.31 48.8505C198.701 48.8505 205.25 45.4396 209.328 40.2155Z" fill="white"/>
</g>
<path d="M156.831 3.93384V48.0689" stroke="white" stroke-width="7.0044" stroke-linecap="round"/>
<path d="M167.376 37.1816L167.031 38.1241C167.008 38.2017 166.988 38.2735 166.974 38.3425C166.956 38.4114 166.951 38.4689 166.951 38.5149C166.951 38.6701 166.999 38.785 167.1 38.8597C167.198 38.9287 167.353 38.9632 167.56 38.9632H167.767V39.3425H165.548V38.9632H165.721C165.813 38.9632 165.887 38.9574 165.951 38.9402C166.011 38.9172 166.066 38.8798 166.112 38.8252C166.163 38.7735 166.215 38.6988 166.261 38.6068C166.307 38.5149 166.356 38.3971 166.41 38.2505L168.422 32.8712H169.135L171.181 38.4804C171.218 38.5724 171.252 38.65 171.284 38.7103C171.321 38.7735 171.364 38.8224 171.41 38.8597C171.462 38.9 171.52 38.9258 171.583 38.9402C171.652 38.9574 171.732 38.9632 171.824 38.9632H171.939V39.3425H169.445V38.9632H169.663C170.022 38.9632 170.204 38.8195 170.204 38.5264C170.204 38.4804 170.195 38.4316 170.181 38.377C170.163 38.3252 170.146 38.262 170.123 38.1931L169.767 37.1816H167.376ZM169.043 35.1356C168.942 34.8683 168.853 34.6183 168.778 34.3885C168.701 34.1528 168.635 33.9229 168.583 33.6988C168.566 33.808 168.543 33.9143 168.514 34.0206C168.482 34.1212 168.451 34.2247 168.422 34.331C168.39 34.4402 168.353 34.5494 168.307 34.6643C168.267 34.7793 168.221 34.9114 168.169 35.0551L167.56 36.7218H169.606L169.043 35.1356Z" fill="white"/>
<path d="M177.04 34.4919C177.04 34.6931 177.008 34.8683 176.948 35.0206C176.893 35.1758 176.816 35.308 176.718 35.4229C176.617 35.5379 176.5 35.6385 176.362 35.7218C176.224 35.7994 176.074 35.8655 175.913 35.9172V35.9517C176.12 35.9919 176.307 36.0522 176.477 36.1356C176.652 36.2218 176.801 36.331 176.925 36.4689C177.046 36.6068 177.143 36.7735 177.212 36.9632C177.281 37.1471 177.316 37.3597 177.316 37.5954C177.316 38.1787 177.123 38.6155 176.741 38.9057C176.356 39.1988 175.77 39.3425 174.982 39.3425H172.281V38.9632H172.396C172.503 38.9632 172.597 38.9574 172.684 38.9402C172.776 38.9258 172.856 38.8942 172.925 38.8482C172.994 38.8022 173.046 38.739 173.086 38.6528C173.123 38.5695 173.143 38.4545 173.143 38.308V33.8597C173.143 33.7304 173.12 33.627 173.074 33.5494C173.034 33.466 172.982 33.4 172.913 33.354C172.85 33.308 172.776 33.2821 172.684 33.2735C172.592 33.2591 172.494 33.2505 172.396 33.2505H172.281V32.8712H174.718C175.5 32.8712 176.08 33.0034 176.465 33.262C176.847 33.5235 177.04 33.9344 177.04 34.4919ZM174.063 38.8942H174.936C175.195 38.8942 175.413 38.8712 175.592 38.8252C175.767 38.7735 175.908 38.6959 176.017 38.5954C176.132 38.489 176.212 38.3511 176.258 38.1816C176.31 38.0149 176.339 37.8109 176.339 37.5724C176.339 37.3367 176.316 37.1298 176.27 36.9517C176.23 36.7764 176.158 36.6298 176.051 36.5149C175.942 36.4 175.798 36.3166 175.615 36.262C175.436 36.2103 175.218 36.1816 174.959 36.1816H174.063V38.8942ZM174.063 35.7218H174.684C174.951 35.7218 175.172 35.6988 175.35 35.6528C175.526 35.6068 175.666 35.535 175.776 35.4344C175.882 35.3367 175.959 35.2103 176.005 35.0551C176.051 34.8942 176.074 34.7074 176.074 34.4919C176.074 34.2706 176.046 34.0867 175.994 33.9402C175.948 33.7879 175.867 33.6643 175.753 33.5724C175.638 33.4804 175.491 33.4172 175.316 33.377C175.138 33.3396 174.919 33.3195 174.661 33.3195H174.063V35.7218Z" fill="white"/>
<path d="M181.09 38.308C181.09 38.4545 181.107 38.5695 181.147 38.6528C181.185 38.739 181.239 38.8022 181.308 38.8482C181.377 38.8942 181.452 38.9258 181.538 38.9402C181.63 38.9574 181.728 38.9632 181.837 38.9632H182.044V39.3425H179.216V38.9632H179.423C179.521 38.9632 179.619 38.9574 179.711 38.9402C179.803 38.9258 179.883 38.9 179.952 38.8597C180.021 38.8224 180.073 38.762 180.113 38.6758C180.15 38.5925 180.17 38.4862 180.17 38.354V33.3195H179.308C179.17 33.3195 179.055 33.3396 178.963 33.377C178.877 33.4172 178.805 33.4689 178.745 33.5379C178.69 33.6068 178.647 33.6873 178.619 33.7793C178.587 33.8712 178.567 33.9689 178.561 34.0666L178.515 34.4574H178.044L178.09 32.8712H183.193L183.239 34.4574H182.768L182.722 34.0666C182.705 33.9689 182.682 33.8712 182.653 33.7793C182.63 33.6873 182.587 33.6068 182.527 33.5379C182.472 33.4689 182.4 33.4172 182.308 33.377C182.216 33.3396 182.104 33.3195 181.975 33.3195H181.09V38.308Z" fill="white"/>
<path d="M189.631 36.1012C189.631 36.6012 189.565 37.0552 189.435 37.469C189.312 37.877 189.128 38.2247 188.883 38.5149C188.645 38.8081 188.349 39.0322 187.998 39.1931C187.645 39.354 187.24 39.4345 186.78 39.4345C186.297 39.4345 185.875 39.354 185.516 39.1931C185.162 39.0322 184.866 38.8081 184.631 38.5149C184.392 38.2247 184.211 37.8713 184.09 37.4575C183.975 37.0437 183.918 36.5897 183.918 36.0897C183.918 35.5839 183.975 35.1299 184.09 34.7218C184.211 34.3167 184.392 33.969 184.631 33.6759C184.866 33.3856 185.165 33.1644 185.527 33.0092C185.886 32.8483 186.309 32.7678 186.792 32.7678C187.243 32.7678 187.645 32.8483 187.998 33.0092C188.349 33.1644 188.645 33.3856 188.883 33.6759C189.128 33.969 189.312 34.3195 189.435 34.7333C189.565 35.1414 189.631 35.5954 189.631 36.1012ZM184.929 36.1012C184.929 36.5466 184.958 36.946 185.021 37.2966C185.09 37.65 185.197 37.9489 185.343 38.1931C185.496 38.4402 185.688 38.627 185.918 38.7563C186.154 38.8799 186.441 38.9402 186.78 38.9402C187.116 38.9402 187.401 38.8799 187.631 38.7563C187.866 38.627 188.059 38.4402 188.205 38.1931C188.349 37.9489 188.452 37.65 188.516 37.2966C188.585 36.946 188.619 36.5466 188.619 36.1012C188.619 35.65 188.585 35.2477 188.516 34.8943C188.452 34.5437 188.349 34.2477 188.205 34.0092C188.059 33.7649 187.866 33.581 187.631 33.4575C187.401 33.3282 187.119 33.2621 186.792 33.2621C186.452 33.2621 186.165 33.3282 185.929 33.4575C185.691 33.581 185.496 33.7649 185.343 34.0092C185.197 34.2477 185.09 34.5437 185.021 34.8943C184.958 35.2477 184.929 35.65 184.929 36.1012Z" fill="white"/>
<path d="M195.884 39.3425V38.9632H195.919C196.011 38.9632 196.094 38.9574 196.172 38.9402C196.255 38.9258 196.324 38.9 196.378 38.8597C196.43 38.8224 196.473 38.7649 196.505 38.6873C196.542 38.6126 196.562 38.512 196.562 38.3885V33.5494L194.493 39.3425H193.999L191.896 33.5609V38.308C191.896 38.4545 191.91 38.5695 191.942 38.6528C191.97 38.739 192.014 38.8022 192.068 38.8482C192.128 38.8942 192.197 38.9258 192.275 38.9402C192.358 38.9574 192.45 38.9632 192.551 38.9632H192.574V39.3425H190.482V38.9632H190.597C190.695 38.9632 190.792 38.9574 190.884 38.9402C190.976 38.9258 191.051 38.9 191.114 38.8597C191.183 38.8224 191.235 38.762 191.275 38.6758C191.321 38.5925 191.344 38.4862 191.344 38.354V33.8597C191.344 33.7304 191.321 33.627 191.275 33.5494C191.235 33.466 191.183 33.4 191.114 33.354C191.051 33.308 190.976 33.2821 190.884 33.2735C190.792 33.2591 190.695 33.2505 190.597 33.2505H190.482V32.8712H192.551L194.424 38.0551L196.287 32.8712H198.298V33.2505H198.183C198.083 33.2505 197.988 33.2591 197.896 33.2735C197.804 33.2908 197.723 33.3195 197.654 33.3655C197.585 33.4114 197.531 33.4775 197.493 33.5609C197.453 33.6471 197.436 33.762 197.436 33.9057V38.308C197.436 38.4545 197.453 38.5695 197.493 38.6528C197.531 38.739 197.585 38.8022 197.654 38.8482C197.723 38.8942 197.804 38.9258 197.896 38.9402C197.988 38.9574 198.083 38.9632 198.183 38.9632H198.298V39.3425H195.884Z" fill="white"/>
<path d="M202.934 39.3425V38.9632H203.049C203.155 38.9632 203.25 38.9574 203.336 38.9402C203.428 38.9258 203.509 38.8942 203.578 38.8482C203.647 38.8022 203.698 38.739 203.739 38.6528C203.776 38.5695 203.796 38.4545 203.796 38.308V34.7218L200.762 38.1241V38.308C200.762 38.4545 200.779 38.5695 200.819 38.6528C200.856 38.739 200.905 38.8022 200.968 38.8482C201.037 38.8942 201.118 38.9258 201.21 38.9402C201.302 38.9574 201.397 38.9632 201.497 38.9632H201.624V39.3425H198.98V38.9632H199.095C199.201 38.9632 199.296 38.9574 199.382 38.9402C199.474 38.9258 199.555 38.8942 199.624 38.8482C199.693 38.8022 199.744 38.739 199.785 38.6528C199.822 38.5695 199.842 38.4545 199.842 38.308V33.8597C199.842 33.7304 199.819 33.627 199.773 33.5494C199.733 33.466 199.681 33.4 199.612 33.354C199.549 33.308 199.474 33.2821 199.382 33.2735C199.29 33.2591 199.193 33.2505 199.095 33.2505H198.98V32.8712H201.624V33.2505H201.497C201.397 33.2505 201.302 33.2591 201.21 33.2735C201.118 33.2908 201.037 33.3195 200.968 33.3655C200.905 33.4114 200.856 33.4775 200.819 33.5609C200.779 33.6471 200.762 33.762 200.762 33.9057V37.4919L203.796 34.0781V33.9057C203.796 33.762 203.776 33.6471 203.739 33.5609C203.698 33.4775 203.647 33.4114 203.578 33.3655C203.509 33.3195 203.428 33.2908 203.336 33.2735C203.25 33.2591 203.155 33.2505 203.049 33.2505H202.934V32.8712H205.578V33.2505H205.451C205.351 33.2505 205.256 33.2591 205.164 33.2735C205.072 33.2908 204.991 33.3195 204.923 33.3655C204.859 33.4114 204.81 33.4775 204.773 33.5609C204.733 33.6471 204.716 33.762 204.716 33.9057V38.354C204.716 38.4862 204.733 38.5925 204.773 38.6758C204.81 38.762 204.865 38.8224 204.934 38.8597C205.003 38.9 205.078 38.9258 205.164 38.9402C205.256 38.9574 205.351 38.9632 205.451 38.9632H205.578V39.3425H202.934Z" fill="white"/>
<path d="M211.913 33.3769C211.913 33.4689 211.896 33.5494 211.867 33.6183C211.844 33.6873 211.812 33.7505 211.775 33.8022C211.735 33.8568 211.689 33.8999 211.637 33.9287C211.583 33.9603 211.525 33.9833 211.465 33.9976C211.456 33.9287 211.436 33.8654 211.407 33.8022C211.384 33.7419 211.35 33.6873 211.304 33.6413C211.264 33.5896 211.215 33.5494 211.154 33.5264C211.091 33.4976 211.019 33.4804 210.936 33.4804C210.758 33.4804 210.591 33.5695 210.43 33.7448C210.269 33.9229 210.097 34.193 209.913 34.5608C209.821 34.7448 209.735 34.9114 209.66 35.0551C209.591 35.193 209.522 35.3166 209.453 35.4229C209.39 35.5321 209.33 35.6269 209.269 35.7103C209.215 35.7879 209.154 35.8568 209.085 35.9172C209.246 35.9258 209.384 35.9488 209.499 35.9861C209.614 36.0177 209.712 36.0666 209.798 36.1356C209.881 36.1988 209.959 36.2792 210.028 36.3769C210.097 36.4689 210.166 36.5781 210.235 36.6988L211.085 38.239C211.223 38.4919 211.376 38.6758 211.545 38.7907C211.712 38.9057 211.896 38.9631 212.097 38.9631H212.131V39.3425H211.993C211.709 39.3425 211.47 39.331 211.281 39.308C211.088 39.285 210.927 39.2448 210.798 39.1815C210.666 39.1126 210.557 39.0264 210.465 38.9172C210.373 38.8022 210.281 38.6614 210.189 38.4919L209.361 36.9057C209.284 36.7764 209.212 36.6729 209.143 36.5953C209.08 36.512 208.999 36.4459 208.901 36.3999C208.81 36.354 208.695 36.3281 208.557 36.3195C208.419 36.3051 208.246 36.2965 208.039 36.2965V38.308C208.039 38.4545 208.057 38.5695 208.097 38.6528C208.134 38.739 208.183 38.8022 208.246 38.8482C208.315 38.8942 208.396 38.9258 208.488 38.9402C208.58 38.9574 208.674 38.9631 208.775 38.9631H208.901V39.3425H206.258V38.9631H206.373C206.47 38.9631 206.568 38.9574 206.66 38.9402C206.752 38.9258 206.827 38.8999 206.89 38.8597C206.959 38.8223 207.011 38.762 207.051 38.6758C207.097 38.5925 207.12 38.4861 207.12 38.3539V33.8597C207.12 33.7304 207.097 33.6269 207.051 33.5494C207.011 33.466 206.959 33.3999 206.89 33.354C206.827 33.308 206.752 33.2821 206.66 33.2735C206.568 33.2591 206.47 33.2505 206.373 33.2505H206.258V32.8712H208.901V33.2505H208.775C208.674 33.2505 208.58 33.2591 208.488 33.2735C208.396 33.2907 208.315 33.3195 208.246 33.3654C208.183 33.4114 208.134 33.4775 208.097 33.5608C208.057 33.6471 208.039 33.762 208.039 33.9057V35.8827C208.177 35.8827 208.287 35.8798 208.373 35.8712C208.465 35.8568 208.537 35.8367 208.591 35.8137C208.651 35.7907 208.7 35.7649 208.741 35.7333C208.778 35.6959 208.815 35.6528 208.856 35.6068C208.93 35.5149 209.022 35.3597 209.131 35.1356C209.246 34.9057 209.387 34.6241 209.557 34.285C209.672 34.0637 209.787 33.8597 209.901 33.6758C210.022 33.4919 210.146 33.3396 210.269 33.216C210.399 33.0867 210.537 32.9861 210.683 32.9172C210.835 32.8482 210.999 32.8137 211.177 32.8137C211.307 32.8137 211.419 32.831 211.511 32.8597C211.608 32.8827 211.686 32.9229 211.741 32.9746C211.801 33.0292 211.844 33.0896 211.867 33.1585C211.896 33.2275 211.913 33.3022 211.913 33.3769Z" fill="white"/>
<path d="M215.682 32.7793C215.995 32.7793 216.262 32.808 216.487 32.8598C216.716 32.9057 216.906 32.9747 217.061 33.0667C217.214 33.1586 217.329 33.2678 217.406 33.3885C217.481 33.5121 217.521 33.6471 217.521 33.7908C217.521 33.8914 217.498 33.9804 217.452 34.0552C217.412 34.1327 217.36 34.2017 217.291 34.2621C217.222 34.3167 217.136 34.3598 217.038 34.3885C216.946 34.4115 216.843 34.423 216.728 34.423C216.728 34.285 216.708 34.1471 216.67 34.0092C216.63 33.8713 216.57 33.7506 216.487 33.6414C216.409 33.5264 216.303 33.4345 216.165 33.3655C216.027 33.2965 215.86 33.2621 215.67 33.2621C215.326 33.2621 215.033 33.3253 214.797 33.446C214.558 33.5695 214.363 33.7534 214.211 33.9977C214.056 34.2362 213.946 34.5322 213.877 34.8827C213.814 35.2362 213.785 35.6414 213.785 36.1011C213.785 36.5006 213.82 36.8684 213.889 37.2046C213.958 37.5437 214.067 37.8339 214.222 38.0781C214.375 38.3167 214.57 38.5034 214.808 38.6414C215.044 38.7735 215.331 38.8368 215.67 38.8368C215.892 38.8368 216.087 38.8195 216.257 38.7793C216.423 38.7333 216.573 38.6758 216.705 38.6069C216.834 38.5322 216.949 38.446 217.05 38.354C217.147 38.2621 217.237 38.1672 217.314 38.0667C217.36 38.0983 217.397 38.1442 217.429 38.2046C217.466 38.2592 217.487 38.3281 217.487 38.4115C217.487 38.535 217.443 38.6586 217.36 38.7793C217.283 38.8942 217.165 39.0034 217.004 39.1011C216.849 39.1931 216.65 39.2735 216.406 39.3425C216.159 39.4029 215.869 39.4345 215.533 39.4345C215.079 39.4345 214.682 39.354 214.337 39.1931C213.992 39.0322 213.705 38.808 213.475 38.5149C213.245 38.2247 213.067 37.877 212.946 37.469C212.831 37.0552 212.774 36.6011 212.774 36.1011C212.774 35.6126 212.834 35.1644 212.958 34.7563C213.079 34.3425 213.262 33.9919 213.51 33.6988C213.754 33.4086 214.056 33.1816 214.418 33.0207C214.785 32.8598 215.205 32.7793 215.682 32.7793Z" fill="white"/>
<path d="M89.9366 12.5198L89.5228 13.7497C89.4826 13.8646 89.4453 14.0026 89.4079 14.1635C89.3677 14.3187 89.3504 14.4508 89.3504 14.5658C89.3504 14.6664 89.3648 14.7497 89.3964 14.8187C89.4338 14.8876 89.4826 14.9451 89.5458 14.9911C89.6062 15.0313 89.6751 15.0658 89.7527 15.0945C89.8274 15.1175 89.9079 15.129 89.9941 15.129H90.6033V15.8876H86.8677V15.129H87.0401C87.1694 15.129 87.2843 15.1146 87.3849 15.083C87.4912 15.0543 87.5918 14.9997 87.6838 14.9221C87.7757 14.8474 87.8591 14.7439 87.9366 14.6118C88.02 14.4738 88.1033 14.2985 88.1895 14.083L91.3045 5.64624H93.27L96.27 14.0945C96.3389 14.2957 96.4108 14.4623 96.4884 14.6003C96.5631 14.7324 96.6493 14.8359 96.7412 14.9106C96.8332 14.9882 96.928 15.0457 97.0286 15.083C97.1263 15.1146 97.2355 15.129 97.3504 15.129H97.6148V15.8876H92.8792V15.129H93.4309C93.5056 15.129 93.5803 15.1175 93.6493 15.0945C93.724 15.0715 93.7901 15.0428 93.8447 15.0026C93.905 14.9566 93.9539 14.8991 93.9941 14.8301C94.0315 14.7554 94.0516 14.6664 94.0516 14.5658C94.0516 14.4508 94.0343 14.3416 94.0056 14.2324C93.9826 14.1261 93.9539 14.0342 93.9251 13.9566L93.4194 12.5198H89.9366ZM92.3734 9.28992C92.3274 9.129 92.2757 8.96233 92.224 8.78417C92.1694 8.60026 92.1148 8.41635 92.0631 8.23245C92.0085 8.04279 91.9539 7.85314 91.9022 7.66923C91.8562 7.48532 91.8131 7.31003 91.7757 7.14049C91.7355 7.28704 91.6866 7.44796 91.6263 7.62325C91.5717 7.79279 91.5114 7.96808 91.4424 8.15199C91.3792 8.33015 91.3188 8.50831 91.2585 8.69222C91.1953 8.87612 91.1378 9.05429 91.0861 9.22095L90.2355 11.6462H93.132L92.3734 9.28992Z" fill="white"/>
<path d="M106.329 8.69222C106.329 9.12325 106.251 9.53704 106.099 9.9336C105.952 10.3244 105.711 10.675 105.375 10.9796C105.036 11.2784 104.599 11.5198 104.064 11.7037C103.527 11.8819 102.872 11.9681 102.099 11.9681H101.605V14.2669C101.605 14.4595 101.622 14.6118 101.662 14.7267C101.708 14.8359 101.765 14.9192 101.834 14.9796C101.903 15.0428 101.984 15.083 102.076 15.106C102.174 15.1233 102.271 15.129 102.363 15.129H103.248V15.8876H98.0068V15.129H98.6045C98.7109 15.129 98.8057 15.1175 98.8919 15.0945C98.9838 15.0715 99.0586 15.0313 99.1218 14.9681C99.1907 14.8991 99.2425 14.8043 99.2827 14.6807C99.3201 14.56 99.3402 14.3991 99.3402 14.198V7.27842C99.3402 7.08877 99.3201 6.9336 99.2827 6.81865C99.2425 6.70371 99.1907 6.6175 99.1218 6.55429C99.0586 6.49394 98.9838 6.45659 98.8919 6.43934C98.8057 6.41636 98.7109 6.40486 98.6045 6.40486H98.0068V5.64624H102.409C103.076 5.64624 103.653 5.72095 104.145 5.86463C104.633 6.00256 105.041 6.20659 105.363 6.47383C105.685 6.73532 105.926 7.05429 106.087 7.42785C106.248 7.79567 106.329 8.21808 106.329 8.69222ZM101.605 11.1405H101.949C102.309 11.1405 102.61 11.1003 102.857 11.0141C103.102 10.9221 103.3 10.7813 103.455 10.5888C103.616 10.3991 103.731 10.1491 103.8 9.84164C103.875 9.53704 103.915 9.16923 103.915 8.73819C103.915 8.35601 103.883 8.02555 103.823 7.74969C103.76 7.46808 103.662 7.23245 103.524 7.04854C103.386 6.86463 103.205 6.7267 102.984 6.63475C102.76 6.54279 102.49 6.49681 102.168 6.49681H101.605V11.1405Z" fill="white"/>
<path d="M110.765 15.0141H113.639C113.782 15.0141 113.906 14.9882 114.006 14.9336C114.113 14.8819 114.202 14.8043 114.271 14.7037C114.345 14.606 114.409 14.4911 114.455 14.3589C114.501 14.221 114.535 14.0773 114.558 13.9221L114.673 13.2439H115.662L115.558 15.8876H107.156V15.129H107.753C107.86 15.129 107.955 15.1233 108.041 15.106C108.133 15.083 108.207 15.0428 108.271 14.9796C108.34 14.9192 108.391 14.8359 108.432 14.7267C108.469 14.6118 108.489 14.4595 108.489 14.2669V7.3359C108.489 7.129 108.469 6.96521 108.432 6.84164C108.391 6.72095 108.34 6.629 108.271 6.56578C108.207 6.49681 108.133 6.45659 108.041 6.43934C107.955 6.41636 107.86 6.40486 107.753 6.40486H107.156V5.64624H115.121L115.167 8.28992H114.167L114.098 7.61176C114.058 7.26118 113.972 6.99107 113.834 6.80716C113.696 6.6175 113.478 6.5198 113.179 6.5198H110.765V10.106H114.167V10.9681H110.765V15.0141Z" fill="white"/>
<path d="M122.504 15.8876V15.129H123.124C123.222 15.129 123.32 15.1175 123.412 15.0945C123.504 15.0715 123.578 15.0313 123.642 14.9681C123.711 14.8991 123.762 14.8043 123.802 14.6807C123.84 14.56 123.86 14.3991 123.86 14.198V10.9796H120.113V14.198C120.113 14.3991 120.13 14.56 120.17 14.6807C120.208 14.8043 120.257 14.8991 120.32 14.9681C120.389 15.0313 120.469 15.0715 120.561 15.0945C120.653 15.1175 120.748 15.129 120.848 15.129H121.469V15.8876H116.515V15.129H117.113C117.219 15.129 117.314 15.1175 117.4 15.0945C117.492 15.0715 117.567 15.0313 117.63 14.9681C117.699 14.8991 117.751 14.8043 117.791 14.6807C117.828 14.56 117.848 14.3991 117.848 14.198V7.28992C117.848 7.10026 117.828 6.94509 117.791 6.83015C117.751 6.71521 117.699 6.629 117.63 6.56578C117.561 6.50544 117.481 6.46808 117.389 6.45084C117.302 6.42785 117.211 6.41636 117.113 6.41636H116.515V5.64624H121.469V6.41636H120.848C120.748 6.41636 120.653 6.42785 120.561 6.45084C120.469 6.46808 120.389 6.50831 120.32 6.57727C120.257 6.64049 120.208 6.73245 120.17 6.85314C120.13 6.9767 120.113 7.14049 120.113 7.34739V10.106H123.86V7.34739C123.86 7.14049 123.84 6.9767 123.802 6.85314C123.762 6.73245 123.711 6.64049 123.642 6.57727C123.578 6.50831 123.504 6.46808 123.412 6.45084C123.32 6.42785 123.222 6.41636 123.124 6.41636H122.504V5.64624H127.458V6.41636H126.86C126.759 6.41636 126.665 6.42785 126.573 6.45084C126.486 6.46808 126.412 6.50831 126.343 6.57727C126.274 6.64049 126.219 6.73245 126.182 6.85314C126.142 6.9767 126.124 7.14049 126.124 7.34739V14.2669C126.124 14.4595 126.142 14.6118 126.182 14.7267C126.228 14.8359 126.28 14.9192 126.343 14.9796C126.412 15.0428 126.486 15.083 126.573 15.106C126.665 15.1233 126.759 15.129 126.86 15.129H127.458V15.8876H122.504Z" fill="white"/>
<path d="M132.564 6.5198C132.564 6.99681 132.521 7.48245 132.438 7.97957C132.36 8.47095 132.257 8.96808 132.128 9.47383C131.996 9.97383 131.846 10.471 131.679 10.9681C131.51 11.4681 131.326 11.9537 131.128 12.4278C130.935 12.9049 130.74 13.3589 130.542 13.7957C130.34 14.2267 130.145 14.6319 129.955 15.0141H133.921V6.5198H132.564ZM128.84 15.0141C129.191 14.3244 129.53 13.6233 129.852 12.9106C130.174 12.198 130.455 11.4968 130.702 10.8072C130.947 10.1175 131.142 9.45084 131.289 8.80716C131.441 8.15773 131.519 7.55141 131.519 6.99107C131.519 6.86176 131.484 6.75831 131.415 6.68072C131.346 6.59739 131.254 6.53704 131.139 6.49681C131.024 6.45946 130.889 6.43647 130.737 6.42785C130.59 6.41348 130.438 6.40486 130.277 6.40486H130.231V5.64624H137.381V6.40486H137.185C137.053 6.40486 136.927 6.41636 136.806 6.43934C136.691 6.45659 136.582 6.49681 136.484 6.56578C136.392 6.63475 136.317 6.73532 136.266 6.86463C136.211 6.98819 136.185 7.15199 136.185 7.35888V13.9796C136.185 14.2037 136.214 14.3819 136.277 14.5198C136.346 14.6577 136.429 14.7669 136.53 14.8416C136.636 14.9106 136.76 14.9566 136.898 14.9796C137.042 15.0026 137.2 15.0141 137.369 15.0141H137.656V18.8991H136.702C136.702 18.3704 136.668 17.9135 136.599 17.5313C136.536 17.1549 136.429 16.8445 136.277 16.6003C136.131 16.3531 135.938 16.175 135.702 16.06C135.473 15.9451 135.191 15.8876 134.863 15.8876H130.748C130.418 15.8876 130.139 15.9451 129.909 16.06C129.679 16.175 129.487 16.3531 129.335 16.6003C129.188 16.8445 129.082 17.1549 129.013 17.5313C128.95 17.9135 128.921 18.3704 128.921 18.8991H127.967V15.0141H128.84Z" fill="white"/>
<path d="M141.129 12.5198L140.715 13.7497C140.675 13.8646 140.637 14.0026 140.6 14.1635C140.56 14.3187 140.542 14.4508 140.542 14.5658C140.542 14.6664 140.557 14.7497 140.588 14.8187C140.626 14.8876 140.675 14.9451 140.738 14.9911C140.798 15.0313 140.867 15.0658 140.945 15.0945C141.019 15.1175 141.1 15.129 141.186 15.129H141.795V15.8876H138.06V15.129H138.232C138.361 15.129 138.476 15.1146 138.577 15.083C138.683 15.0543 138.784 14.9997 138.876 14.9221C138.968 14.8474 139.051 14.7439 139.129 14.6118C139.212 14.4738 139.295 14.2985 139.381 14.083L142.496 5.64624H144.462L147.462 14.0945C147.531 14.2957 147.603 14.4623 147.68 14.6003C147.755 14.7324 147.841 14.8359 147.933 14.9106C148.025 14.9882 148.12 15.0457 148.22 15.083C148.318 15.1146 148.427 15.129 148.542 15.129H148.807V15.8876H144.071V15.129H144.623C144.698 15.129 144.772 15.1175 144.841 15.0945C144.916 15.0715 144.982 15.0428 145.037 15.0026C145.097 14.9566 145.146 14.8991 145.186 14.8301C145.223 14.7554 145.243 14.6664 145.243 14.5658C145.243 14.4508 145.226 14.3416 145.198 14.2324C145.175 14.1261 145.146 14.0342 145.117 13.9566L144.611 12.5198H141.129ZM143.565 9.28992C143.519 9.129 143.468 8.96233 143.416 8.78417C143.361 8.60026 143.307 8.41635 143.255 8.23245C143.2 8.04279 143.146 7.85314 143.094 7.66923C143.048 7.48532 143.005 7.31003 142.968 7.14049C142.927 7.28704 142.879 7.44796 142.818 7.62325C142.764 7.79279 142.703 7.96808 142.634 8.15199C142.571 8.33015 142.511 8.50831 142.45 8.69222C142.387 8.87612 142.33 9.05429 142.278 9.22095L141.427 11.6462H144.324L143.565 9.28992Z" fill="white"/>
<path d="M33.3248 27.968L32.911 29.1979C32.8708 29.3129 32.8334 29.4508 32.7961 29.6117C32.7559 29.7669 32.7386 29.8991 32.7386 30.014C32.7386 30.1146 32.753 30.1979 32.7846 30.2669C32.822 30.3359 32.8708 30.3933 32.934 30.4393C32.9944 30.4795 33.0633 30.514 33.1409 30.5428C33.2156 30.5657 33.2961 30.5772 33.3823 30.5772H33.9915V31.3359H30.2559V30.5772H30.4283C30.5576 30.5772 30.6725 30.5629 30.7731 30.5313C30.8794 30.5025 30.98 30.4479 31.072 30.3703C31.1639 30.2956 31.2472 30.1922 31.3248 30.06C31.4082 29.9221 31.4915 29.7468 31.5777 29.5313L34.6926 21.0945H36.6582L39.6582 29.5428C39.7271 29.7439 39.799 29.9106 39.8765 30.0485C39.9513 30.1807 40.0375 30.2841 40.1294 30.3588C40.2214 30.4364 40.3162 30.4939 40.4168 30.5313C40.5145 30.5629 40.6237 30.5772 40.7386 30.5772H41.003V31.3359H36.2674V30.5772H36.8191C36.8938 30.5772 36.9685 30.5657 37.0375 30.5428C37.1122 30.5198 37.1783 30.491 37.2329 30.4508C37.2932 30.4048 37.3421 30.3474 37.3823 30.2784C37.4197 30.2037 37.4398 30.1146 37.4398 30.014C37.4398 29.8991 37.4225 29.7899 37.3938 29.6807C37.3708 29.5744 37.3421 29.4824 37.3133 29.4048L36.8076 27.968H33.3248ZM35.7616 24.7382C35.7156 24.5772 35.6639 24.4106 35.6122 24.2324C35.5576 24.0485 35.503 23.8646 35.4513 23.6807C35.3967 23.491 35.3421 23.3014 35.2903 23.1175C35.2444 22.9336 35.2013 22.7583 35.1639 22.5887C35.1237 22.7353 35.0748 22.8962 35.0145 23.0715C34.9599 23.241 34.8995 23.4163 34.8306 23.6002C34.7674 23.7784 34.707 23.9566 34.6467 24.1405C34.5834 24.3244 34.526 24.5025 34.4742 24.6692L33.6237 27.0945H36.5202L35.7616 24.7382Z" fill="white"/>
<path d="M49.6819 23.7037C49.6819 24.0198 49.6388 24.2956 49.5554 24.5313C49.4692 24.7698 49.3486 24.9738 49.1876 25.1405C49.0267 25.31 48.8342 25.4566 48.6129 25.5772C48.3888 25.7008 48.1445 25.8043 47.8773 25.8876V25.9566C48.2049 26.0428 48.5095 26.1577 48.7853 26.3014C49.0612 26.4479 49.294 26.629 49.4865 26.8416C49.6848 27.0571 49.8371 27.3071 49.9463 27.5887C50.0612 27.8646 50.1187 28.1807 50.1187 28.5313C50.1187 29.4738 49.7738 30.1807 49.0842 30.6462C48.4003 31.106 47.3773 31.3359 46.0152 31.3359H41.3945V30.5772H41.9807C42.0871 30.5772 42.1876 30.5657 42.2796 30.5428C42.3715 30.5198 42.4463 30.4795 42.5095 30.4163C42.5784 30.3474 42.6302 30.2525 42.6704 30.129C42.7077 30.0083 42.7279 29.8474 42.7279 29.6462V22.7726C42.7279 22.583 42.7077 22.4278 42.6704 22.3129C42.6302 22.1922 42.5784 22.1002 42.5095 22.037C42.4405 21.968 42.36 21.9221 42.2681 21.8991C42.1761 21.8703 42.0784 21.8531 41.9807 21.8531H41.3945V21.0945H45.5784C46.9405 21.0945 47.9635 21.3071 48.6474 21.7267C49.3371 22.1491 49.6819 22.8071 49.6819 23.7037ZM44.9922 30.4623H45.9463C46.2595 30.4623 46.5267 30.4278 46.7509 30.3588C46.9807 30.2899 47.1646 30.1807 47.3026 30.0255C47.4405 29.8646 47.5382 29.6577 47.6014 29.4048C47.6704 29.152 47.7049 28.8416 47.7049 28.4738C47.7049 28.129 47.6733 27.8272 47.6129 27.5657C47.5583 27.3071 47.4635 27.0916 47.3256 26.9221C47.1934 26.7554 47.0181 26.629 46.7968 26.5428C46.5813 26.4594 46.3054 26.4163 45.9692 26.4163H44.9922V30.4623ZM44.9922 25.5428H45.5325C45.8687 25.5428 46.1474 25.5083 46.3715 25.4393C46.5928 25.3703 46.7681 25.264 46.9003 25.1175C47.0382 24.9652 47.133 24.7726 47.1876 24.5428C47.248 24.3071 47.2796 24.0255 47.2796 23.7037C47.2796 23.3761 47.2451 23.1031 47.1761 22.8876C47.1129 22.6663 47.0152 22.4853 46.8773 22.3474C46.7394 22.2094 46.5554 22.1146 46.3256 22.06C46.1014 21.9997 45.8313 21.968 45.5095 21.968H44.9922V25.5428Z" fill="white"/>
<path d="M56.4409 29.6462C56.4409 29.8474 56.4581 30.0083 56.4983 30.129C56.5357 30.2525 56.5903 30.3474 56.6592 30.4163C56.7282 30.4795 56.8029 30.5198 56.8891 30.5428C56.9811 30.5657 57.0759 30.5772 57.1765 30.5772H57.7857V31.3359H52.8317V30.5772H53.4294C53.5357 30.5772 53.6363 30.5657 53.7282 30.5428C53.8202 30.5198 53.8949 30.4795 53.9581 30.4163C54.0271 30.3474 54.0759 30.2525 54.1075 30.129C54.1449 30.0083 54.165 29.8474 54.165 29.6462V21.968H53.0156C52.8001 21.968 52.619 21.991 52.4753 22.037C52.3374 22.083 52.2225 22.152 52.1305 22.2439C52.0386 22.3301 51.9696 22.4364 51.9236 22.5657C51.8776 22.6893 51.846 22.8301 51.8317 22.991L51.7282 23.8761H50.7627L50.8432 21.0945H59.7742L59.8546 23.8761H58.8891L58.7857 22.991C58.7627 22.8301 58.7282 22.6893 58.6822 22.5657C58.642 22.4364 58.5788 22.3301 58.4868 22.2439C58.3949 22.152 58.2742 22.083 58.1305 22.037C57.984 21.991 57.8029 21.968 57.5903 21.968H56.4409V29.6462Z" fill="white"/>
<path d="M70.478 26.198C70.478 26.9882 70.3688 27.7095 70.1562 28.3589C69.9493 29.0112 69.6389 29.5658 69.2251 30.0255C68.8113 30.4853 68.3056 30.8416 67.7079 31.0945C67.1102 31.3474 66.4205 31.4738 65.6389 31.4738C64.8171 31.4738 64.1016 31.3474 63.4895 31.0945C62.8832 30.8416 62.3774 30.4853 61.9723 30.0255C61.5728 29.5658 61.274 29.0112 61.0757 28.3589C60.8746 27.7095 60.7769 26.9853 60.7769 26.1865C60.7769 25.3991 60.8746 24.6807 61.0757 24.037C61.274 23.3876 61.5757 22.8301 61.9838 22.3704C62.3889 21.9106 62.8947 21.56 63.501 21.3129C64.1131 21.06 64.8286 20.9336 65.6504 20.9336C66.4234 20.9336 67.1102 21.06 67.7079 21.3129C68.3113 21.56 68.8171 21.9106 69.2251 22.3704C69.6389 22.8301 69.9493 23.3876 70.1562 24.037C70.3688 24.6807 70.478 25.402 70.478 26.198ZM63.1792 26.198C63.1792 26.8876 63.2251 27.5026 63.3171 28.037C63.409 28.5744 63.5498 29.0313 63.7424 29.4049C63.9406 29.7727 64.1935 30.0572 64.501 30.2554C64.8142 30.448 65.1935 30.5428 65.6389 30.5428C66.0815 30.5428 66.4579 30.448 66.7654 30.2554C67.0786 30.0572 67.3315 29.7727 67.524 29.4049C67.7136 29.0313 67.8516 28.5744 67.9378 28.037C68.0297 27.5026 68.0757 26.8876 68.0757 26.198C68.0757 25.5169 68.0297 24.9077 67.9378 24.3704C67.8516 23.8359 67.7136 23.3819 67.524 23.0141C67.3315 22.6405 67.0815 22.356 66.7769 22.1635C66.4694 21.9652 66.0929 21.8646 65.6504 21.8646C65.1964 21.8646 64.8142 21.9652 64.501 22.1635C64.1935 22.356 63.9406 22.6405 63.7424 23.0141C63.5498 23.3819 63.409 23.8359 63.3171 24.3704C63.2251 24.9077 63.1792 25.5169 63.1792 26.198Z" fill="white"/>
<path d="M79.9348 31.3359V30.5772H80.0727C80.2164 30.5772 80.3486 30.5715 80.4635 30.5543C80.5785 30.5313 80.6733 30.4939 80.7509 30.4393C80.8256 30.379 80.8831 30.2985 80.9233 30.1979C80.9606 30.0916 80.9808 29.9508 80.9808 29.7726V22.5083L78.0842 31.3359H77.1072L74.0727 22.5083V29.6462C74.0727 29.8474 74.0957 30.0083 74.1417 30.129C74.1934 30.2525 74.2681 30.3474 74.3601 30.4163C74.452 30.4795 74.5612 30.5198 74.6934 30.5428C74.8227 30.5657 74.9721 30.5772 75.1417 30.5772H75.2221V31.3359H71.6704V30.5772H72.2681C72.3744 30.5772 72.4693 30.5715 72.5555 30.5543C72.6474 30.5313 72.7221 30.491 72.7854 30.4278C72.8543 30.3675 72.906 30.2841 72.9463 30.1749C72.9836 30.06 73.0037 29.9077 73.0037 29.7152V22.7267C73.0037 22.537 72.9836 22.3818 72.9463 22.2669C72.906 22.152 72.8543 22.0657 72.7854 22.0025C72.7221 21.9422 72.6474 21.9048 72.5555 21.8876C72.4693 21.8646 72.3744 21.8531 72.2681 21.8531H71.6704V21.0945H75.7968L78.1762 28.0255L80.4635 21.0945H84.521V21.8531H83.9233C83.8141 21.8531 83.7164 21.8646 83.6244 21.8876C83.5382 21.9048 83.4635 21.9451 83.3945 22.014C83.3313 22.0772 83.2825 22.1692 83.2451 22.2899C83.2049 22.4134 83.1877 22.5772 83.1877 22.7841V29.6462C83.1877 29.8474 83.2049 30.0083 83.2451 30.129C83.2825 30.2525 83.3313 30.3474 83.3945 30.4163C83.4635 30.4795 83.5382 30.5198 83.6244 30.5428C83.7164 30.5657 83.8141 30.5772 83.9233 30.5772H84.521V31.3359H79.9348Z" fill="white"/>
<path d="M95.4126 26.198C95.4126 26.9882 95.3034 27.7095 95.0907 28.3589C94.8838 29.0112 94.5735 29.5658 94.1597 30.0255C93.7459 30.4853 93.2402 30.8416 92.6425 31.0945C92.0448 31.3474 91.3551 31.4738 90.5735 31.4738C89.7517 31.4738 89.0361 31.3474 88.4241 31.0945C87.8177 30.8416 87.312 30.4853 86.9068 30.0255C86.5074 29.5658 86.2086 29.0112 86.0103 28.3589C85.8091 27.7095 85.7114 26.9853 85.7114 26.1865C85.7114 25.3991 85.8091 24.6807 86.0103 24.037C86.2086 23.3876 86.5103 22.8301 86.9183 22.3704C87.3235 21.9106 87.8292 21.56 88.4356 21.3129C89.0476 21.06 89.7631 20.9336 90.585 20.9336C91.358 20.9336 92.0448 21.06 92.6425 21.3129C93.2459 21.56 93.7517 21.9106 94.1597 22.3704C94.5735 22.8301 94.8838 23.3876 95.0907 24.037C95.3034 24.6807 95.4126 25.402 95.4126 26.198ZM88.1137 26.198C88.1137 26.8876 88.1597 27.5026 88.2517 28.037C88.3436 28.5744 88.4844 29.0313 88.6769 29.4049C88.8752 29.7727 89.1281 30.0572 89.4356 30.2554C89.7488 30.448 90.1281 30.5428 90.5735 30.5428C91.016 30.5428 91.3925 30.448 91.6999 30.2554C92.0131 30.0572 92.266 29.7727 92.4586 29.4049C92.6482 29.0313 92.7861 28.5744 92.8723 28.037C92.9643 27.5026 93.0103 26.8876 93.0103 26.198C93.0103 25.5169 92.9643 24.9077 92.8723 24.3704C92.7861 23.8359 92.6482 23.3819 92.4586 23.0141C92.266 22.6405 92.016 22.356 91.7114 22.1635C91.404 21.9652 91.0275 21.8646 90.585 21.8646C90.131 21.8646 89.7488 21.9652 89.4356 22.1635C89.1281 22.356 88.8752 22.6405 88.6769 23.0141C88.4844 23.3819 88.3436 23.8359 88.2517 24.3704C88.1597 24.9077 88.1137 25.5169 88.1137 26.198Z" fill="white"/>
<path d="M104.501 21.0945L104.57 23.8761H103.605L103.501 22.991C103.484 22.8301 103.455 22.6893 103.409 22.5657C103.363 22.4364 103.294 22.3301 103.202 22.2439C103.11 22.152 102.99 22.083 102.846 22.037C102.699 21.991 102.518 21.968 102.306 21.968H100.386V25.5657H101.294C101.984 25.5657 102.57 25.6405 103.053 25.7841C103.536 25.9221 103.929 26.1175 104.237 26.3703C104.541 26.6232 104.766 26.9278 104.904 27.2784C105.041 27.6318 105.11 28.0198 105.11 28.4393C105.11 28.8703 105.03 29.264 104.869 29.6232C104.714 29.9767 104.478 30.2784 104.156 30.5313C103.84 30.7841 103.438 30.9853 102.949 31.129C102.458 31.2669 101.883 31.3359 101.225 31.3359H96.7886V30.5772H97.3978C97.5357 30.5772 97.6506 30.56 97.7426 30.5198C97.8403 30.4824 97.9179 30.4278 97.9725 30.3588C98.0242 30.2841 98.0644 30.1836 98.0874 30.06C98.1104 29.9393 98.1219 29.7928 98.1219 29.6232V22.7841C98.1219 22.5859 98.1018 22.4278 98.0644 22.3129C98.0328 22.1922 97.984 22.0945 97.915 22.0255C97.8518 21.9566 97.7771 21.9106 97.6851 21.8876C97.5989 21.8646 97.5041 21.8531 97.3978 21.8531H96.7886V21.0945H104.501ZM100.386 30.4853H101.087C101.378 30.4853 101.622 30.4479 101.823 30.3703C102.03 30.287 102.194 30.1634 102.317 30.0025C102.447 29.8359 102.539 29.629 102.593 29.3818C102.654 29.1376 102.685 28.8474 102.685 28.5083C102.685 28.1261 102.651 27.8014 102.582 27.5313C102.518 27.264 102.421 27.0456 102.283 26.8761C102.145 26.7094 101.964 26.5859 101.743 26.5083C101.518 26.4336 101.251 26.3933 100.938 26.3933H100.386V30.4853Z" fill="white"/>
<path d="M113.28 24.2669L109.533 29.0715V29.6462C109.533 29.8474 109.55 30.0083 109.591 30.129C109.628 30.2525 109.677 30.3474 109.74 30.4163C109.809 30.4795 109.89 30.5198 109.982 30.5428C110.073 30.5657 110.168 30.5772 110.269 30.5772H110.89V31.3359H105.936V30.5772H106.533C106.64 30.5772 106.734 30.5657 106.821 30.5428C106.913 30.5198 106.987 30.4795 107.05 30.4163C107.119 30.3474 107.171 30.2525 107.211 30.129C107.249 30.0083 107.269 29.8474 107.269 29.6462V22.7267C107.269 22.537 107.249 22.3818 107.211 22.2669C107.171 22.152 107.119 22.0657 107.05 22.0025C106.982 21.9422 106.901 21.9048 106.809 21.8876C106.723 21.8646 106.631 21.8531 106.533 21.8531H105.936V21.0945H110.89V21.8531H110.269C110.168 21.8531 110.073 21.8646 109.982 21.8876C109.89 21.9048 109.809 21.9451 109.74 22.014C109.677 22.0772 109.628 22.1692 109.591 22.2899C109.55 22.4134 109.533 22.5772 109.533 22.7841V27.8301L113.28 23.0255V22.7841C113.28 22.5772 113.26 22.4134 113.223 22.2899C113.183 22.1692 113.131 22.0772 113.062 22.014C112.999 21.9451 112.924 21.9048 112.832 21.8876C112.74 21.8646 112.642 21.8531 112.545 21.8531H111.924V21.0945H116.878V21.8531H116.28C116.18 21.8531 116.085 21.8646 115.993 21.8876C115.907 21.9048 115.832 21.9451 115.763 22.014C115.694 22.0772 115.64 22.1692 115.602 22.2899C115.562 22.4134 115.545 22.5772 115.545 22.7841V29.7152C115.545 29.9077 115.562 30.06 115.602 30.1749C115.648 30.2841 115.7 30.3675 115.763 30.4278C115.832 30.491 115.907 30.5313 115.993 30.5543C116.085 30.5715 116.18 30.5772 116.28 30.5772H116.878V31.3359H111.924V30.5772H112.545C112.642 30.5772 112.74 30.5657 112.832 30.5428C112.924 30.5198 112.999 30.4795 113.062 30.4163C113.131 30.3474 113.183 30.2525 113.223 30.129C113.26 30.0083 113.28 29.8474 113.28 29.6462V24.2669Z" fill="white"/>
<path d="M122.353 31.3359V30.5772H122.962C123.06 30.5772 123.158 30.5657 123.249 30.5428C123.341 30.5198 123.416 30.4795 123.479 30.4163C123.548 30.3474 123.6 30.2525 123.64 30.129C123.678 30.0083 123.698 29.8474 123.698 29.6462V21.8531H121.836C121.804 22.4508 121.758 23.0801 121.698 23.7382C121.643 24.3991 121.574 25.0543 121.491 25.7037C121.405 26.3474 121.307 26.968 121.192 27.5657C121.083 28.1634 120.956 28.7008 120.813 29.1749C120.681 29.6117 120.531 29.9767 120.364 30.2669C120.203 30.56 120.022 30.7928 119.824 30.968C119.623 31.1376 119.405 31.2611 119.169 31.3359C118.939 31.4048 118.689 31.4393 118.422 31.4393C118.077 31.4393 117.795 31.3474 117.583 31.1634C117.376 30.9738 117.272 30.7037 117.272 30.3588C117.272 30.2152 117.29 30.083 117.33 29.968C117.367 29.8474 117.416 29.7439 117.479 29.6577C117.548 29.5744 117.623 29.514 117.709 29.4738C117.793 29.4278 117.882 29.4048 117.974 29.4048C117.974 29.5887 118.031 29.7468 118.146 29.8761C118.261 30.0083 118.413 30.0715 118.606 30.0715C118.767 30.0715 118.91 30.0456 119.043 29.991C119.172 29.9307 119.295 29.8301 119.41 29.6922C119.531 29.5543 119.643 29.3675 119.744 29.129C119.841 28.8847 119.942 28.5772 120.043 28.2094C120.126 27.9048 120.203 27.5629 120.272 27.1864C120.341 26.8043 120.402 26.4163 120.456 26.0255C120.517 25.6347 120.571 25.2497 120.617 24.8646C120.663 24.4738 120.701 24.1175 120.732 23.7956C120.761 23.4738 120.781 23.1951 120.79 22.9566C120.804 22.7123 120.813 22.537 120.813 22.4278C120.813 22.2985 120.781 22.1951 120.721 22.1175C120.666 22.0428 120.586 21.9853 120.479 21.9451C120.37 21.8991 120.249 21.8732 120.112 21.8646C119.974 21.8589 119.824 21.8531 119.663 21.8531H119.456V21.0945H127.307V21.8531H126.698C126.597 21.8531 126.502 21.8646 126.41 21.8876C126.324 21.9048 126.249 21.9451 126.181 22.014C126.112 22.0772 126.057 22.1721 126.02 22.3014C125.979 22.4249 125.962 22.5859 125.962 22.7841V29.7152C125.962 29.9077 125.979 30.06 126.02 30.1749C126.066 30.2841 126.117 30.3675 126.181 30.4278C126.249 30.491 126.324 30.5313 126.41 30.5543C126.502 30.5715 126.597 30.5772 126.698 30.5772H127.307V31.3359H122.353Z" fill="white"/>
<path d="M131.707 30.4623H134.581C134.725 30.4623 134.848 30.4364 134.949 30.3818C135.055 30.3301 135.144 30.2525 135.213 30.152C135.288 30.0543 135.351 29.9393 135.397 29.8071C135.443 29.6692 135.477 29.5255 135.5 29.3703L135.615 28.6922H136.604L136.5 31.3359H128.098V30.5772H128.696C128.802 30.5772 128.897 30.5715 128.983 30.5543C129.075 30.5313 129.15 30.491 129.213 30.4278C129.282 30.3675 129.334 30.2841 129.374 30.1749C129.411 30.06 129.431 29.9077 129.431 29.7152V22.7841C129.431 22.5772 129.411 22.4134 129.374 22.2899C129.334 22.1692 129.282 22.0772 129.213 22.014C129.15 21.9451 129.075 21.9048 128.983 21.8876C128.897 21.8646 128.802 21.8531 128.696 21.8531H128.098V21.0945H136.064L136.11 23.7382H135.11L135.041 23.06C135 22.7094 134.914 22.4393 134.776 22.2554C134.638 22.0657 134.42 21.968 134.121 21.968H131.707V25.5543H135.11V26.4163H131.707V30.4623Z" fill="white"/>
<path d="M144.802 24.2669L141.055 29.0715V29.6462C141.055 29.8473 141.072 30.0083 141.112 30.1289C141.15 30.2525 141.198 30.3473 141.262 30.4163C141.331 30.4795 141.411 30.5197 141.503 30.5427C141.595 30.5657 141.69 30.5772 141.79 30.5772H142.411V31.3358H137.457V30.5772H138.055C138.161 30.5772 138.256 30.5657 138.342 30.5427C138.434 30.5197 138.509 30.4795 138.572 30.4163C138.641 30.3473 138.693 30.2525 138.733 30.1289C138.77 30.0083 138.79 29.8473 138.79 29.6462V22.7266C138.79 22.537 138.77 22.3818 138.733 22.2669C138.693 22.1519 138.641 22.0657 138.572 22.0025C138.503 21.9422 138.423 21.9048 138.331 21.8876C138.244 21.8646 138.152 21.8531 138.055 21.8531H137.457V21.0945H142.411V21.8531H141.79C141.69 21.8531 141.595 21.8646 141.503 21.8876C141.411 21.9048 141.331 21.945 141.262 22.014C141.198 22.0772 141.15 22.1692 141.112 22.2899C141.072 22.4134 141.055 22.5772 141.055 22.7841V27.8301L144.802 23.0255V22.7841C144.802 22.5772 144.782 22.4134 144.744 22.2899C144.704 22.1692 144.652 22.0772 144.583 22.014C144.52 21.945 144.446 21.9048 144.354 21.8876C144.262 21.8646 144.164 21.8531 144.066 21.8531H143.446V21.0945H148.4V21.8531H147.802C147.701 21.8531 147.606 21.8646 147.515 21.8876C147.428 21.9048 147.354 21.945 147.285 22.014C147.216 22.0772 147.161 22.1692 147.124 22.2899C147.083 22.4134 147.066 22.5772 147.066 22.7841V29.7151C147.066 29.9077 147.083 30.06 147.124 30.1749C147.17 30.2841 147.221 30.3674 147.285 30.4278C147.354 30.491 147.428 30.5312 147.515 30.5542C147.606 30.5715 147.701 30.5772 147.802 30.5772H148.4V31.3358H143.446V30.5772H144.066C144.164 30.5772 144.262 30.5657 144.354 30.5427C144.446 30.5197 144.52 30.4795 144.583 30.4163C144.652 30.3473 144.704 30.2525 144.744 30.1289C144.782 30.0083 144.802 29.8473 144.802 29.6462V24.2669ZM142.894 19.4853C143.308 19.4853 143.621 19.3703 143.836 19.1404C144.058 18.9048 144.196 18.537 144.25 18.037H146.043C146.012 18.3301 145.951 18.6088 145.859 18.8761C145.773 19.1462 145.618 19.3818 145.388 19.5887C145.164 19.7956 144.854 19.9651 144.457 20.0945C144.058 20.218 143.537 20.2784 142.894 20.2784C142.25 20.2784 141.727 20.218 141.331 20.0945C140.931 19.9651 140.618 19.7956 140.388 19.5887C140.158 19.3818 139.997 19.1462 139.905 18.8761C139.819 18.6088 139.762 18.3301 139.733 18.037H141.526C141.578 18.537 141.716 18.9048 141.94 19.1404C142.161 19.3703 142.48 19.4853 142.894 19.4853Z" fill="white"/>
<path d="M5.29885 45.7841C5.64942 45.7841 5.95977 45.7468 6.22988 45.6692C6.50575 45.5858 6.75 45.4795 6.96552 45.3473C7.17816 45.2094 7.36782 45.06 7.52873 44.8991C7.68965 44.7381 7.83046 44.5772 7.95402 44.4163C8.02873 44.4709 8.08621 44.56 8.12644 44.6807C8.17241 44.7956 8.1954 44.9163 8.1954 45.037C8.1954 45.2381 8.1408 45.4479 8.03448 45.6692C7.92529 45.8933 7.74713 46.0945 7.49425 46.2784C7.24713 46.4623 6.91379 46.6174 6.49425 46.7381C6.08046 46.8588 5.56609 46.922 4.95402 46.922C4.12644 46.922 3.4023 46.7956 2.78161 46.5427C2.16092 46.2899 1.64368 45.9335 1.22988 45.4738C0.816092 45.014 0.505747 44.4594 0.298851 43.8071C0.0977015 43.1577 0 42.4364 0 41.6462C0 40.8732 0.103448 40.1634 0.310345 39.5197C0.522988 38.8761 0.83908 38.3243 1.25287 37.8646C1.66667 37.3991 2.17816 37.037 2.7931 36.7841C3.41379 36.5255 4.12931 36.3933 4.94253 36.3933C5.49425 36.3933 5.97126 36.4393 6.37931 36.5312C6.7931 36.6174 7.13218 36.7353 7.4023 36.8876C7.66954 37.0341 7.87356 37.2094 8.01149 37.4163C8.14942 37.6174 8.21839 37.8301 8.21839 38.06C8.21839 38.2381 8.17816 38.4019 8.10345 38.5542C8.02586 38.7094 7.91092 38.8416 7.75862 38.9565C7.60345 39.0657 7.41379 39.1519 7.18391 39.2209C6.95977 39.2841 6.70689 39.3129 6.42529 39.3129C6.42529 39.0772 6.39655 38.8387 6.34483 38.6002C6.29023 38.3646 6.20115 38.1491 6.08046 37.9565C5.9569 37.7669 5.79598 37.6117 5.5977 37.4968C5.39655 37.3761 5.14942 37.3129 4.85057 37.3129C4.3908 37.3129 4.00287 37.4106 3.68965 37.6002C3.38218 37.7927 3.13218 38.0715 2.94253 38.4393C2.75 38.8071 2.61207 39.264 2.52874 39.8071C2.44253 40.3445 2.4023 40.9565 2.4023 41.6462C2.4023 42.3445 2.45115 42.9537 2.55172 43.4738C2.65805 43.9881 2.82759 44.4163 3.05747 44.7611C3.28736 45.1002 3.58621 45.356 3.95402 45.5312C4.32184 45.7008 4.77011 45.7841 5.29885 45.7841Z" fill="white"/>
<path d="M18.7598 46.7841V46.0255H19.3804C19.4781 46.0255 19.5701 46.014 19.6563 45.991C19.7483 45.968 19.823 45.9278 19.8862 45.8646C19.9552 45.7956 20.0069 45.7008 20.0471 45.5772C20.0845 45.4565 20.1046 45.2956 20.1046 45.0944V37.4163H16.5069V45.0944C16.5069 45.2956 16.5241 45.4565 16.5644 45.5772C16.6017 45.7008 16.6506 45.7956 16.7138 45.8646C16.7827 45.9278 16.8632 45.968 16.9552 45.991C17.0471 46.014 17.1419 46.0255 17.2425 46.0255H17.8632V46.7841H12.9092V46.0255H13.5069C13.6132 46.0255 13.708 46.014 13.7942 45.991C13.8862 45.968 13.9609 45.9278 14.0241 45.8646C14.0931 45.7956 14.1448 45.7008 14.185 45.5772C14.2224 45.4565 14.2425 45.2956 14.2425 45.0944V38.1749C14.2425 37.9853 14.2224 37.8301 14.185 37.7151C14.1448 37.6002 14.0931 37.514 14.0241 37.4508C13.9552 37.3904 13.8747 37.3531 13.7827 37.3358C13.6965 37.3128 13.6046 37.3013 13.5069 37.3013H12.9092V36.5427H23.7023V37.3013H23.1046C23.004 37.3013 22.9092 37.3128 22.8172 37.3358C22.731 37.3531 22.6563 37.3933 22.5873 37.4623C22.5184 37.5255 22.4638 37.6174 22.4264 37.7381C22.3948 37.8617 22.3804 38.0255 22.3804 38.2324V45.1634C22.3804 45.3559 22.3977 45.5082 22.4379 45.6232C22.4753 45.7324 22.5299 45.8157 22.5988 45.8761C22.6678 45.9393 22.7425 45.9795 22.8287 46.0025C22.9121 46.0197 23.004 46.0255 23.1046 46.0255H23.7023V46.7841H18.7598Z" fill="white"/>
<path d="M32.8306 39.5887C32.8306 40.0197 32.753 40.4335 32.6007 40.8301C32.4542 41.2209 32.2128 41.5715 31.8766 41.8761C31.5375 42.1749 31.1007 42.4163 30.5663 42.6002C30.0289 42.7784 29.3737 42.8646 28.6007 42.8646H28.1065V45.1634C28.1065 45.3559 28.1237 45.5082 28.164 45.6232C28.2099 45.7324 28.2674 45.8157 28.3364 45.8761C28.4053 45.9393 28.4858 45.9795 28.5778 46.0025C28.6755 46.0197 28.7732 46.0255 28.8651 46.0255H29.7502V46.7841H24.5088V46.0255H25.1065C25.2128 46.0255 25.3076 46.014 25.3938 45.991C25.4858 45.968 25.5605 45.9278 25.6237 45.8646C25.6927 45.7956 25.7444 45.7008 25.7847 45.5772C25.822 45.4565 25.8421 45.2956 25.8421 45.0944V38.1749C25.8421 37.9853 25.822 37.8301 25.7847 37.7151C25.7444 37.6002 25.6927 37.514 25.6237 37.4508C25.5605 37.3904 25.4858 37.3531 25.3938 37.3358C25.3076 37.3128 25.2128 37.3013 25.1065 37.3013H24.5088V36.5427H28.9111C29.5778 36.5427 30.1553 36.6174 30.6467 36.7611C31.1352 36.899 31.5433 37.1031 31.8651 37.3703C32.1869 37.6318 32.4283 37.9508 32.5892 38.3243C32.7502 38.6921 32.8306 39.1146 32.8306 39.5887ZM28.1065 42.037H28.4513C28.8105 42.037 29.1122 41.9967 29.3594 41.9105C29.6036 41.8186 29.8019 41.6778 29.9571 41.4853C30.118 41.2956 30.2329 41.0456 30.3019 40.7381C30.3766 40.4335 30.4168 40.0657 30.4168 39.6347C30.4168 39.2525 30.3852 38.922 30.3249 38.6462C30.2617 38.3646 30.164 38.1289 30.026 37.945C29.8881 37.7611 29.7071 37.6232 29.4858 37.5312C29.2617 37.4393 28.9915 37.3933 28.6697 37.3933H28.1065V42.037Z" fill="white"/>
<path d="M36.382 43.4163L35.9682 44.6462C35.9279 44.7611 35.8906 44.899 35.8532 45.06C35.813 45.2151 35.7957 45.3473 35.7957 45.4623C35.7957 45.5628 35.8101 45.6462 35.8417 45.7151C35.8791 45.7841 35.9279 45.8416 35.9911 45.8876C36.0515 45.9278 36.1205 45.9623 36.198 45.991C36.2728 46.014 36.3532 46.0255 36.4394 46.0255H37.0486V46.7841H33.313V46.0255H33.4854C33.6147 46.0255 33.7297 46.0111 33.8302 45.9795C33.9366 45.9508 34.0371 45.8962 34.1291 45.8186C34.221 45.7439 34.3044 45.6404 34.382 45.5082C34.4653 45.3703 34.5486 45.195 34.6348 44.9795L37.7498 36.5427H39.7153L42.7153 44.991C42.7843 45.1921 42.8561 45.3588 42.9337 45.4967C43.0084 45.6289 43.0946 45.7324 43.1866 45.8071C43.2785 45.8847 43.3733 45.9421 43.4739 45.9795C43.5716 46.0111 43.6808 46.0255 43.7957 46.0255H44.0601V46.7841H39.3245V46.0255H39.8762C39.9509 46.0255 40.0256 46.014 40.0946 45.991C40.1693 45.968 40.2354 45.9393 40.29 45.899C40.3503 45.8531 40.3992 45.7956 40.4394 45.7266C40.4768 45.6519 40.4969 45.5628 40.4969 45.4623C40.4969 45.3473 40.4797 45.2381 40.4509 45.1289C40.4279 45.0226 40.3992 44.9307 40.3705 44.8531L39.8647 43.4163H36.382ZM38.8187 40.1864C38.7728 40.0255 38.721 39.8588 38.6693 39.6807C38.6147 39.4967 38.5601 39.3128 38.5084 39.1289C38.4538 38.9393 38.3992 38.7496 38.3475 38.5657C38.3015 38.3818 38.2584 38.2065 38.221 38.037C38.1808 38.1835 38.132 38.3444 38.0716 38.5197C38.017 38.6893 37.9567 38.8646 37.8877 39.0485C37.8245 39.2266 37.7641 39.4048 37.7038 39.5887C37.6406 39.7726 37.5831 39.9508 37.5314 40.1174L36.6808 42.5427H39.5774L38.8187 40.1864Z" fill="white"/>
<path d="M52.739 39.1519C52.739 39.468 52.6959 39.7439 52.6126 39.9795C52.5264 40.218 52.4057 40.422 52.2448 40.5887C52.0838 40.7582 51.8913 40.9048 51.67 41.0255C51.4459 41.149 51.2017 41.2525 50.9344 41.3358V41.4048C51.262 41.491 51.5666 41.6059 51.8425 41.7496C52.1183 41.8962 52.3511 42.0772 52.5436 42.2899C52.7419 42.5054 52.8942 42.7554 53.0034 43.037C53.1183 43.3128 53.1758 43.6289 53.1758 43.9795C53.1758 44.922 52.831 45.6289 52.1413 46.0944C51.4574 46.5542 50.4344 46.7841 49.0723 46.7841H44.4517V46.0255H45.0379C45.1442 46.0255 45.2448 46.014 45.3367 45.991C45.4287 45.968 45.5034 45.9278 45.5666 45.8646C45.6356 45.7956 45.6873 45.7008 45.7275 45.5772C45.7649 45.4565 45.785 45.2956 45.785 45.0944V38.2209C45.785 38.0312 45.7649 37.8761 45.7275 37.7611C45.6873 37.6404 45.6356 37.5485 45.5666 37.4853C45.4976 37.4163 45.4172 37.3703 45.3252 37.3473C45.2333 37.3186 45.1356 37.3013 45.0379 37.3013H44.4517V36.5427H48.6356C49.9976 36.5427 51.0206 36.7554 51.7045 37.1749C52.3942 37.5973 52.739 38.2554 52.739 39.1519ZM48.0494 45.9105H49.0034C49.3166 45.9105 49.5838 45.8761 49.808 45.8071C50.0379 45.7381 50.2218 45.6289 50.3597 45.4738C50.4976 45.3128 50.5953 45.1059 50.6586 44.8531C50.7275 44.6002 50.762 44.2898 50.762 43.922C50.762 43.5772 50.7304 43.2755 50.6701 43.014C50.6155 42.7554 50.5206 42.5399 50.3827 42.3703C50.2505 42.2036 50.0752 42.0772 49.854 41.991C49.6384 41.9077 49.3626 41.8646 49.0264 41.8646H48.0494V45.9105ZM48.0494 40.991H48.5896C48.9258 40.991 49.2045 40.9565 49.4287 40.8876C49.6499 40.8186 49.8252 40.7123 49.9574 40.5657C50.0953 40.4134 50.1902 40.2209 50.2448 39.991C50.3051 39.7554 50.3367 39.4738 50.3367 39.1519C50.3367 38.8243 50.3022 38.5513 50.2333 38.3358C50.17 38.1146 50.0723 37.9335 49.9344 37.7956C49.7965 37.6577 49.6126 37.5628 49.3827 37.5082C49.1586 37.4479 48.8884 37.4163 48.5666 37.4163H48.0494V40.991Z" fill="white"/>
<path d="M64.1758 41.6462C64.1758 42.4364 64.0666 43.1577 63.8539 43.8071C63.647 44.4594 63.3367 45.014 62.9229 45.4738C62.5091 45.9336 62.0033 46.2899 61.4056 46.5428C60.8079 46.7956 60.1183 46.9221 59.3367 46.9221C58.5148 46.9221 57.7993 46.7956 57.1873 46.5428C56.5809 46.2899 56.0752 45.9336 55.67 45.4738C55.2706 45.014 54.9717 44.4594 54.7735 43.8071C54.5723 43.1577 54.4746 42.4336 54.4746 41.6347C54.4746 40.8474 54.5723 40.129 54.7735 39.4853C54.9717 38.8359 55.2735 38.2784 55.6815 37.8186C56.0867 37.3588 56.5924 37.0083 57.1987 36.7611C57.8108 36.5083 58.5263 36.3818 59.3482 36.3818C60.1212 36.3818 60.8079 36.5083 61.4056 36.7611C62.0091 37.0083 62.5148 37.3588 62.9229 37.8186C63.3367 38.2784 63.647 38.8359 63.8539 39.4853C64.0666 40.129 64.1758 40.8502 64.1758 41.6462ZM56.8769 41.6462C56.8769 42.3359 56.9229 42.9508 57.0148 43.4853C57.1068 44.0226 57.2476 44.4795 57.4401 44.8531C57.6384 45.2209 57.8913 45.5054 58.1987 45.7037C58.512 45.8962 58.8913 45.991 59.3367 45.991C59.7792 45.991 60.1556 45.8962 60.4631 45.7037C60.7763 45.5054 61.0292 45.2209 61.2217 44.8531C61.4114 44.4795 61.5493 44.0226 61.6355 43.4853C61.7275 42.9508 61.7735 42.3359 61.7735 41.6462C61.7735 40.9652 61.7275 40.356 61.6355 39.8186C61.5493 39.2841 61.4114 38.8301 61.2217 38.4623C61.0292 38.0887 60.7792 37.8042 60.4746 37.6117C60.1671 37.4134 59.7907 37.3129 59.3482 37.3129C58.8941 37.3129 58.512 37.4134 58.1987 37.6117C57.8913 37.8042 57.6384 38.0887 57.4401 38.4623C57.2476 38.8301 57.1068 39.2841 57.0148 39.8186C56.9229 40.356 56.8769 40.9652 56.8769 41.6462Z" fill="white"/>
<path d="M73.6325 46.7841V46.0255H73.7705C73.9141 46.0255 74.0463 46.0197 74.1613 46.0025C74.2762 45.9795 74.371 45.9421 74.4486 45.8876C74.5233 45.8272 74.5808 45.7467 74.621 45.6462C74.6584 45.5398 74.6785 45.399 74.6785 45.2209V37.9565L71.782 46.7841H70.8049L67.7705 37.9565V45.0944C67.7705 45.2956 67.7935 45.4565 67.8394 45.5772C67.8912 45.7008 67.9659 45.7956 68.0578 45.8646C68.1498 45.9278 68.259 45.968 68.3912 45.991C68.5205 46.014 68.6699 46.0255 68.8394 46.0255H68.9199V46.7841H65.3682V46.0255H65.9659C66.0722 46.0255 66.167 46.0197 66.2532 46.0025C66.3452 45.9795 66.4199 45.9393 66.4831 45.8761C66.5521 45.8157 66.6038 45.7324 66.644 45.6232C66.6814 45.5082 66.7015 45.3559 66.7015 45.1634V38.1749C66.7015 37.9853 66.6814 37.8301 66.644 37.7151C66.6038 37.6002 66.5521 37.514 66.4831 37.4508C66.4199 37.3904 66.3452 37.3531 66.2532 37.3358C66.167 37.3128 66.0722 37.3013 65.9659 37.3013H65.3682V36.5427H69.4946L71.8739 43.4738L74.1613 36.5427H78.2187V37.3013H77.621C77.5118 37.3013 77.4141 37.3128 77.3222 37.3358C77.236 37.3531 77.1613 37.3933 77.0923 37.4623C77.0291 37.5255 76.9802 37.6174 76.9429 37.7381C76.9026 37.8617 76.8854 38.0255 76.8854 38.2324V45.0944C76.8854 45.2956 76.9026 45.4565 76.9429 45.5772C76.9802 45.7008 77.0291 45.7956 77.0923 45.8646C77.1613 45.9278 77.236 45.968 77.3222 45.991C77.4141 46.014 77.5118 46.0255 77.621 46.0255H78.2187V46.7841H73.6325Z" fill="white"/>
<path d="M91.0295 39.1519C91.0295 39.468 90.9864 39.7439 90.9031 39.9795C90.8169 40.218 90.6962 40.422 90.5353 40.5887C90.3744 40.7582 90.1818 40.9048 89.9606 41.0255C89.7364 41.149 89.4922 41.2525 89.2249 41.3358V41.4048C89.5525 41.491 89.8571 41.6059 90.133 41.7496C90.4089 41.8962 90.6416 42.0772 90.8341 42.2899C91.0324 42.5054 91.1847 42.7554 91.2939 43.037C91.4089 43.3128 91.4663 43.6289 91.4663 43.9795C91.4663 44.922 91.1215 45.6289 90.4318 46.0944C89.7479 46.5542 88.7249 46.7841 87.3629 46.7841H82.7422V46.0255H83.3284C83.4347 46.0255 83.5353 46.014 83.6272 45.991C83.7192 45.968 83.7939 45.9278 83.8571 45.8646C83.9261 45.7956 83.9778 45.7008 84.018 45.5772C84.0554 45.4565 84.0755 45.2956 84.0755 45.0944V38.2209C84.0755 38.0312 84.0554 37.8761 84.018 37.7611C83.9778 37.6404 83.9261 37.5485 83.8571 37.4853C83.7882 37.4163 83.7077 37.3703 83.6158 37.3473C83.5238 37.3186 83.4261 37.3013 83.3284 37.3013H82.7422V36.5427H86.9261C88.2882 36.5427 89.3112 36.7554 89.9951 37.1749C90.6847 37.5973 91.0295 38.2554 91.0295 39.1519ZM86.3399 45.9105H87.2939C87.6071 45.9105 87.8744 45.8761 88.0985 45.8071C88.3284 45.7381 88.5123 45.6289 88.6502 45.4738C88.7882 45.3128 88.8859 45.1059 88.9491 44.8531C89.018 44.6002 89.0525 44.2898 89.0525 43.922C89.0525 43.5772 89.0209 43.2755 88.9606 43.014C88.906 42.7554 88.8112 42.5399 88.6732 42.3703C88.541 42.2036 88.3657 42.0772 88.1445 41.991C87.929 41.9077 87.6531 41.8646 87.3169 41.8646H86.3399V45.9105ZM86.3399 40.991H86.8801C87.2163 40.991 87.4951 40.9565 87.7192 40.8876C87.9405 40.8186 88.1157 40.7123 88.2479 40.5657C88.3859 40.4134 88.4807 40.2209 88.5353 39.991C88.5956 39.7554 88.6272 39.4738 88.6272 39.1519C88.6272 38.8243 88.5928 38.5513 88.5238 38.3358C88.4606 38.1146 88.3629 37.9335 88.2249 37.7956C88.087 37.6577 87.9031 37.5628 87.6732 37.5082C87.4491 37.4479 87.179 37.4163 86.8571 37.4163H86.3399V40.991Z" fill="white"/>
<path d="M97.6159 36.5427V37.3013H96.7308C96.4693 37.3013 96.2768 37.3674 96.1561 37.4967C96.0326 37.6203 95.9722 37.8416 95.9722 38.1634V41.014H96.7308C97.4205 41.014 98.0067 41.0887 98.4895 41.2324C98.9722 41.3703 99.3659 41.5657 99.6734 41.8186C99.978 42.0715 100.202 42.3761 100.34 42.7266C100.478 43.0801 100.547 43.468 100.547 43.8876C100.547 44.3186 100.469 44.7123 100.317 45.0715C100.162 45.4249 99.9262 45.7266 99.6044 45.9795C99.2826 46.2324 98.8745 46.4335 98.386 46.5772C97.9032 46.7151 97.3285 46.7841 96.6619 46.7841H92.3745V46.0255H92.9722C93.1159 46.0255 93.2366 46.0082 93.3285 45.968C93.4205 45.9307 93.4923 45.8761 93.5469 45.8071C93.6073 45.7324 93.6504 45.6318 93.6734 45.5082C93.6964 45.3876 93.7078 45.241 93.7078 45.0715V38.2324C93.7078 38.0341 93.6877 37.8761 93.6504 37.7611C93.6188 37.6404 93.5728 37.5427 93.5124 37.4738C93.4492 37.4048 93.3745 37.3588 93.2826 37.3358C93.1906 37.3128 93.0872 37.3013 92.9722 37.3013H92.3745V36.5427H97.6159ZM95.9722 45.9335H96.5354C96.817 45.9335 97.0642 45.8962 97.2711 45.8186C97.478 45.7353 97.6418 45.6117 97.7653 45.4508C97.886 45.2841 97.978 45.0772 98.0412 44.8301C98.1015 44.5858 98.1331 44.2956 98.1331 43.9565C98.1331 43.5743 98.0986 43.2496 98.0297 42.9795C97.9665 42.7123 97.863 42.4939 97.7193 42.3243C97.5814 42.1577 97.4004 42.0341 97.1791 41.9565C96.955 41.8818 96.6877 41.8416 96.3745 41.8416H95.9722V45.9335ZM100.8 46.7841V46.0255H101.397C101.504 46.0255 101.599 46.014 101.685 45.991C101.777 45.968 101.852 45.9278 101.915 45.8646C101.984 45.7956 102.035 45.7008 102.076 45.5772C102.113 45.4565 102.133 45.2956 102.133 45.0944V38.2324C102.133 38.0255 102.113 37.8617 102.076 37.7381C102.035 37.6174 101.984 37.5255 101.915 37.4623C101.852 37.3933 101.777 37.3531 101.685 37.3358C101.599 37.3128 101.504 37.3013 101.397 37.3013H100.8V36.5427H105.742V37.3013H105.145C105.035 37.3013 104.938 37.3128 104.846 37.3358C104.76 37.3531 104.685 37.3933 104.616 37.4623C104.553 37.5255 104.504 37.6174 104.466 37.7381C104.426 37.8617 104.409 38.0255 104.409 38.2324V45.0944C104.409 45.2956 104.426 45.4565 104.466 45.5772C104.504 45.7008 104.553 45.7956 104.616 45.8646C104.685 45.9278 104.76 45.968 104.846 45.991C104.938 46.014 105.035 46.0255 105.145 46.0255H105.742V46.7841H100.8Z" fill="white"/>
<path d="M115.444 46.7841C115.076 46.7841 114.754 46.7583 114.478 46.7037C114.202 46.6433 113.961 46.5543 113.754 46.4393C113.553 46.3186 113.378 46.1721 113.225 46.0025C113.079 45.8359 112.949 45.6405 112.834 45.4163L111.467 42.9336C111.352 42.7267 111.243 42.5657 111.145 42.4508C111.053 42.3359 110.949 42.2497 110.834 42.1864C110.725 42.1261 110.605 42.0887 110.467 42.0715C110.334 42.0571 110.179 42.0485 109.995 42.0485V45.0945C109.995 45.2956 110.013 45.4566 110.053 45.5772C110.09 45.7008 110.139 45.7956 110.202 45.8646C110.271 45.9278 110.352 45.968 110.444 45.991C110.536 46.014 110.63 46.0255 110.731 46.0255H111.34V46.7841H106.536V46.0255H107.133C107.24 46.0255 107.334 46.0198 107.421 46.0025C107.513 45.9795 107.587 45.9393 107.651 45.8761C107.72 45.8157 107.771 45.7324 107.812 45.6232C107.849 45.5083 107.869 45.356 107.869 45.1634V38.1749C107.869 37.9853 107.849 37.8301 107.812 37.7152C107.771 37.6002 107.72 37.514 107.651 37.4508C107.587 37.3905 107.513 37.3531 107.421 37.3359C107.334 37.3129 107.24 37.3014 107.133 37.3014H106.536V36.5428H111.34V37.3014H110.731C110.63 37.3014 110.536 37.3129 110.444 37.3359C110.352 37.3531 110.271 37.3933 110.202 37.4623C110.139 37.5255 110.09 37.6175 110.053 37.7382C110.013 37.8617 109.995 38.0255 109.995 38.2324V41.2324C110.148 41.2324 110.283 41.2267 110.398 41.2094C110.513 41.1951 110.616 41.1721 110.708 41.1405C110.8 41.1117 110.883 41.0686 110.961 41.014C111.036 40.9623 111.11 40.8962 111.179 40.8186C111.309 40.6807 111.478 40.4451 111.685 40.106C111.898 39.7612 112.136 39.3244 112.398 38.7956C112.61 38.3761 112.812 38.014 112.995 37.7152C113.179 37.4163 113.369 37.1749 113.57 36.991C113.768 36.8071 113.978 36.6749 114.202 36.5887C114.432 36.4968 114.691 36.4508 114.984 36.4508C115.389 36.4508 115.676 36.5399 115.846 36.7152C116.021 36.8847 116.11 37.1002 116.11 37.3589C116.11 37.652 116.044 37.8933 115.915 38.083C115.791 38.2669 115.622 38.379 115.409 38.4163C115.392 38.3244 115.363 38.2324 115.317 38.1405C115.277 38.0485 115.225 37.9738 115.156 37.9106C115.093 37.8416 115.018 37.7899 114.926 37.7497C114.834 37.7037 114.725 37.6807 114.605 37.6807C114.458 37.6807 114.323 37.7123 114.202 37.7726C114.087 37.8272 113.972 37.9192 113.857 38.0485C113.748 38.1721 113.633 38.333 113.513 38.5313C113.398 38.7324 113.266 38.9767 113.122 39.2669C112.961 39.5657 112.817 39.8272 112.697 40.0485C112.573 40.264 112.458 40.4508 112.352 40.6117C112.243 40.7669 112.136 40.8991 112.03 41.014C111.929 41.1232 111.826 41.218 111.72 41.3014C111.926 41.3014 112.125 41.3359 112.317 41.4048C112.507 41.4738 112.685 41.5657 112.846 41.6807C113.013 41.7956 113.168 41.9393 113.306 42.106C113.449 42.2669 113.582 42.4479 113.697 42.6462L114.857 44.7267C114.987 44.9566 115.11 45.1577 115.225 45.3244C115.34 45.4853 115.458 45.6203 115.582 45.7267C115.702 45.8272 115.826 45.9048 115.949 45.9566C116.079 46.0025 116.22 46.0255 116.375 46.0255H116.467V46.7841H115.444Z" fill="white"/>
<path d="M126.413 37.3013H126.137C125.999 37.3013 125.878 37.3186 125.78 37.3473C125.688 37.3789 125.599 37.4364 125.516 37.5197C125.438 37.6059 125.361 37.7209 125.286 37.8646C125.217 38.0111 125.14 38.195 125.056 38.4163L122.964 43.8186C122.803 44.2266 122.648 44.583 122.504 44.8876C122.367 45.1864 122.217 45.4479 122.056 45.6692C121.895 45.8933 121.717 46.0772 121.527 46.2209C121.344 46.3674 121.128 46.4824 120.884 46.5657C120.637 46.6433 120.358 46.7008 120.045 46.7381C119.729 46.7697 119.367 46.7841 118.953 46.7841H118.068V45.945H118.688C118.933 45.945 119.177 45.9278 119.424 45.8876C119.668 45.8416 119.898 45.7784 120.114 45.6921C120.326 45.6002 120.516 45.491 120.677 45.3588C120.844 45.2295 120.967 45.0715 121.045 44.8876L117.665 38.06C117.596 37.922 117.53 37.8042 117.47 37.7036C117.407 37.6059 117.338 37.5284 117.263 37.4738C117.186 37.4134 117.096 37.3703 116.999 37.3473C116.907 37.3186 116.786 37.3013 116.642 37.3013H116.458V36.5427H121.378V37.3013H120.861C120.614 37.3013 120.424 37.3473 120.286 37.4393C120.154 37.5255 120.091 37.6749 120.091 37.8876C120.091 38.0255 120.108 38.1605 120.148 38.2899C120.194 38.422 120.254 38.56 120.332 38.7036L121.424 41.014C121.499 41.1835 121.579 41.3646 121.665 41.5542C121.757 41.7381 121.841 41.9278 121.918 42.1174C121.993 42.31 122.062 42.4967 122.125 42.6807C122.186 42.8588 122.231 43.0255 122.263 43.1864C122.323 42.9881 122.39 42.7841 122.458 42.5772C122.533 42.3703 122.622 42.1347 122.723 41.8646L123.769 38.991C123.861 38.7611 123.93 38.5628 123.976 38.3933C124.022 38.218 124.045 38.0887 124.045 38.0025C124.045 37.7582 123.964 37.583 123.803 37.4738C123.648 37.3588 123.415 37.3013 123.102 37.3013H122.792V36.5427H126.413V37.3013Z" fill="white"/>
<path d="M132.659 46.7841V46.0255H133.279C133.377 46.0255 133.469 46.014 133.555 45.991C133.647 45.968 133.722 45.9278 133.785 45.8646C133.854 45.7956 133.906 45.7008 133.946 45.5772C133.983 45.4565 134.004 45.2956 134.004 45.0944V37.4163H130.406V45.0944C130.406 45.2956 130.423 45.4565 130.463 45.5772C130.501 45.7008 130.549 45.7956 130.613 45.8646C130.682 45.9278 130.762 45.968 130.854 45.991C130.946 46.014 131.041 46.0255 131.141 46.0255H131.762V46.7841H126.808V46.0255H127.406C127.512 46.0255 127.607 46.014 127.693 45.991C127.785 45.968 127.86 45.9278 127.923 45.8646C127.992 45.7956 128.044 45.7008 128.084 45.5772C128.121 45.4565 128.141 45.2956 128.141 45.0944V38.1749C128.141 37.9853 128.121 37.8301 128.084 37.7151C128.044 37.6002 127.992 37.514 127.923 37.4508C127.854 37.3904 127.774 37.3531 127.682 37.3358C127.595 37.3128 127.504 37.3013 127.406 37.3013H126.808V36.5427H137.601V37.3013H137.004C136.903 37.3013 136.808 37.3128 136.716 37.3358C136.63 37.3531 136.555 37.3933 136.486 37.4623C136.417 37.5255 136.363 37.6174 136.325 37.7381C136.294 37.8617 136.279 38.0255 136.279 38.2324V45.1634C136.279 45.3559 136.297 45.5082 136.337 45.6232C136.374 45.7324 136.429 45.8157 136.498 45.8761C136.567 45.9393 136.641 45.9795 136.728 46.0025C136.811 46.0197 136.903 46.0255 137.004 46.0255H137.601V46.7841H132.659Z" fill="white"/>
<path d="M141.131 43.4163L140.718 44.6462C140.677 44.7611 140.64 44.899 140.603 45.06C140.562 45.2151 140.545 45.3473 140.545 45.4623C140.545 45.5628 140.56 45.6462 140.591 45.7151C140.629 45.7841 140.677 45.8416 140.741 45.8876C140.801 45.9278 140.87 45.9623 140.948 45.991C141.022 46.014 141.103 46.0255 141.189 46.0255H141.798V46.7841H138.062V46.0255H138.235C138.364 46.0255 138.479 46.0111 138.58 45.9795C138.686 45.9508 138.787 45.8962 138.879 45.8186C138.971 45.7439 139.054 45.6404 139.131 45.5082C139.215 45.3703 139.298 45.195 139.384 44.9795L142.499 36.5427H144.465L147.465 44.991C147.534 45.1921 147.606 45.3588 147.683 45.4967C147.758 45.6289 147.844 45.7324 147.936 45.8071C148.028 45.8847 148.123 45.9421 148.223 45.9795C148.321 46.0111 148.43 46.0255 148.545 46.0255H148.81V46.7841H144.074V46.0255H144.626C144.7 46.0255 144.775 46.014 144.844 45.991C144.919 45.968 144.985 45.9393 145.04 45.899C145.1 45.8531 145.149 45.7956 145.189 45.7266C145.226 45.6519 145.246 45.5628 145.246 45.4623C145.246 45.3473 145.229 45.2381 145.2 45.1289C145.177 45.0226 145.149 44.9307 145.12 44.8531L144.614 43.4163H141.131ZM143.568 40.1864C143.522 40.0255 143.471 39.8588 143.419 39.6807C143.364 39.4967 143.31 39.3128 143.258 39.1289C143.203 38.9393 143.149 38.7496 143.097 38.5657C143.051 38.3818 143.008 38.2065 142.971 38.037C142.93 38.1835 142.881 38.3444 142.821 38.5197C142.767 38.6893 142.706 38.8646 142.637 39.0485C142.574 39.2266 142.514 39.4048 142.453 39.5887C142.39 39.7726 142.333 39.9508 142.281 40.1174L141.43 42.5427H144.327L143.568 40.1864Z" fill="white"/>
</svg>
