<svg width="401" height="88" viewBox="0 0 401 88" fill="none" xmlns="http://www.w3.org/2000/svg">
<path d="M333.714 30.8507L328.952 31.8938L325.174 32.7051L322.314 33.0634L315.349 33.9273L323.683 32.4259L333.714 30.8507Z" fill="black"/>
<path d="M328.951 31.8938L325.174 32.7051L322.313 33.0633L327.202 32.0729L328.951 31.8938Z" fill="black"/>
<path d="M325.506 49.1471L329.937 48.3621L337.739 47.1399H339.767L335.484 48.4886L333.561 49.6318L340.858 51.4598L347.237 51.7127L369.048 52.2711L371.634 52.4239V52.9823L339.941 53.1878C339.941 53.1878 333.714 53.3669 333.482 53.2405L329.304 51.0805L325.506 50.0637V49.1471Z" fill="black"/>
<mask id="mask0_4_835" style="mask-type:luminance" maskUnits="userSpaceOnUse" x="386" y="43" width="15" height="12">
<path d="M386.928 43.2729H400.894V54.0622H386.928V43.2729Z" fill="white"/>
</mask>
<g mask="url(#mask0_4_835)">
<path d="M400.61 51.1278C399.862 51.0067 399.124 50.8223 398.408 50.5694C397.876 50.3745 397.365 50.1479 396.864 49.8845C397.565 48.9468 397.986 47.8984 398.129 46.7342C398.15 46.5708 398.16 46.4128 398.155 46.2495L393.392 45.3381L391.164 44.9061L389.315 44.5479C389.531 46.0651 389.541 47.5771 389.341 49.0943C389.146 50.5378 388.767 51.9286 388.198 53.2615H393.824C394.709 53.2878 400.357 53.4933 400.763 51.9181C400.826 51.6336 400.773 51.3702 400.61 51.1278ZM388.936 52.7557C389.726 51.1647 390.147 49.4789 390.2 47.6982C390.221 46.9133 390.168 46.1336 390.047 45.3592L396.659 46.4549C396.295 47.5033 395.753 48.4516 395.041 49.2998C392.934 51.818 390 52.5502 388.936 52.7557ZM398.434 52.5028C396.991 52.9348 395.847 52.8084 394.657 52.782C393.298 52.7241 391.938 52.7504 390.579 52.8558C392.481 52.5766 394.509 52.3501 396.659 52.1973L399.572 52.0445C399.203 52.2236 398.824 52.3764 398.434 52.5028Z" fill="black"/>
</g>
<mask id="mask1_4_835" style="mask-type:luminance" maskUnits="userSpaceOnUse" x="301" y="39" width="8" height="14">
<path d="M301.768 39.2271H308.706V52.7136H301.768V39.2271Z" fill="white"/>
</mask>
<g mask="url(#mask1_4_835)">
<path d="M302.785 40.5337C302.706 40.5337 302.479 40.913 301.873 43.0466C301.858 45.4489 302.39 47.7195 303.47 49.8584L304.481 51.9183L308.053 52.2712C307.405 51.5232 306.92 50.675 306.609 49.732C306.362 48.9628 306.251 48.1778 306.278 47.3665C305.487 47.2085 304.792 46.8555 304.202 46.3024C303.064 45.2066 302.911 43.7104 302.811 42.8201C302.679 41.4978 302.911 40.56 302.785 40.5337Z" fill="black"/>
</g>
<path d="M393.292 41.5503C392.528 41.0235 391.743 40.5441 390.937 40.1016L389.794 39.5168C385.463 37.4833 383.614 37.7098 376.118 35.9344C371.229 34.7649 371.655 34.1064 366.061 32.3521C362.125 31.0824 358.106 30.2132 354.002 29.7338C348.049 29.0489 343.639 29.5547 338.271 30.0393C334.167 30.3923 329.636 31.2299 322.414 32.173L310.56 34.3593L308.153 34.7912L306.888 35.0178L308.1 34.9704L310.407 34.865L322.998 34.3593L327.734 35.9081L337.159 38.2735L340.347 36.9249L352.379 37.7889L354.913 38.4737L344.983 38.1207L340.752 37.9153L339.261 38.6265L358.585 42.0298L371.682 44.0896C372.562 42.309 373.868 40.9498 375.612 40.0015C380.069 37.6097 384.678 39.8961 385.058 40.1016C386.817 41.0235 388.192 42.3406 389.188 44.0633L391.164 44.3952L393.392 44.7745L397.902 45.5647C396.516 44.0527 394.978 42.7146 393.292 41.5503ZM321.681 33.9536L316.334 34.2802L322.313 33.0633L325.174 32.705L328.951 31.8937L332.37 31.4881L325.885 33.2898L321.681 33.9536ZM369.912 38.1682L368.036 38.3736L355.777 37.2778L339.767 36.2137L329.231 35.6816L326.365 34.8176L326.644 34.2065L332.37 32.3521L336.88 31.1825L348.481 30.3185L359.728 31.5618L366.767 33.4426L375.559 36.4929L369.912 38.1682ZM393.392 44.3688L391.164 43.8894L389.694 43.5839C389.162 42.6672 388.514 41.8454 387.744 41.1184C386.633 40.0489 385.358 39.2429 383.92 38.7055C384.863 38.7055 385.801 38.7951 386.728 38.9847C388.229 39.2956 389.652 39.8276 390.984 40.5863C391.243 40.7127 391.485 40.8549 391.722 41.0183C392.201 41.2975 392.733 41.6241 393.339 42.0561C394.551 42.9359 395.647 43.9316 396.632 45.0537L393.392 44.3688Z" fill="black"/>
<path d="M309.928 34.3065L308.205 34.512L305.872 34.8386L305.239 35.1968L302.658 33.6743L308.305 34.1537L309.928 34.3065Z" fill="black"/>
<path d="M322.893 45.2855C322.55 44.6797 322.134 44.1265 321.644 43.6366C321.149 43.1414 320.601 42.7199 320.001 42.3775C319.395 42.0298 318.757 41.7664 318.083 41.5925C317.409 41.4187 316.724 41.3344 316.028 41.3449C311.777 41.3713 308.332 44.7745 308.358 48.9206C308.363 49.911 308.563 50.8593 308.964 51.7654C308.342 50.6696 308.031 49.4948 308.026 48.2304C308 44.0896 311.445 40.7127 315.702 40.6864C316.46 40.6706 317.203 40.7654 317.936 40.9709C318.668 41.1711 319.353 41.4819 319.995 41.8928C320.633 42.2985 321.202 42.7937 321.697 43.3732C322.192 43.9474 322.587 44.5901 322.893 45.2855Z" fill="black"/>
<path d="M323.504 48.1302C323.499 47.1398 323.299 46.1915 322.893 45.2854C322.735 44.9799 322.545 44.6954 322.34 44.4214L322.161 44.1896C322.134 44.1422 322.087 44.1159 322.061 44.0895C322.034 44.0632 322.034 44.0421 322.008 44.0158L321.855 43.863L321.708 43.6839L321.502 43.5048C321.455 43.4363 321.397 43.3731 321.323 43.3256L321.149 43.1518L320.744 42.8462L320.591 42.7461L320.438 42.6408L320.212 42.488H320.185L320.059 42.4406C320.006 42.3879 319.959 42.3879 319.906 42.3616L319.78 42.2878C319.753 42.2509 319.722 42.2351 319.679 42.2351H319.627L319.427 42.135L319.274 42.056H319.247C319.221 42.0244 319.19 42.0086 319.147 42.0086L318.968 41.9296L318.689 41.8295L318.463 41.7505L318.21 41.6767H318.057L317.704 41.5766L317.451 41.5239H315.07L314.258 41.6504L314.032 41.7294L313.779 41.7768L313.547 41.8558L313.294 41.9559H313.268L313.094 42.0297H313.042L312.862 42.1087L312.662 42.2088L312.509 42.2878L312.383 42.3352L312.204 42.4406L311.904 42.6144L311.672 42.7672L311.445 42.9463C311.145 43.1465 310.866 43.3783 310.608 43.6312L310.46 43.784C310.349 43.8841 310.26 43.9947 310.181 44.1159C310.128 44.1686 310.076 44.1896 310.054 44.2423L309.875 44.4741C309.802 44.5584 309.733 44.6532 309.675 44.7533L309.522 44.9799L309.417 45.159L309.291 45.3381C309.269 45.4066 309.238 45.4751 309.19 45.5383C309.159 45.6226 309.117 45.6963 309.064 45.7701C309.038 45.8544 309.001 45.9387 308.964 46.023L308.89 46.2021C308.859 46.2442 308.843 46.2969 308.838 46.3496C308.838 46.3759 308.838 46.3759 308.811 46.3759L308.737 46.6341C308.685 46.7447 308.653 46.8659 308.632 46.987C308.606 47.045 308.59 47.1029 308.585 47.1662L308.532 47.2926C308.532 47.3295 308.527 47.3611 308.506 47.3927C308.506 47.4454 308.485 47.4981 308.485 47.5718C308.485 47.6456 308.458 47.6983 308.432 47.7773C308.437 47.851 308.427 47.9301 308.406 48.0038C308.411 48.0723 308.4 48.1408 308.379 48.2093V48.4358C308.358 48.5096 308.353 48.5886 308.358 48.6623V48.9415C308.358 49.9372 308.564 50.8855 308.964 51.7916C309.306 52.3975 309.728 52.9454 310.218 53.4406C310.708 53.9358 311.256 54.352 311.861 54.6997C312.462 55.0474 313.099 55.3055 313.774 55.4794C314.448 55.6585 315.133 55.7375 315.828 55.727H316.029C314.754 55.7112 313.563 55.3793 312.467 54.726C311.366 54.0728 310.502 53.1877 309.875 52.0709C309.522 51.2332 309.349 50.3587 309.343 49.4526C309.322 47.909 309.786 46.5287 310.739 45.3118C311.266 44.4372 311.977 43.7524 312.862 43.2519C313.753 42.7567 314.706 42.5091 315.728 42.5143H316.387C317.024 42.5038 317.651 42.5776 318.273 42.7356C318.894 42.8937 319.479 43.1307 320.032 43.4468C320.591 43.7682 321.091 44.1528 321.544 44.6058C321.997 45.0589 322.377 45.5646 322.693 46.1231C323.062 46.9554 323.246 47.83 323.251 48.7414C323.262 49.8529 323.014 50.9013 322.514 51.8917C323.178 50.7275 323.509 49.4736 323.504 48.1302Z" fill="black"/>
<path d="M387.492 45.6648C387.144 45.059 386.728 44.5111 386.233 44.0212C385.743 43.5312 385.195 43.1098 384.589 42.7673C383.989 42.4249 383.351 42.1667 382.677 41.9929C382.002 41.819 381.318 41.74 380.627 41.7506C376.344 41.7769 372.925 45.1591 372.952 49.2999C372.957 50.285 373.152 51.2333 373.531 52.1447C372.925 51.0595 372.62 49.8899 372.62 48.6414C372.593 44.4953 376.018 41.092 380.296 41.0657C381.054 41.0552 381.797 41.1553 382.529 41.3607C383.256 41.5662 383.941 41.877 384.579 42.2826C385.221 42.6936 385.785 43.1835 386.28 43.763C386.775 44.3372 387.181 44.9694 387.492 45.6648Z" fill="black"/>
<path d="M388.098 48.5359C388.103 48.0618 388.056 47.5876 387.961 47.1188C387.866 46.6499 387.724 46.1968 387.534 45.7596C387.339 45.3223 387.107 44.9114 386.828 44.5215C386.549 44.137 386.233 43.7787 385.88 43.4626C385.527 43.1413 385.148 42.8621 384.731 42.6197C384.32 42.3826 383.888 42.1877 383.435 42.0402C382.982 41.8927 382.519 41.7979 382.045 41.7452C381.57 41.6978 381.096 41.703 380.627 41.7505H379.511L379.258 41.8031H379.231L378.952 41.8558L378.699 41.9032L378.42 41.9823L378.167 42.0824L377.993 42.135H377.914L377.661 42.2351H377.635L377.382 42.3616H377.356L377.129 42.488H377.103L376.95 42.567L376.471 42.8462L376.039 43.1518C375.744 43.3678 375.465 43.6049 375.206 43.863L375.054 44.0158C374.98 44.0579 374.922 44.1212 374.875 44.1896L374.748 44.3213L374.622 44.4741L374.216 45.0062L374.116 45.1853L373.989 45.3855C373.974 45.4013 373.963 45.4171 373.963 45.4382L373.784 45.7438C373.637 46.0124 373.51 46.2916 373.405 46.5814C373.378 46.6341 373.378 46.7078 373.357 46.7605C373.331 46.8079 373.331 46.8343 373.305 46.8606V46.9133C373.278 46.9344 373.278 46.9871 373.252 47.0134C373.252 47.0766 373.236 47.1346 373.205 47.1925L373.126 47.5191C373.104 47.5718 373.104 47.6245 373.078 47.6719C373.052 47.7246 373.052 47.7984 373.052 47.851C373.052 47.9037 373.025 47.9775 373.025 48.0302C373.025 48.0776 372.999 48.1566 372.999 48.2093C372.999 48.2567 372.978 48.5096 372.952 48.6413V49.579C372.952 49.6001 372.962 49.6159 372.978 49.6317V49.9583C372.978 50.0373 372.999 50.1111 372.999 50.1901C373.02 50.2481 373.031 50.306 373.025 50.3692C373.046 50.4166 373.057 50.4693 373.052 50.522L373.126 50.7749C373.126 50.8012 373.152 50.8486 373.152 50.875C373.178 50.954 373.178 51.0278 373.205 51.1068C373.231 51.1805 373.357 51.5598 373.457 51.7916C373.558 52.0182 373.484 51.8917 373.505 51.9444C373.842 52.5713 374.248 53.1403 374.738 53.6566C375.222 54.1729 375.77 54.6154 376.376 54.9842C376.987 55.3477 377.63 55.6269 378.309 55.8218C378.994 56.0115 379.69 56.1063 380.396 56.1116H380.601C379.326 56.101 378.141 55.7691 377.045 55.1212C375.949 54.4732 375.091 53.5881 374.469 52.4765C374.116 51.6389 373.926 50.7696 373.91 49.8582C373.91 48.3146 374.374 46.9238 375.307 45.6911C375.849 44.8271 376.566 44.1475 377.456 43.6523C378.346 43.1571 379.305 42.9042 380.322 42.8937H380.98C382.282 42.8779 383.493 43.1939 384.621 43.8419C385.753 44.4847 386.638 45.375 387.286 46.5024C387.66 47.3453 387.845 48.2251 387.845 49.147C387.845 50.2533 387.592 51.2912 387.086 52.2711C387.766 51.1226 388.108 49.8793 388.098 48.5359Z" fill="black"/>
<path d="M337.333 45.4646C334.646 43.0939 331.707 41.0973 328.52 39.4641C326.191 38.2735 323.604 36.9775 319.932 36.4665C318.441 36.2558 316.951 36.2031 315.449 36.3137C313.31 36.4823 311.256 36.9986 309.291 37.8626C308.332 38.3157 307.42 38.853 306.556 39.4641L306.456 39.8487C307.125 39.3588 307.837 38.9373 308.585 38.5738C311.245 37.2567 313.674 37.0513 315.349 36.8985C316.987 36.7721 318.626 36.8142 320.259 37.0249C322.366 37.3568 324.263 37.9943 328.314 40.1279C331.417 41.7505 334.42 43.5259 337.333 45.4646Z" fill="black"/>
<path d="M325.912 47.8247C326.017 47.2083 326.007 46.5866 325.886 45.9703C325.786 45.3433 325.575 44.7586 325.253 44.2159C327.456 45.0062 329.71 45.5962 332.013 45.9966C333.693 46.2758 335.384 46.4444 337.081 46.5023L325.912 47.8247Z" fill="black"/>
<mask id="mask2_4_835" style="mask-type:luminance" maskUnits="userSpaceOnUse" x="307" y="0" width="87" height="38">
<path d="M307.357 0H393.671V37.8783H307.357V0Z" fill="white"/>
</mask>
<g mask="url(#mask2_4_835)">
<path d="M308.305 30.5714C312.989 13.0388 329.989 0 350.203 0C373.052 0 391.822 16.6738 393.292 37.6887C392.554 37.204 391.769 36.7457 390.937 36.2873C388.756 17.1058 371.329 2.08621 350.203 2.08621C331.18 2.08621 315.117 14.2821 310.56 30.7768L308.153 31.1825C308.158 31.0929 308.179 31.0086 308.205 30.9296L308.305 30.5714Z" fill="black"/>
</g>
<path d="M352.126 4.95728L353.975 8.6134L358.132 9.19817L355.119 12.0483L355.824 16.0626L352.126 14.1556L348.402 16.0626L349.113 12.0483L346.099 9.19817L350.251 8.6134L352.126 4.95728Z" fill="black"/>
<path d="M334.852 9.80945L336.374 12.786L339.741 13.2654L337.307 15.5781L337.865 18.8549L334.852 17.3061L331.838 18.8549L332.418 15.5781L329.963 13.2654L333.335 12.786L334.852 9.80945Z" fill="black"/>
<path d="M323.504 18.8547L324.742 21.2465L327.456 21.6521L325.48 23.5066L325.959 26.1512L323.504 24.9026L321.07 26.1512L321.529 23.5066L319.553 21.6521L322.287 21.2465L323.504 18.8547Z" fill="black"/>
<path d="M376.903 18.8547L378.141 21.2465L380.88 21.6521L378.878 23.5066L379.358 26.1512L376.903 24.9026L374.469 26.1512L374.927 23.5066L372.952 21.6521L375.686 21.2465L376.903 18.8547Z" fill="black"/>
<path d="M366.493 9.80945L367.984 12.786L371.382 13.2654L368.922 15.5781L369.506 18.8549L366.493 17.3061L363.453 18.8549L364.033 15.5781L361.578 13.2654L364.97 12.786L366.493 9.80945Z" fill="black"/>
<mask id="mask3_4_835" style="mask-type:luminance" maskUnits="userSpaceOnUse" x="314" y="68" width="73" height="20">
<path d="M314.101 68.8975H386.928V88H314.101V68.8975Z" fill="white"/>
</mask>
<g mask="url(#mask3_4_835)">
<path d="M383.767 70.0616H386.501C378.726 80.8615 365.576 87.9999 350.736 87.9999C335.89 87.9999 322.719 80.8615 314.965 70.0616H317.678C325.148 79.6392 337.181 85.8926 350.736 85.8926C364.285 85.8926 376.292 79.6392 383.767 70.0616Z" fill="black"/>
</g>
<path d="M287.523 3.54541V84.4597" stroke="black" stroke-width="7.0044" stroke-linecap="round"/>
<path d="M306.856 64.4995L306.224 66.2274C306.182 66.3697 306.145 66.5014 306.118 66.6278C306.087 66.7543 306.076 66.8596 306.076 66.9439C306.076 67.2284 306.166 67.4391 306.35 67.5761C306.529 67.7025 306.814 67.7657 307.193 67.7657H307.572V68.4612H303.505V67.7657H303.821C303.99 67.7657 304.127 67.7552 304.243 67.7236C304.354 67.6815 304.454 67.613 304.538 67.5129C304.633 67.418 304.728 67.2811 304.812 67.1125C304.896 66.9439 304.986 66.7279 305.086 66.4592L308.774 56.5972H310.08L313.831 66.8807C313.9 67.0493 313.963 67.1915 314.021 67.3021C314.089 67.418 314.168 67.5076 314.252 67.5761C314.347 67.6498 314.453 67.6973 314.569 67.7236C314.695 67.7552 314.843 67.7657 315.011 67.7657H315.222V68.4612H310.649V67.7657H311.049C311.708 67.7657 312.04 67.5023 312.04 66.965C312.04 66.8807 312.024 66.7911 311.998 66.691C311.966 66.5962 311.934 66.4803 311.892 66.3539L311.239 64.4995H306.856ZM309.912 60.7485C309.727 60.2586 309.564 59.8002 309.427 59.3788C309.285 58.9468 309.163 58.5253 309.069 58.1144C309.037 58.3146 308.995 58.5095 308.942 58.7044C308.884 58.8888 308.826 59.0785 308.774 59.2734C308.716 59.4736 308.647 59.6738 308.563 59.8845C308.489 60.0953 308.405 60.3376 308.31 60.601L307.193 63.6566H310.944L309.912 60.7485Z" fill="black"/>
<path d="M324.573 59.5684C324.573 59.9372 324.515 60.2586 324.404 60.5378C324.304 60.8223 324.162 61.0646 323.983 61.2753C323.799 61.4861 323.583 61.6704 323.33 61.8232C323.077 61.9655 322.803 62.0866 322.508 62.1815V62.2447C322.887 62.3184 323.23 62.4291 323.54 62.5818C323.862 62.7399 324.136 62.9401 324.362 63.193C324.584 63.4458 324.763 63.7514 324.889 64.0991C325.016 64.4362 325.079 64.8261 325.079 65.2581C325.079 66.3275 324.726 67.1283 324.025 67.6604C323.319 68.1977 322.244 68.4612 320.801 68.4612H315.849V67.7657H316.06C316.255 67.7657 316.428 67.7552 316.586 67.7236C316.755 67.6973 316.903 67.6393 317.029 67.555C317.155 67.4707 317.25 67.3548 317.324 67.1968C317.392 67.044 317.429 66.8333 317.429 66.5646V58.4094C317.429 58.1724 317.387 57.9827 317.303 57.8405C317.229 57.6877 317.134 57.5665 317.008 57.4822C316.892 57.3979 316.755 57.3505 316.586 57.3347C316.418 57.3084 316.239 57.2926 316.06 57.2926H315.849V56.5972H320.316C321.749 56.5972 322.813 56.8395 323.519 57.3136C324.22 57.793 324.573 58.5464 324.573 59.5684ZM319.115 67.6393H320.717C321.191 67.6393 321.591 67.5972 321.918 67.5129C322.239 67.418 322.497 67.2758 322.698 67.0914C322.908 66.8965 323.056 66.6436 323.14 66.3328C323.235 66.0272 323.288 65.6532 323.288 65.2159C323.288 64.7839 323.245 64.4046 323.161 64.078C323.087 63.7566 322.956 63.488 322.761 63.2772C322.561 63.0665 322.297 62.9137 321.96 62.8136C321.633 62.7188 321.233 62.6661 320.759 62.6661H319.115V67.6393ZM319.115 61.8232H320.253C320.743 61.8232 321.149 61.7811 321.475 61.6968C321.797 61.6125 322.055 61.4808 322.255 61.2964C322.45 61.1173 322.592 60.8855 322.676 60.601C322.761 60.306 322.803 59.9635 322.803 59.5684C322.803 59.1628 322.75 58.8256 322.655 58.5569C322.571 58.2777 322.424 58.0512 322.213 57.8826C322.002 57.714 321.733 57.5981 321.412 57.5244C321.085 57.4559 320.685 57.419 320.211 57.419H319.115V61.8232Z" fill="black"/>
<path d="M331.999 66.5646C331.999 66.8333 332.03 67.044 332.104 67.1968C332.172 67.3548 332.273 67.4707 332.399 67.555C332.525 67.6393 332.662 67.6973 332.82 67.7236C332.989 67.7552 333.168 67.7657 333.368 67.7657H333.748V68.4612H328.564V67.7657H328.943C329.122 67.7657 329.301 67.7552 329.47 67.7236C329.638 67.6973 329.786 67.6498 329.912 67.5761C330.039 67.5076 330.134 67.397 330.207 67.2389C330.276 67.0862 330.313 66.8912 330.313 66.6489V57.419H328.732C328.479 57.419 328.269 57.4559 328.1 57.5244C327.942 57.5981 327.81 57.693 327.7 57.8194C327.6 57.9458 327.521 58.0933 327.468 58.2619C327.41 58.4305 327.373 58.6096 327.363 58.7887L327.278 59.5052H326.414L326.499 56.5972H335.855L335.939 59.5052H335.075L334.991 58.7887C334.959 58.6096 334.917 58.4305 334.864 58.2619C334.822 58.0933 334.743 57.9458 334.633 57.8194C334.533 57.693 334.401 57.5981 334.232 57.5244C334.064 57.4559 333.858 57.419 333.621 57.419H331.999V66.5646Z" fill="black"/>
<path d="M347.657 62.5188C347.657 63.4355 347.535 64.2679 347.298 65.0265C347.072 65.7746 346.735 66.412 346.287 66.9441C345.85 67.4815 345.307 67.8924 344.664 68.1874C344.016 68.4824 343.273 68.6299 342.43 68.6299C341.545 68.6299 340.771 68.4824 340.112 68.1874C339.464 67.8924 338.922 67.4815 338.49 66.9441C338.053 66.412 337.721 65.764 337.499 65.0054C337.289 64.2468 337.183 63.4144 337.183 62.4978C337.183 61.5705 337.289 60.7382 337.499 59.9901C337.721 59.2473 338.053 58.6098 338.49 58.0725C338.922 57.5404 339.47 57.1347 340.134 56.8502C340.792 56.5552 341.566 56.4077 342.452 56.4077C343.279 56.4077 344.016 56.5552 344.664 56.8502C345.307 57.1347 345.85 57.5404 346.287 58.0725C346.735 58.6098 347.072 59.2525 347.298 60.0112C347.535 60.7592 347.657 61.5916 347.657 62.5188ZM339.038 62.5188C339.038 63.3354 339.09 64.0677 339.206 64.7104C339.333 65.3584 339.528 65.9063 339.796 66.3541C340.076 66.8071 340.429 67.1496 340.85 67.3866C341.282 67.6132 341.809 67.7238 342.43 67.7238C343.047 67.7238 343.568 67.6132 343.99 67.3866C344.422 67.1496 344.775 66.8071 345.044 66.3541C345.307 65.9063 345.497 65.3584 345.612 64.7104C345.739 64.0677 345.802 63.3354 345.802 62.5188C345.802 61.6917 345.739 60.9542 345.612 60.3062C345.497 59.6635 345.307 59.1208 345.044 58.6836C344.775 58.2358 344.422 57.8986 343.99 57.6721C343.568 57.435 343.052 57.3138 342.452 57.3138C341.83 57.3138 341.303 57.435 340.871 57.6721C340.434 57.8986 340.076 58.2358 339.796 58.6836C339.528 59.1208 339.333 59.6635 339.206 60.3062C339.09 60.9542 339.038 61.6917 339.038 62.5188Z" fill="black"/>
<path d="M359.121 68.4612V67.7657H359.184C359.352 67.7657 359.505 67.7552 359.647 67.7236C359.8 67.6973 359.927 67.6498 360.027 67.5761C360.121 67.5076 360.201 67.4022 360.258 67.26C360.327 67.123 360.364 66.9386 360.364 66.7121V57.8405L356.571 68.4612H355.665L351.808 57.8615V66.5646C351.808 66.8333 351.835 67.044 351.893 67.1968C351.945 67.3548 352.024 67.4707 352.124 67.555C352.235 67.6393 352.361 67.6973 352.504 67.7236C352.656 67.7552 352.825 67.7657 353.009 67.7657H353.052V68.4612H349.216V67.7657H349.427C349.606 67.7657 349.785 67.7552 349.954 67.7236C350.122 67.6973 350.259 67.6498 350.375 67.5761C350.502 67.5076 350.597 67.397 350.67 67.2389C350.755 67.0862 350.797 66.8912 350.797 66.6489V58.4094C350.797 58.1724 350.755 57.9827 350.67 57.8405C350.597 57.6877 350.502 57.5665 350.375 57.4822C350.259 57.3979 350.122 57.3505 349.954 57.3347C349.785 57.3084 349.606 57.2926 349.427 57.2926H349.216V56.5972H353.009L356.444 66.101L359.858 56.5972H363.546V57.2926H363.335C363.151 57.2926 362.977 57.3084 362.808 57.3347C362.64 57.3663 362.492 57.419 362.366 57.5033C362.239 57.5876 362.139 57.7088 362.071 57.8615C361.997 58.0196 361.965 58.2303 361.965 58.4937V66.5646C361.965 66.8333 361.997 67.044 362.071 67.1968C362.139 67.3548 362.239 67.4707 362.366 67.555C362.492 67.6393 362.64 67.6973 362.808 67.7236C362.977 67.7552 363.151 67.7657 363.335 67.7657H363.546V68.4612H359.121Z" fill="black"/>
<path d="M372.046 68.4612V67.7657H372.257C372.452 67.7657 372.626 67.7552 372.784 67.7236C372.952 67.6973 373.1 67.6393 373.226 67.555C373.353 67.4707 373.448 67.3548 373.521 67.1968C373.59 67.044 373.627 66.8333 373.627 66.5646V59.9899L368.063 66.2274V66.5646C368.063 66.8333 368.095 67.044 368.169 67.1968C368.237 67.3548 368.327 67.4707 368.443 67.555C368.569 67.6393 368.717 67.6973 368.885 67.7236C369.054 67.7552 369.228 67.7657 369.412 67.7657H369.644V68.4612H364.797V67.7657H365.008C365.203 67.7657 365.377 67.7552 365.535 67.7236C365.703 67.6973 365.851 67.6393 365.977 67.555C366.104 67.4707 366.198 67.3548 366.272 67.1968C366.341 67.044 366.378 66.8333 366.378 66.5646V58.4094C366.378 58.1724 366.335 57.9827 366.251 57.8405C366.177 57.6877 366.083 57.5665 365.956 57.4822C365.84 57.3979 365.703 57.3505 365.535 57.3347C365.366 57.3084 365.187 57.2926 365.008 57.2926H364.797V56.5972H369.644V57.2926H369.412C369.228 57.2926 369.054 57.3084 368.885 57.3347C368.717 57.3663 368.569 57.419 368.443 57.5033C368.327 57.5876 368.237 57.7088 368.169 57.8615C368.095 58.0196 368.063 58.2303 368.063 58.4937V65.0684L373.627 58.8098V58.4937C373.627 58.2303 373.59 58.0196 373.521 57.8615C373.448 57.7088 373.353 57.5876 373.226 57.5033C373.1 57.419 372.952 57.3663 372.784 57.3347C372.626 57.3084 372.452 57.2926 372.257 57.2926H372.046V56.5972H376.893V57.2926H376.661C376.477 57.2926 376.303 57.3084 376.134 57.3347C375.966 57.3663 375.818 57.419 375.692 57.5033C375.576 57.5876 375.486 57.7088 375.418 57.8615C375.344 58.0196 375.312 58.2303 375.312 58.4937V66.6489C375.312 66.8912 375.344 67.0862 375.418 67.2389C375.486 67.397 375.586 67.5076 375.713 67.5761C375.839 67.6498 375.976 67.6973 376.134 67.7236C376.303 67.7552 376.477 67.7657 376.661 67.7657H376.893V68.4612H372.046Z" fill="black"/>
<path d="M388.507 57.5244C388.507 57.693 388.475 57.8405 388.422 57.9669C388.38 58.0934 388.322 58.2093 388.254 58.3041C388.18 58.4042 388.096 58.4832 388.001 58.5359C387.901 58.5938 387.796 58.636 387.685 58.6623C387.669 58.5359 387.632 58.42 387.58 58.3041C387.537 58.1934 387.474 58.0934 387.39 58.0091C387.316 57.9142 387.227 57.8405 387.116 57.7983C387 57.7457 386.868 57.714 386.716 57.714C386.389 57.714 386.083 57.8774 385.788 58.1987C385.493 58.5253 385.177 59.0206 384.84 59.6949C384.671 60.0321 384.513 60.3376 384.376 60.601C384.25 60.8539 384.124 61.0804 383.997 61.2753C383.881 61.4755 383.771 61.6494 383.66 61.8022C383.56 61.9444 383.449 62.0708 383.323 62.1815C383.618 62.1973 383.871 62.2394 384.081 62.3079C384.292 62.3659 384.471 62.4554 384.629 62.5819C384.782 62.6978 384.924 62.8453 385.051 63.0244C385.177 63.193 385.304 63.3932 385.43 63.6144L386.989 66.4382C387.242 66.9018 387.522 67.2389 387.832 67.4497C388.138 67.6604 388.475 67.7658 388.844 67.7658H388.907V68.4612H388.654C388.133 68.4612 387.695 68.4401 387.348 68.398C386.995 68.3558 386.7 68.2821 386.463 68.1661C386.22 68.0397 386.02 67.8817 385.852 67.6815C385.683 67.4707 385.514 67.2126 385.346 66.9018L383.829 63.9937C383.686 63.7567 383.555 63.567 383.428 63.4248C383.312 63.272 383.165 63.1508 382.986 63.0665C382.817 62.9822 382.606 62.9348 382.353 62.919C382.101 62.8927 381.785 62.8769 381.405 62.8769V66.5646C381.405 66.8333 381.437 67.044 381.511 67.1968C381.579 67.3548 381.669 67.4707 381.785 67.555C381.911 67.6393 382.058 67.6973 382.227 67.7236C382.396 67.7552 382.569 67.7658 382.754 67.7658H382.986V68.4612H378.139V67.7658H378.35C378.529 67.7658 378.708 67.7552 378.876 67.7236C379.045 67.6973 379.182 67.6499 379.298 67.5761C379.424 67.5076 379.519 67.397 379.593 67.2389C379.677 67.0862 379.719 66.8912 379.719 66.6489V58.4094C379.719 58.1724 379.677 57.9827 379.593 57.8405C379.519 57.6877 379.424 57.5665 379.298 57.4822C379.182 57.398 379.045 57.3505 378.876 57.3347C378.708 57.3084 378.529 57.2926 378.35 57.2926H378.139V56.5972H382.986V57.2926H382.754C382.569 57.2926 382.396 57.3084 382.227 57.3347C382.058 57.3663 381.911 57.419 381.785 57.5033C381.669 57.5876 381.579 57.7088 381.511 57.8616C381.437 58.0196 381.405 58.2303 381.405 58.4937V62.1183C381.658 62.1183 381.858 62.113 382.016 62.0972C382.185 62.0708 382.317 62.034 382.417 61.9918C382.527 61.9497 382.617 61.9023 382.691 61.8443C382.759 61.7758 382.828 61.6968 382.901 61.6125C383.038 61.4439 383.207 61.1594 383.407 60.7485C383.618 60.3271 383.876 59.8108 384.187 59.1891C384.398 58.7835 384.608 58.4094 384.819 58.0723C385.04 57.7351 385.267 57.4559 385.493 57.2294C385.73 56.9923 385.983 56.8079 386.252 56.6815C386.531 56.555 386.831 56.4918 387.158 56.4918C387.395 56.4918 387.601 56.5234 387.769 56.5761C387.948 56.6183 388.091 56.692 388.191 56.7868C388.301 56.8869 388.38 56.9976 388.422 57.124C388.475 57.2504 388.507 57.3874 388.507 57.5244Z" fill="black"/>
<path d="M395.417 56.4287C395.992 56.4287 396.482 56.4814 396.892 56.5762C397.314 56.6605 397.662 56.7869 397.946 56.9555C398.225 57.1241 398.436 57.3243 398.578 57.5456C398.715 57.7721 398.789 58.0197 398.789 58.2831C398.789 58.4675 398.747 58.6308 398.663 58.7678C398.589 58.91 398.494 59.0365 398.368 59.1471C398.241 59.2472 398.083 59.3262 397.904 59.3789C397.735 59.421 397.546 59.4421 397.335 59.4421C397.335 59.1892 397.298 58.9364 397.23 58.6835C397.156 58.4306 397.045 58.2094 396.892 58.0092C396.75 57.7984 396.555 57.6299 396.302 57.5034C396.05 57.377 395.744 57.3138 395.396 57.3138C394.764 57.3138 394.227 57.4297 393.795 57.6509C393.357 57.8775 392.999 58.2146 392.72 58.6624C392.436 59.0997 392.235 59.6423 392.109 60.285C391.993 60.933 391.94 61.6758 391.94 62.5187C391.94 63.251 392.004 63.9254 392.13 64.5417C392.256 65.1634 392.457 65.6955 392.741 66.1433C393.02 66.5805 393.379 66.923 393.816 67.1758C394.248 67.4182 394.775 67.5341 395.396 67.5341C395.802 67.5341 396.16 67.5025 396.471 67.4287C396.777 67.3444 397.05 67.2391 397.293 67.1126C397.53 66.9756 397.741 66.8176 397.925 66.649C398.104 66.4804 398.267 66.3066 398.41 66.1222C398.494 66.1801 398.562 66.2644 398.62 66.3751C398.689 66.4752 398.726 66.6016 398.726 66.7544C398.726 66.9809 398.647 67.2074 398.494 67.4287C398.352 67.6394 398.136 67.8396 397.841 68.0187C397.556 68.1873 397.193 68.3348 396.745 68.4613C396.292 68.5719 395.76 68.6299 395.143 68.6299C394.311 68.6299 393.584 68.4823 392.952 68.1873C392.32 67.8923 391.793 67.4814 391.371 66.944C390.95 66.4119 390.623 65.7745 390.402 65.0264C390.191 64.2678 390.086 63.4354 390.086 62.5187C390.086 61.6232 390.197 60.8013 390.423 60.0532C390.644 59.2946 390.982 58.6519 391.435 58.1145C391.882 57.5824 392.436 57.1663 393.099 56.8712C393.774 56.5762 394.543 56.4287 395.417 56.4287Z" fill="black"/>
<path d="M164.884 19.2863L164.125 21.5411C164.051 21.7519 163.983 22.0047 163.914 22.2998C163.841 22.5842 163.809 22.8266 163.809 23.0373C163.809 23.2217 163.835 23.3745 163.893 23.5009C163.962 23.6273 164.051 23.7327 164.167 23.817C164.278 23.8908 164.404 23.954 164.547 24.0067C164.684 24.0488 164.831 24.0699 164.989 24.0699H166.106V25.4607H159.257V24.0699H159.573C159.81 24.0699 160.021 24.0435 160.206 23.9856C160.401 23.9329 160.585 23.8328 160.753 23.6906C160.922 23.5536 161.075 23.3639 161.217 23.1216C161.37 22.8687 161.523 22.5474 161.681 22.1522L167.391 6.68481H170.995L176.495 22.1733C176.621 22.5421 176.753 22.8476 176.895 23.1005C177.032 23.3429 177.19 23.5325 177.359 23.6695C177.527 23.8117 177.701 23.9171 177.886 23.9856C178.065 24.0435 178.265 24.0699 178.476 24.0699H178.96V25.4607H170.278V24.0699H171.29C171.427 24.0699 171.564 24.0488 171.69 24.0067C171.827 23.9645 171.948 23.9118 172.049 23.8381C172.159 23.7538 172.249 23.6484 172.322 23.522C172.391 23.385 172.428 23.2217 172.428 23.0373C172.428 22.8266 172.396 22.6264 172.344 22.4262C172.301 22.2313 172.249 22.0627 172.196 21.9204L171.269 19.2863H164.884ZM169.351 13.3649C169.267 13.0699 169.172 12.7643 169.077 12.4377C168.977 12.1005 168.877 11.7634 168.782 11.4262C168.682 11.0785 168.582 10.7308 168.487 10.3936C168.403 10.0565 168.324 9.7351 168.255 9.42428C168.182 9.69296 168.092 9.98798 167.981 10.3093C167.881 10.6202 167.771 10.9415 167.644 11.2787C167.528 11.6053 167.418 11.9319 167.307 12.2691C167.191 12.6063 167.086 12.9329 166.991 13.2385L165.432 17.6848H170.742L169.351 13.3649Z" fill="black"/>
<path d="M194.936 12.2691C194.936 13.0593 194.794 13.818 194.514 14.545C194.246 15.2614 193.803 15.9042 193.187 16.4626C192.565 17.0105 191.764 17.453 190.785 17.7902C189.799 18.1168 188.598 18.2749 187.181 18.2749H186.275V22.4894C186.275 22.8424 186.307 23.1216 186.38 23.3323C186.465 23.5325 186.57 23.6853 186.696 23.7959C186.823 23.9118 186.97 23.9856 187.139 24.0277C187.318 24.0593 187.497 24.0699 187.666 24.0699H189.288V25.4607H179.679V24.0699H180.775C180.97 24.0699 181.144 24.0488 181.302 24.0067C181.47 23.9645 181.607 23.8908 181.723 23.7749C181.85 23.6484 181.945 23.4746 182.018 23.248C182.087 23.0268 182.124 22.7317 182.124 22.363V9.67715C182.124 9.32945 182.087 9.04497 182.018 8.83424C181.945 8.62351 181.85 8.46547 181.723 8.34957C181.607 8.23893 181.47 8.17045 181.302 8.13884C181.144 8.09669 180.97 8.07562 180.775 8.07562H179.679V6.68481H187.75C188.972 6.68481 190.031 6.82179 190.932 7.0852C191.828 7.33807 192.576 7.71211 193.166 8.20206C193.756 8.68146 194.198 9.26623 194.493 9.9511C194.788 10.6254 194.936 11.3999 194.936 12.2691ZM186.275 16.7576H186.907C187.566 16.7576 188.119 16.6839 188.572 16.5258C189.02 16.3572 189.383 16.0991 189.668 15.7461C189.963 15.3984 190.173 14.9401 190.3 14.3764C190.437 13.818 190.511 13.1436 190.511 12.3534C190.511 11.6527 190.453 11.0469 190.342 10.5411C190.226 10.0249 190.047 9.59286 189.794 9.2557C189.541 8.91853 189.209 8.66566 188.804 8.49707C188.393 8.32849 187.898 8.2442 187.308 8.2442H186.275V16.7576Z" fill="black"/>
<path d="M203.069 23.8591H208.338C208.601 23.8591 208.828 23.8117 209.012 23.7116C209.207 23.6168 209.37 23.4746 209.497 23.2902C209.634 23.1111 209.75 22.9003 209.834 22.658C209.918 22.4051 209.981 22.1417 210.024 21.8572L210.234 20.6139H212.047L211.857 25.4607H196.453V24.0699H197.548C197.743 24.0699 197.917 24.0593 198.075 24.0277C198.244 23.9856 198.381 23.9118 198.497 23.7959C198.623 23.6853 198.718 23.5325 198.792 23.3323C198.86 23.1216 198.897 22.8424 198.897 22.4894V9.78252C198.897 9.4032 198.86 9.10292 198.792 8.87638C198.718 8.65512 198.623 8.48654 198.497 8.37064C198.381 8.2442 198.244 8.17045 198.075 8.13884C197.917 8.09669 197.743 8.07562 197.548 8.07562H196.453V6.68481H211.056L211.14 11.5316H209.307L209.181 10.2883C209.107 9.64554 208.949 9.15033 208.696 8.81317C208.443 8.46547 208.043 8.28635 207.495 8.28635H203.069V14.8611H209.307V16.4415H203.069V23.8591Z" fill="black"/>
<path d="M224.59 25.4607V24.0699H225.728C225.907 24.0699 226.086 24.0488 226.255 24.0067C226.423 23.9645 226.56 23.8908 226.676 23.7749C226.803 23.6484 226.897 23.4746 226.971 23.248C227.04 23.0268 227.077 22.7317 227.077 22.363V16.4626H220.207V22.363C220.207 22.7317 220.238 23.0268 220.312 23.248C220.381 23.4746 220.47 23.6484 220.586 23.7749C220.713 23.8908 220.86 23.9645 221.029 24.0067C221.197 24.0488 221.371 24.0699 221.556 24.0699H222.693V25.4607H213.611V24.0699H214.707C214.902 24.0699 215.076 24.0488 215.234 24.0067C215.402 23.9645 215.539 23.8908 215.655 23.7749C215.782 23.6484 215.876 23.4746 215.95 23.248C216.019 23.0268 216.056 22.7317 216.056 22.363V9.69822C216.056 9.35052 216.019 9.06604 215.95 8.85531C215.876 8.64458 215.782 8.48654 215.655 8.37064C215.529 8.26001 215.381 8.19152 215.213 8.15991C215.055 8.11776 214.886 8.09669 214.707 8.09669H213.611V6.68481H222.693V8.09669H221.556C221.371 8.09669 221.197 8.11776 221.029 8.15991C220.86 8.19152 220.713 8.26527 220.586 8.39171C220.47 8.50761 220.381 8.67619 220.312 8.89746C220.238 9.12399 220.207 9.42428 220.207 9.80359V14.8611H227.077V9.80359C227.077 9.42428 227.04 9.12399 226.971 8.89746C226.897 8.67619 226.803 8.50761 226.676 8.39171C226.56 8.26527 226.423 8.19152 226.255 8.15991C226.086 8.11776 225.907 8.09669 225.728 8.09669H224.59V6.68481H233.672V8.09669H232.577C232.392 8.09669 232.218 8.11776 232.05 8.15991C231.892 8.19152 231.755 8.26527 231.628 8.39171C231.502 8.50761 231.402 8.67619 231.333 8.89746C231.26 9.12399 231.228 9.42428 231.228 9.80359V22.4894C231.228 22.8424 231.26 23.1216 231.333 23.3323C231.418 23.5325 231.512 23.6853 231.628 23.7959C231.755 23.9118 231.892 23.9856 232.05 24.0277C232.218 24.0593 232.392 24.0699 232.577 24.0699H233.672V25.4607H224.59Z" fill="black"/>
<path d="M243.035 8.28635C243.035 9.16087 242.956 10.0512 242.803 10.9626C242.661 11.8635 242.471 12.7749 242.234 13.7021C241.992 14.6187 241.718 15.5301 241.412 16.4415C241.101 17.3582 240.764 18.2485 240.401 19.1178C240.048 19.9923 239.69 20.8247 239.326 21.6254C238.957 22.4157 238.599 23.1585 238.251 23.8591H245.521V8.28635H243.035ZM236.207 23.8591C236.85 22.5948 237.472 21.3093 238.062 20.0028C238.652 18.6963 239.168 17.4109 239.621 16.1465C240.069 14.8821 240.427 13.6599 240.696 12.4798C240.975 11.2892 241.117 10.1776 241.117 9.15033C241.117 8.91326 241.054 8.72361 240.928 8.58137C240.801 8.42859 240.633 8.31796 240.422 8.2442C240.211 8.17571 239.963 8.13357 239.684 8.11776C239.416 8.09142 239.136 8.07562 238.841 8.07562H238.757V6.68481H251.864V8.07562H251.506C251.264 8.07562 251.032 8.09669 250.811 8.13884C250.6 8.17045 250.4 8.2442 250.221 8.37064C250.052 8.49707 249.915 8.68146 249.82 8.91853C249.72 9.14506 249.673 9.44535 249.673 9.82466V21.9626C249.673 22.3735 249.725 22.7001 249.841 22.953C249.968 23.2059 250.121 23.4061 250.305 23.543C250.5 23.6695 250.726 23.7538 250.979 23.7959C251.243 23.8381 251.532 23.8591 251.843 23.8591H252.37V30.9817H250.621C250.621 30.0124 250.558 29.1748 250.431 28.4741C250.315 27.7839 250.121 27.215 249.841 26.7672C249.573 26.3141 249.22 25.9875 248.788 25.7768C248.366 25.566 247.85 25.4607 247.249 25.4607H239.705C239.099 25.4607 238.588 25.566 238.167 25.7768C237.746 25.9875 237.393 26.3141 237.113 26.7672C236.845 27.215 236.65 27.7839 236.523 28.4741C236.407 29.1748 236.355 30.0124 236.355 30.9817H234.606V23.8591H236.207Z" fill="black"/>
<path d="M258.736 19.2863L257.977 21.5411C257.903 21.7519 257.835 22.0047 257.766 22.2998C257.692 22.5842 257.661 22.8266 257.661 23.0373C257.661 23.2217 257.687 23.3745 257.745 23.5009C257.814 23.6273 257.903 23.7327 258.019 23.817C258.13 23.8908 258.256 23.954 258.398 24.0067C258.535 24.0488 258.683 24.0699 258.841 24.0699H259.958V25.4607H253.109V24.0699H253.425C253.662 24.0699 253.873 24.0435 254.057 23.9856C254.252 23.9329 254.437 23.8328 254.605 23.6906C254.774 23.5536 254.927 23.3639 255.069 23.1216C255.222 22.8687 255.374 22.5474 255.533 22.1522L261.243 6.68481H264.847L270.347 22.1733C270.473 22.5421 270.605 22.8476 270.747 23.1005C270.884 23.3429 271.042 23.5325 271.211 23.6695C271.379 23.8117 271.553 23.9171 271.737 23.9856C271.917 24.0435 272.117 24.0699 272.328 24.0699H272.812V25.4607H264.13V24.0699H265.142C265.279 24.0699 265.416 24.0488 265.542 24.0067C265.679 23.9645 265.8 23.9118 265.9 23.8381C266.011 23.7538 266.101 23.6484 266.174 23.522C266.243 23.385 266.28 23.2217 266.28 23.0373C266.28 22.8266 266.248 22.6264 266.195 22.4262C266.153 22.2313 266.101 22.0627 266.048 21.9204L265.121 19.2863H258.736ZM263.203 13.3649C263.119 13.0699 263.024 12.7643 262.929 12.4377C262.829 12.1005 262.729 11.7634 262.634 11.4262C262.534 11.0785 262.434 10.7308 262.339 10.3936C262.255 10.0565 262.176 9.7351 262.107 9.42428C262.033 9.69296 261.944 9.98798 261.833 10.3093C261.733 10.6202 261.623 10.9415 261.496 11.2787C261.38 11.6053 261.27 11.9319 261.159 12.2691C261.043 12.6063 260.938 12.9329 260.843 13.2385L259.283 17.6848H264.594L263.203 13.3649Z" fill="black"/>
<path d="M61.0952 47.6081L60.3366 49.8629C60.2628 50.0736 60.1943 50.3265 60.1258 50.6215C60.0521 50.906 60.0205 51.1484 60.0205 51.3591C60.0205 51.5435 60.0468 51.6962 60.1048 51.8227C60.1733 51.9491 60.2628 52.0545 60.3787 52.1388C60.4893 52.2125 60.6158 52.2757 60.758 52.3284C60.895 52.3706 61.0425 52.3916 61.2006 52.3916H62.3174V53.7825H55.4688V52.3916H55.7848C56.0219 52.3916 56.2326 52.3653 56.417 52.3074C56.6119 52.2547 56.7963 52.1546 56.9649 52.0123C57.1335 51.8754 57.2863 51.6857 57.4285 51.4434C57.5813 51.1905 57.7341 50.8691 57.8921 50.474L63.6028 35.0066H67.2063L72.7063 50.4951C72.8327 50.8639 72.9644 51.1694 73.1067 51.4223C73.2437 51.6646 73.4017 51.8543 73.5703 51.9913C73.7389 52.1335 73.9127 52.2389 74.0971 52.3074C74.2762 52.3653 74.4764 52.3916 74.6871 52.3916H75.1718V53.7825H66.4898V52.3916H67.5013C67.6383 52.3916 67.7753 52.3706 67.9017 52.3284C68.0387 52.2863 68.1598 52.2336 68.2599 52.1598C68.3706 52.0756 68.4601 51.9702 68.5339 51.8438C68.6024 51.7068 68.6392 51.5435 68.6392 51.3591C68.6392 51.1484 68.6076 50.9482 68.555 50.748C68.5128 50.553 68.4601 50.3845 68.4074 50.2422L67.4802 47.6081H61.0952ZM65.5626 41.6867C65.4783 41.3916 65.3835 41.0861 65.2887 40.7595C65.1886 40.4223 65.0885 40.0851 64.9937 39.748C64.8936 39.4003 64.7935 39.0526 64.6986 38.7154C64.6143 38.3782 64.5353 38.0569 64.4668 37.7461C64.3931 38.0147 64.3035 38.3098 64.1929 38.6311C64.0928 38.9419 63.9822 39.2633 63.8557 39.6005C63.7398 39.9271 63.6292 40.2537 63.5186 40.5909C63.4027 40.928 63.2973 41.2547 63.2025 41.5602L61.6431 46.0066H66.9534L65.5626 41.6867Z" fill="black"/>
<path d="M91.0839 39.7901C91.0839 40.3696 91.0048 40.8754 90.8521 41.3074C90.694 41.7446 90.4728 42.1187 90.1777 42.4242C89.8827 42.735 89.5297 43.0037 89.1241 43.225C88.7132 43.4515 88.2654 43.6412 87.7754 43.7939V43.9204C88.376 44.0784 88.9344 44.2892 89.4402 44.5526C89.9459 44.8212 90.3727 45.1531 90.7256 45.543C91.0891 45.9381 91.3683 46.3964 91.5685 46.9127C91.7793 47.4185 91.8846 47.998 91.8846 48.6407C91.8846 50.3687 91.2524 51.6646 89.9881 52.5181C88.7342 53.361 86.8588 53.7825 84.3616 53.7825H75.8904V52.3916H76.9651C77.16 52.3916 77.3444 52.3706 77.513 52.3284C77.6816 52.2863 77.8185 52.2125 77.9344 52.0966C78.0609 51.9702 78.1557 51.7963 78.2295 51.5698C78.2979 51.3485 78.3348 51.0535 78.3348 50.6848V38.0832C78.3348 37.7355 78.2979 37.451 78.2295 37.2403C78.1557 37.019 78.0609 36.8505 77.9344 36.7346C77.808 36.6081 77.6605 36.5238 77.4919 36.4817C77.3233 36.429 77.1442 36.3974 76.9651 36.3974H75.8904V35.0066H83.5609C86.058 35.0066 87.9335 35.3964 89.1873 36.1656C90.4517 36.94 91.0839 38.1464 91.0839 39.7901ZM82.4862 52.1809H84.2352C84.8094 52.1809 85.2994 52.1177 85.7103 51.9913C86.1318 51.8648 86.4689 51.6646 86.7218 51.3802C86.9747 51.0851 87.1538 50.7058 87.2697 50.2422C87.3961 49.7786 87.4593 49.2097 87.4593 48.5353C87.4593 47.9031 87.4014 47.35 87.2908 46.8706C87.1907 46.3964 87.0168 46.0013 86.7639 45.6905C86.5216 45.3849 86.2002 45.1531 85.7946 44.9951C85.3995 44.8423 84.8937 44.7633 84.2774 44.7633H82.4862V52.1809ZM82.4862 43.1618H83.4766C84.093 43.1618 84.604 43.0985 85.0149 42.9721C85.4206 42.8457 85.7419 42.6507 85.9842 42.3821C86.2371 42.1029 86.411 41.7499 86.5111 41.3284C86.6217 40.8964 86.6797 40.3802 86.6797 39.7901C86.6797 39.1895 86.6164 38.6891 86.49 38.2939C86.3741 37.8883 86.195 37.5564 85.9421 37.3035C85.6892 37.0507 85.3521 36.8768 84.9306 36.7767C84.5197 36.6661 84.0245 36.6081 83.4344 36.6081H82.4862V43.1618Z" fill="black"/>
<path d="M103.474 50.6848C103.474 51.0535 103.506 51.3485 103.58 51.5698C103.648 51.7963 103.748 51.9702 103.875 52.0966C104.001 52.2125 104.138 52.2863 104.296 52.3284C104.465 52.3706 104.639 52.3916 104.823 52.3916H105.94V53.7825H96.8576V52.3916H97.9533C98.1483 52.3916 98.3327 52.3706 98.5012 52.3284C98.6698 52.2863 98.8068 52.2125 98.9227 52.0966C99.0491 51.9702 99.1387 51.7963 99.1966 51.5698C99.2651 51.3485 99.302 51.0535 99.302 50.6848V36.6081H97.1947C96.7996 36.6081 96.4677 36.6503 96.2043 36.7346C95.9514 36.8189 95.7407 36.9453 95.5721 37.1139C95.4035 37.2719 95.2771 37.4668 95.1928 37.7039C95.1085 37.9304 95.0506 38.1886 95.0242 38.4836L94.8346 40.1062H93.0645L93.212 35.0066H109.586L109.733 40.1062H107.963L107.773 38.4836C107.731 38.1886 107.668 37.9304 107.584 37.7039C107.51 37.4668 107.394 37.2719 107.225 37.1139C107.057 36.9453 106.836 36.8189 106.572 36.7346C106.303 36.6503 105.972 36.6081 105.582 36.6081H103.474V50.6848Z" fill="black"/>
<path d="M129.21 44.3629C129.21 45.8116 129.01 47.134 128.62 48.3246C128.24 49.5205 127.671 50.5372 126.913 51.3801C126.154 52.223 125.227 52.8763 124.131 53.3399C123.035 53.8035 121.771 54.0353 120.338 54.0353C118.831 54.0353 117.52 53.8035 116.397 53.3399C115.286 52.8763 114.359 52.223 113.616 51.3801C112.884 50.5372 112.336 49.5205 111.972 48.3246C111.603 47.134 111.424 45.8064 111.424 44.3418C111.424 42.8983 111.603 41.5813 111.972 40.4012C112.336 39.2106 112.889 38.1886 113.637 37.3456C114.38 36.5027 115.307 35.86 116.419 35.407C117.541 34.9433 118.852 34.7115 120.359 34.7115C121.776 34.7115 123.035 34.9433 124.131 35.407C125.238 35.86 126.165 36.5027 126.913 37.3456C127.671 38.1886 128.24 39.2106 128.62 40.4012C129.01 41.5813 129.21 42.9036 129.21 44.3629ZM115.829 44.3629C115.829 45.6273 115.913 46.7547 116.081 47.7345C116.25 48.7197 116.508 49.5573 116.861 50.2422C117.225 50.9165 117.688 51.4381 118.252 51.8016C118.826 52.1546 119.522 52.3284 120.338 52.3284C121.149 52.3284 121.84 52.1546 122.403 51.8016C122.977 51.4381 123.441 50.9165 123.794 50.2422C124.142 49.5573 124.395 48.7197 124.553 47.7345C124.721 46.7547 124.806 45.6273 124.806 44.3629C124.806 43.1143 124.721 41.9975 124.553 41.0123C124.395 40.0324 124.142 39.2001 123.794 38.5257C123.441 37.8409 122.983 37.3193 122.424 36.9663C121.861 36.6028 121.17 36.4184 120.359 36.4184C119.527 36.4184 118.826 36.6028 118.252 36.9663C117.688 37.3193 117.225 37.8409 116.861 38.5257C116.508 39.2001 116.25 40.0324 116.081 41.0123C115.913 41.9975 115.829 43.1143 115.829 44.3629Z" fill="black"/>
<path d="M146.547 53.7825V52.3916H146.799C147.063 52.3916 147.305 52.3811 147.516 52.3495C147.727 52.3074 147.901 52.2389 148.043 52.1388C148.18 52.0281 148.285 51.8806 148.359 51.6962C148.427 51.5013 148.464 51.2432 148.464 50.9166V37.5985L143.154 53.7825H141.363L135.799 37.5985V50.6848C135.799 51.0535 135.842 51.3485 135.926 51.5698C136.021 51.7963 136.158 51.9702 136.326 52.0966C136.495 52.2125 136.695 52.2863 136.937 52.3284C137.174 52.3706 137.448 52.3916 137.759 52.3916H137.907V53.7825H131.395V52.3916H132.491C132.686 52.3916 132.86 52.3811 133.018 52.3495C133.186 52.3074 133.323 52.2336 133.439 52.1177C133.566 52.0071 133.661 51.8543 133.734 51.6541C133.803 51.4434 133.84 51.1642 133.84 50.8112V37.9989C133.84 37.6512 133.803 37.3667 133.734 37.156C133.661 36.9453 133.566 36.7872 133.439 36.6713C133.323 36.5607 133.186 36.4922 133.018 36.4606C132.86 36.4185 132.686 36.3974 132.491 36.3974H131.395V35.0066H138.96L143.322 47.7135L147.516 35.0066H154.955V36.3974H153.859C153.659 36.3974 153.48 36.4185 153.311 36.4606C153.153 36.4922 153.016 36.566 152.89 36.6924C152.774 36.8083 152.684 36.9769 152.616 37.1982C152.542 37.4247 152.51 37.725 152.51 38.1043V50.6848C152.51 51.0535 152.542 51.3485 152.616 51.5698C152.684 51.7963 152.774 51.9702 152.89 52.0966C153.016 52.2125 153.153 52.2863 153.311 52.3284C153.48 52.3706 153.659 52.3916 153.859 52.3916H154.955V53.7825H146.547Z" fill="black"/>
<path d="M174.923 44.3629C174.923 45.8116 174.722 47.134 174.333 48.3246C173.953 49.5205 173.384 50.5372 172.626 51.3801C171.867 52.223 170.94 52.8763 169.844 53.3399C168.748 53.8035 167.484 54.0353 166.051 54.0353C164.544 54.0353 163.233 53.8035 162.11 53.3399C160.999 52.8763 160.072 52.223 159.329 51.3801C158.596 50.5372 158.049 49.5205 157.685 48.3246C157.316 47.134 157.137 45.8064 157.137 44.3418C157.137 42.8983 157.316 41.5813 157.685 40.4012C158.049 39.2106 158.602 38.1886 159.35 37.3456C160.093 36.5027 161.02 35.86 162.131 35.407C163.254 34.9433 164.565 34.7115 166.072 34.7115C167.489 34.7115 168.748 34.9433 169.844 35.407C170.95 35.86 171.878 36.5027 172.626 37.3456C173.384 38.1886 173.953 39.2106 174.333 40.4012C174.722 41.5813 174.923 42.9036 174.923 44.3629ZM161.541 44.3629C161.541 45.6273 161.626 46.7547 161.794 47.7345C161.963 48.7197 162.221 49.5573 162.574 50.2422C162.937 50.9165 163.401 51.4381 163.965 51.8016C164.539 52.1546 165.234 52.3284 166.051 52.3284C166.862 52.3284 167.552 52.1546 168.116 51.8016C168.69 51.4381 169.154 50.9165 169.507 50.2422C169.855 49.5573 170.108 48.7197 170.266 47.7345C170.434 46.7547 170.518 45.6273 170.518 44.3629C170.518 43.1143 170.434 41.9975 170.266 41.0123C170.108 40.0324 169.855 39.2001 169.507 38.5257C169.154 37.8409 168.696 37.3193 168.137 36.9663C167.574 36.6028 166.883 36.4184 166.072 36.4184C165.24 36.4184 164.539 36.6028 163.965 36.9663C163.401 37.3193 162.937 37.8409 162.574 38.5257C162.221 39.2001 161.963 40.0324 161.794 41.0123C161.626 41.9975 161.541 43.1143 161.541 44.3629Z" fill="black"/>
<path d="M191.585 35.0066L191.712 40.1062H189.941L189.752 38.4836C189.72 38.1886 189.668 37.9304 189.583 37.7039C189.499 37.4668 189.373 37.2719 189.204 37.1139C189.035 36.9453 188.814 36.8189 188.551 36.7346C188.282 36.6503 187.95 36.6081 187.56 36.6081H184.041V43.2039H185.706C186.97 43.2039 188.045 43.3409 188.93 43.6043C189.815 43.8572 190.537 44.2154 191.1 44.679C191.659 45.1426 192.07 45.701 192.323 46.3438C192.576 46.9917 192.702 47.703 192.702 48.4721C192.702 49.2623 192.555 49.9841 192.259 50.6426C191.975 51.2906 191.543 51.8438 190.953 52.3074C190.373 52.771 189.636 53.1397 188.74 53.4031C187.839 53.656 186.786 53.7825 185.579 53.7825H177.445V52.3916H178.562C178.815 52.3916 179.026 52.36 179.194 52.2863C179.373 52.2178 179.516 52.1177 179.616 51.9913C179.711 51.8543 179.784 51.6699 179.827 51.4434C179.869 51.2221 179.89 50.9534 179.89 50.6426V38.1043C179.89 37.7408 179.853 37.451 179.784 37.2403C179.726 37.019 179.637 36.8399 179.51 36.7135C179.395 36.5871 179.258 36.5028 179.089 36.4606C178.931 36.4185 178.757 36.3974 178.562 36.3974H177.445V35.0066H191.585ZM184.041 52.2231H185.327C185.859 52.2231 186.306 52.1546 186.675 52.0123C187.055 51.8596 187.355 51.633 187.581 51.338C187.818 51.0325 187.987 50.6531 188.087 50.2001C188.198 49.7523 188.256 49.2202 188.256 48.5985C188.256 47.8979 188.192 47.3026 188.066 46.8074C187.95 46.3174 187.771 45.917 187.518 45.6062C187.265 45.3007 186.933 45.0741 186.528 44.9319C186.117 44.7949 185.627 44.7211 185.053 44.7211H184.041V52.2231Z" fill="black"/>
<path d="M207.681 40.8227L200.811 49.6311V50.6848C200.811 51.0535 200.842 51.3485 200.916 51.5698C200.985 51.7963 201.074 51.9702 201.19 52.0966C201.317 52.2125 201.464 52.2863 201.633 52.3284C201.801 52.3706 201.975 52.3916 202.16 52.3916H203.297V53.7825H194.215V52.3916H195.311C195.506 52.3916 195.68 52.3706 195.838 52.3284C196.006 52.2863 196.143 52.2125 196.259 52.0966C196.386 51.9702 196.48 51.7963 196.554 51.5698C196.623 51.3485 196.66 51.0535 196.66 50.6848V37.9989C196.66 37.6512 196.623 37.3667 196.554 37.156C196.48 36.9453 196.386 36.7872 196.259 36.6713C196.133 36.5607 195.985 36.4922 195.817 36.4606C195.659 36.4185 195.49 36.3974 195.311 36.3974H194.215V35.0066H203.297V36.3974H202.16C201.975 36.3974 201.801 36.4185 201.633 36.4606C201.464 36.4922 201.317 36.566 201.19 36.6924C201.074 36.8083 200.985 36.9769 200.916 37.1982C200.842 37.4247 200.811 37.725 200.811 38.1043V47.3552L207.681 38.5468V38.1043C207.681 37.725 207.644 37.4247 207.575 37.1982C207.501 36.9769 207.407 36.8083 207.28 36.6924C207.164 36.566 207.027 36.4922 206.859 36.4606C206.69 36.4185 206.511 36.3974 206.332 36.3974H205.194V35.0066H214.276V36.3974H213.181C212.996 36.3974 212.822 36.4185 212.654 36.4606C212.496 36.4922 212.359 36.566 212.232 36.6924C212.106 36.8083 212.006 36.9769 211.937 37.1982C211.864 37.4247 211.832 37.725 211.832 38.1043V50.8112C211.832 51.1642 211.864 51.4434 211.937 51.6541C212.022 51.8543 212.116 52.0071 212.232 52.1177C212.359 52.2336 212.496 52.3074 212.654 52.3495C212.822 52.3811 212.996 52.3916 213.181 52.3916H214.276V53.7825H205.194V52.3916H206.332C206.511 52.3916 206.69 52.3706 206.859 52.3284C207.027 52.2863 207.164 52.2125 207.28 52.0966C207.407 51.9702 207.501 51.7963 207.575 51.5698C207.644 51.3485 207.681 51.0535 207.681 50.6848V40.8227Z" fill="black"/>
<path d="M224.314 53.7824V52.3916H225.431C225.61 52.3916 225.789 52.3706 225.957 52.3284C226.126 52.2863 226.263 52.2125 226.379 52.0966C226.505 51.9702 226.6 51.7963 226.674 51.5698C226.742 51.3485 226.779 51.0535 226.779 50.6847V36.3974H223.365C223.307 37.4932 223.223 38.6469 223.113 39.8533C223.012 41.065 222.886 42.2662 222.733 43.4568C222.575 44.6369 222.396 45.7748 222.185 46.8706C221.985 47.9664 221.753 48.9515 221.49 49.8208C221.248 50.6215 220.974 51.2906 220.668 51.8227C220.373 52.36 220.041 52.7868 219.678 53.1081C219.309 53.4189 218.909 53.6455 218.477 53.7824C218.055 53.9089 217.597 53.9721 217.107 53.9721C216.475 53.9721 215.958 53.8035 215.568 53.4664C215.189 53.1187 215 52.6234 215 51.9913C215 51.7279 215.031 51.4855 215.105 51.2748C215.173 51.0535 215.263 50.8639 215.379 50.7058C215.505 50.553 215.642 50.4424 215.8 50.3687C215.953 50.2844 216.116 50.2422 216.285 50.2422C216.285 50.5794 216.39 50.8691 216.601 51.1062C216.812 51.3485 217.091 51.4644 217.444 51.4644C217.739 51.4644 218.002 51.417 218.245 51.3169C218.482 51.2063 218.708 51.0219 218.919 50.769C219.14 50.5162 219.346 50.1737 219.53 49.7365C219.709 49.2887 219.894 48.725 220.078 48.0506C220.231 47.4922 220.373 46.8653 220.5 46.1752C220.626 45.4745 220.737 44.7633 220.837 44.0468C220.947 43.3303 221.047 42.6244 221.132 41.9185C221.216 41.202 221.284 40.5487 221.342 39.9587C221.395 39.3687 221.432 38.8576 221.448 38.4204C221.474 37.9726 221.49 37.6512 221.49 37.451C221.49 37.214 221.432 37.0243 221.321 36.8821C221.221 36.7451 221.074 36.6397 220.879 36.566C220.679 36.4817 220.457 36.4343 220.204 36.4185C219.952 36.4079 219.678 36.3974 219.383 36.3974H219.003V35.0066H233.396V36.3974H232.279C232.095 36.3974 231.921 36.4185 231.752 36.4606C231.594 36.4922 231.457 36.566 231.331 36.6924C231.204 36.8083 231.104 36.9822 231.036 37.2192C230.962 37.4458 230.931 37.7408 230.931 38.1043V50.8112C230.931 51.1642 230.962 51.4434 231.036 51.6541C231.12 51.8543 231.215 52.0071 231.331 52.1177C231.457 52.2336 231.594 52.3074 231.752 52.3495C231.921 52.3811 232.095 52.3916 232.279 52.3916H233.396V53.7824H224.314Z" fill="black"/>
<path d="M241.463 52.1809H246.731C246.995 52.1809 247.221 52.1335 247.406 52.0334C247.6 51.9386 247.764 51.7963 247.89 51.612C248.027 51.4328 248.143 51.2221 248.227 50.9798C248.312 50.7269 248.375 50.4635 248.417 50.179L248.628 48.9357H250.44L250.25 53.7825H234.846V52.3916H235.942C236.137 52.3916 236.311 52.3811 236.469 52.3495C236.637 52.3074 236.774 52.2336 236.89 52.1177C237.017 52.0071 237.112 51.8543 237.185 51.6541C237.254 51.4434 237.291 51.1642 237.291 50.8112V38.1043C237.291 37.725 237.254 37.4247 237.185 37.1982C237.112 36.9769 237.017 36.8083 236.89 36.6924C236.774 36.566 236.637 36.4922 236.469 36.4606C236.311 36.4185 236.137 36.3974 235.942 36.3974H234.846V35.0066H249.45L249.534 39.8533H247.701L247.574 38.61C247.5 37.9673 247.342 37.4721 247.089 37.1349C246.837 36.7872 246.436 36.6081 245.888 36.6081H241.463V43.1828H247.701V44.7633H241.463V52.1809Z" fill="black"/>
<path d="M265.47 40.8226L258.6 49.631V50.6846C258.6 51.0534 258.632 51.3484 258.706 51.5697C258.774 51.7962 258.864 51.9701 258.98 52.0965C259.106 52.2124 259.254 52.2862 259.422 52.3283C259.591 52.3705 259.765 52.3915 259.949 52.3915H261.087V53.7823H252.005V52.3915H253.1C253.295 52.3915 253.469 52.3705 253.627 52.3283C253.796 52.2862 253.933 52.2124 254.049 52.0965C254.175 51.9701 254.27 51.7962 254.344 51.5697C254.412 51.3484 254.449 51.0534 254.449 50.6846V37.9988C254.449 37.6511 254.412 37.3666 254.344 37.1559C254.27 36.9452 254.175 36.7871 254.049 36.6712C253.922 36.5606 253.775 36.4921 253.606 36.4605C253.448 36.4184 253.28 36.3973 253.1 36.3973H252.005V35.0065H261.087V36.3973H259.949C259.765 36.3973 259.591 36.4184 259.422 36.4605C259.254 36.4921 259.106 36.5659 258.98 36.6923C258.864 36.8082 258.774 36.9768 258.706 37.1981C258.632 37.4246 258.6 37.7249 258.6 38.1042V47.3551L265.47 38.5467V38.1042C265.47 37.7249 265.433 37.4246 265.365 37.1981C265.291 36.9768 265.196 36.8082 265.07 36.6923C264.954 36.5659 264.817 36.4921 264.648 36.4605C264.48 36.4184 264.301 36.3973 264.121 36.3973H262.984V35.0065H272.066V36.3973H270.97C270.786 36.3973 270.612 36.4184 270.443 36.4605C270.285 36.4921 270.148 36.5659 270.022 36.6923C269.895 36.8082 269.795 36.9768 269.727 37.1981C269.653 37.4246 269.621 37.7249 269.621 38.1042V50.8111C269.621 51.1641 269.653 51.4433 269.727 51.654C269.811 51.8542 269.906 52.007 270.022 52.1176C270.148 52.2335 270.285 52.3073 270.443 52.3494C270.612 52.381 270.786 52.3915 270.97 52.3915H272.066V53.7823H262.984V52.3915H264.121C264.301 52.3915 264.48 52.3705 264.648 52.3283C264.817 52.2862 264.954 52.2124 265.07 52.0965C265.196 51.9701 265.291 51.7962 265.365 51.5697C265.433 51.3484 265.47 51.0534 265.47 50.6846V40.8226ZM261.972 32.0563C262.731 32.0563 263.305 31.8456 263.7 31.4241C264.106 30.9921 264.359 30.3178 264.459 29.4011H267.746C267.688 29.9385 267.577 30.4495 267.409 30.9394C267.251 31.4346 266.966 31.8666 266.545 32.246C266.134 32.6253 265.565 32.9361 264.838 33.1732C264.106 33.3997 263.152 33.5103 261.972 33.5103C260.792 33.5103 259.833 33.3997 259.106 33.1732C258.374 32.9361 257.8 32.6253 257.378 32.246C256.957 31.8666 256.662 31.4346 256.493 30.9394C256.335 30.4495 256.23 29.9385 256.177 29.4011H259.464C259.559 30.3178 259.812 30.9921 260.223 31.4241C260.629 31.8456 261.213 32.0563 261.972 32.0563Z" fill="black"/>
<path d="M9.71456 80.2709C10.3573 80.2709 10.9262 80.2024 11.4215 80.0602C11.9272 79.9074 12.375 79.7125 12.7701 79.4701C13.16 79.2173 13.5077 78.9433 13.8027 78.6483C14.0977 78.3533 14.3558 78.0583 14.5824 77.7633C14.7193 77.8633 14.8247 78.0267 14.8985 78.2479C14.9828 78.4587 15.0249 78.6799 15.0249 78.9012C15.0249 79.27 14.9248 79.6545 14.7299 80.0602C14.5297 80.4711 14.2031 80.8399 13.7395 81.177C13.2864 81.5142 12.6753 81.7987 11.9061 82.02C11.1475 82.2412 10.2045 82.3571 9.08237 82.3571C7.56513 82.3571 6.23755 82.1253 5.09962 81.6617C3.96169 81.1981 3.01341 80.5449 2.25479 79.702C1.49617 78.859 0.927203 77.8423 0.547893 76.6464C0.179119 75.4558 0 74.1335 0 72.6847C0 71.2676 0.189655 69.9663 0.568965 68.7862C0.958811 67.6062 1.53831 66.5947 2.29693 65.7518C3.05556 64.8983 3.99329 64.2345 5.12069 63.7709C6.25862 63.2968 7.5704 63.0544 9.0613 63.0544C10.0728 63.0544 10.9473 63.1387 11.6954 63.3073C12.454 63.4654 13.0757 63.6814 13.5709 63.9606C14.0608 64.2293 14.4349 64.5506 14.6877 64.9299C14.9406 65.2987 15.067 65.6885 15.067 66.11C15.067 66.4366 14.9933 66.7369 14.8563 67.0161C14.7141 67.3006 14.5034 67.5429 14.2241 67.7537C13.9397 67.9539 13.592 68.1119 13.1705 68.2384C12.7596 68.3543 12.296 68.4069 11.7797 68.4069C11.7797 67.9749 11.727 67.5377 11.6322 67.1004C11.5321 66.6684 11.3688 66.2733 11.1475 65.9203C10.921 65.5726 10.626 65.2882 10.2625 65.0774C9.89368 64.8562 9.44061 64.7403 8.89272 64.7403C8.04981 64.7403 7.3386 64.9194 6.76437 65.2671C6.20067 65.6201 5.74234 66.1311 5.39464 66.8054C5.04167 67.4797 4.78879 68.3174 4.63601 69.3131C4.47797 70.2982 4.40421 71.4203 4.40421 72.6847C4.40421 73.9649 4.49377 75.0817 4.67816 76.0353C4.87308 76.9783 5.18391 77.7633 5.60536 78.3954C6.02682 79.0171 6.57471 79.486 7.24904 79.8073C7.92337 80.1181 8.74521 80.2709 9.71456 80.2709Z" fill="black"/>
<path d="M34.3933 82.1042V80.7134H35.5312C35.7103 80.7134 35.8789 80.6924 36.037 80.6502C36.2055 80.6081 36.3425 80.5343 36.4584 80.4184C36.5849 80.292 36.6797 80.1181 36.7534 79.8916C36.8219 79.6703 36.8588 79.3753 36.8588 79.0065V64.9299H30.263V79.0065C30.263 79.3753 30.2946 79.6703 30.3684 79.8916C30.4369 80.1181 30.5264 80.292 30.6423 80.4184C30.7688 80.5343 30.9163 80.6081 31.0849 80.6502C31.2534 80.6924 31.4273 80.7134 31.6117 80.7134H32.7496V82.1042H23.6672V80.7134H24.763C24.9579 80.7134 25.1318 80.6924 25.2898 80.6502C25.4584 80.6081 25.5954 80.5343 25.7113 80.4184C25.8377 80.292 25.9326 80.1181 26.0063 79.8916C26.0748 79.6703 26.1117 79.3753 26.1117 79.0065V66.3207C26.1117 65.973 26.0748 65.6885 26.0063 65.4778C25.9326 65.2671 25.8377 65.109 25.7113 64.9931C25.5849 64.8825 25.4374 64.814 25.2688 64.7824C25.1107 64.7402 24.9421 64.7192 24.763 64.7192H23.6672V63.3284H43.4546V64.7192H42.3588C42.1744 64.7192 42.0006 64.7402 41.832 64.7824C41.6739 64.814 41.537 64.8878 41.4105 65.0142C41.2841 65.1301 41.184 65.2987 41.1155 65.5199C41.0576 65.7465 41.0312 66.0468 41.0312 66.4261V79.133C41.0312 79.4859 41.0628 79.7651 41.1366 79.9759C41.2051 80.1761 41.3052 80.3288 41.4316 80.4395C41.558 80.5554 41.695 80.6291 41.8531 80.6713C42.0058 80.7029 42.1744 80.7134 42.3588 80.7134H43.4546V82.1042H34.3933Z" fill="black"/>
<path d="M60.1891 68.9127C60.1891 69.7029 60.0468 70.4615 59.7676 71.1885C59.4989 71.905 59.0564 72.5477 58.44 73.1061C57.8184 73.654 57.0176 74.0966 56.0377 74.4337C55.0526 74.7604 53.8514 74.9184 52.4343 74.9184H51.5282V79.133C51.5282 79.4859 51.5598 79.7651 51.6335 79.9759C51.7178 80.1761 51.8232 80.3288 51.9496 80.4395C52.0761 80.5554 52.2236 80.6291 52.3921 80.6713C52.5713 80.7029 52.7504 80.7134 52.919 80.7134H54.5416V82.1042H44.9324V80.7134H46.0282C46.2231 80.7134 46.3969 80.6924 46.555 80.6502C46.7236 80.6081 46.8605 80.5343 46.9764 80.4184C47.1029 80.292 47.1977 80.1181 47.2715 79.8916C47.3399 79.6703 47.3768 79.3753 47.3768 79.0065V66.3207C47.3768 65.973 47.3399 65.6885 47.2715 65.4778C47.1977 65.2671 47.1029 65.109 46.9764 64.9931C46.8605 64.8825 46.7236 64.814 46.555 64.7824C46.3969 64.7402 46.2231 64.7192 46.0282 64.7192H44.9324V63.3284H53.0033C54.2255 63.3284 55.2844 63.4653 56.1852 63.7288C57.0808 63.9816 57.8289 64.3557 58.419 64.8456C59.009 65.325 59.4515 65.9098 59.7465 66.5947C60.0416 67.269 60.1891 68.0434 60.1891 68.9127ZM51.5282 73.4012H52.1603C52.8189 73.4012 53.372 73.3274 53.8251 73.1694C54.2729 73.0008 54.6364 72.7426 54.9209 72.3897C55.2159 72.042 55.4266 71.5836 55.5531 71.0199C55.69 70.4615 55.7638 69.7872 55.7638 68.997C55.7638 68.2963 55.7058 67.6904 55.5952 67.1847C55.4793 66.6684 55.3002 66.2364 55.0473 65.8993C54.7944 65.5621 54.4625 65.3092 54.0569 65.1406C53.646 64.972 53.1508 64.8878 52.5607 64.8878H51.5282V73.4012Z" fill="black"/>
<path d="M66.6997 75.9299L65.9411 78.1847C65.8673 78.3954 65.7988 78.6483 65.7303 78.9433C65.6566 79.2278 65.625 79.4701 65.625 79.6809C65.625 79.8652 65.6513 80.018 65.7093 80.1445C65.7777 80.2709 65.8673 80.3763 65.9832 80.4606C66.0938 80.5343 66.2203 80.5975 66.3625 80.6502C66.4995 80.6924 66.647 80.7134 66.805 80.7134H67.9219V82.1042H61.0732V80.7134H61.3893C61.6264 80.7134 61.8371 80.6871 62.0215 80.6291C62.2164 80.5765 62.4008 80.4764 62.5694 80.3341C62.738 80.1971 62.8908 80.0075 63.033 79.7651C63.1858 79.5123 63.3386 79.1909 63.4966 78.7958L69.2073 63.3284H72.8108L78.3108 78.8169C78.4372 79.1856 78.5689 79.4912 78.7112 79.7441C78.8481 79.9864 79.0062 80.1761 79.1748 80.313C79.3434 80.4553 79.5172 80.5606 79.7016 80.6291C79.8807 80.6871 80.0809 80.7134 80.2916 80.7134H80.7763V82.1042H72.0943V80.7134H73.1058C73.2428 80.7134 73.3798 80.6924 73.5062 80.6502C73.6432 80.6081 73.7643 80.5554 73.8644 80.4816C73.9751 80.3973 74.0646 80.292 74.1384 80.1655C74.2069 80.0286 74.2437 79.8652 74.2437 79.6809C74.2437 79.4701 74.2121 79.2699 74.1594 79.0697C74.1173 78.8748 74.0646 78.7062 74.0119 78.564L73.0847 75.9299H66.6997ZM71.1671 70.0084C71.0828 69.7134 70.988 69.4079 70.8932 69.0812C70.7931 68.7441 70.693 68.4069 70.5981 68.0697C70.498 67.722 70.398 67.3743 70.3031 67.0372C70.2188 66.7 70.1398 66.3787 70.0713 66.0678C69.9976 66.3365 69.908 66.6315 69.7974 66.9529C69.6973 67.2637 69.5867 67.5851 69.4602 67.9222C69.3443 68.2489 69.2337 68.5755 69.123 68.9127C69.0072 69.2498 68.9018 69.5765 68.807 69.882L67.2476 74.3284H72.5579L71.1671 70.0084Z" fill="black"/>
<path d="M96.6886 68.1119C96.6886 68.6914 96.6096 69.1971 96.4568 69.6291C96.2988 70.0664 96.0775 70.4404 95.7825 70.746C95.4875 71.0568 95.1345 71.3255 94.7288 71.5468C94.3179 71.7733 93.8701 71.9629 93.3802 72.1157V72.2422C93.9807 72.4002 94.5392 72.6109 95.0449 72.8743C95.5507 73.143 95.9774 73.4749 96.3304 73.8648C96.6939 74.2599 96.9731 74.7182 97.1733 75.2345C97.384 75.7402 97.4894 76.3197 97.4894 76.9625C97.4894 78.6904 96.8572 79.9864 95.5928 80.8399C94.339 81.6828 92.4635 82.1042 89.9664 82.1042H81.4951V80.7134H82.5698C82.7648 80.7134 82.9491 80.6924 83.1177 80.6502C83.2863 80.6081 83.4233 80.5343 83.5392 80.4184C83.6656 80.292 83.7604 80.1181 83.8342 79.8916C83.9027 79.6703 83.9396 79.3753 83.9396 79.0065V66.405C83.9396 66.0573 83.9027 65.7728 83.8342 65.5621C83.7604 65.3408 83.6656 65.1722 83.5392 65.0563C83.4127 64.9299 83.2652 64.8456 83.0966 64.8035C82.9281 64.7508 82.7489 64.7192 82.5698 64.7192H81.4951V63.3284H89.1656C91.6627 63.3284 93.5382 63.7182 94.7921 64.4874C96.0564 65.2618 96.6886 66.4682 96.6886 68.1119ZM88.0909 80.5027H89.8399C90.4142 80.5027 90.9041 80.4395 91.315 80.313C91.7365 80.1866 92.0737 79.9864 92.3265 79.7019C92.5794 79.4069 92.7585 79.0276 92.8744 78.564C93.0009 78.1004 93.0641 77.5314 93.0641 76.8571C93.0641 76.2249 93.0061 75.6718 92.8955 75.1924C92.7954 74.7182 92.6216 74.3231 92.3687 74.0123C92.1263 73.7067 91.805 73.4749 91.3993 73.3169C91.0042 73.1641 90.4985 73.0851 89.8821 73.0851H88.0909V80.5027ZM88.0909 71.4835H89.0813C89.6977 71.4835 90.2087 71.4203 90.6196 71.2939C91.0253 71.1674 91.3466 70.9725 91.589 70.7038C91.8419 70.4246 92.0157 70.0717 92.1158 69.6502C92.2264 69.2182 92.2844 68.7019 92.2844 68.1119C92.2844 67.5113 92.2212 67.0108 92.0947 66.6157C91.9788 66.2101 91.7997 65.8782 91.5468 65.6253C91.294 65.3724 90.9568 65.1986 90.5353 65.0985C90.1244 64.9879 89.6292 64.9299 89.0392 64.9299H88.0909V71.4835Z" fill="black"/>
<path d="M117.656 72.6847C117.656 74.1334 117.456 75.4557 117.066 76.6464C116.687 77.8422 116.118 78.859 115.359 79.7019C114.6 80.5448 113.673 81.1981 112.578 81.6617C111.482 82.1253 110.217 82.3571 108.784 82.3571C107.278 82.3571 105.966 82.1253 104.844 81.6617C103.732 81.1981 102.805 80.5448 102.062 79.7019C101.33 78.859 100.782 77.8422 100.418 76.6464C100.05 75.4557 99.8706 74.1282 99.8706 72.6636C99.8706 71.2201 100.05 69.9031 100.418 68.723C100.782 67.5324 101.335 66.5103 102.083 65.6674C102.826 64.8245 103.753 64.1818 104.865 63.7287C105.987 63.2651 107.299 63.0333 108.805 63.0333C110.223 63.0333 111.482 63.2651 112.578 63.7287C113.684 64.1818 114.611 64.8245 115.359 65.6674C116.118 66.5103 116.687 67.5324 117.066 68.723C117.456 69.9031 117.656 71.2254 117.656 72.6847ZM104.275 72.6847C104.275 73.949 104.359 75.0764 104.528 76.0563C104.696 77.0415 104.954 77.8791 105.307 78.564C105.671 79.2383 106.134 79.7599 106.698 80.1234C107.272 80.4763 107.968 80.6502 108.784 80.6502C109.596 80.6502 110.286 80.4763 110.85 80.1234C111.424 79.7599 111.887 79.2383 112.24 78.564C112.588 77.8791 112.841 77.0415 112.999 76.0563C113.168 75.0764 113.252 73.949 113.252 72.6847C113.252 71.4361 113.168 70.3192 112.999 69.3341C112.841 68.3542 112.588 67.5218 112.24 66.8475C111.887 66.1626 111.429 65.6411 110.871 65.2881C110.307 64.9246 109.617 64.7402 108.805 64.7402C107.973 64.7402 107.272 64.9246 106.698 65.2881C106.134 65.6411 105.671 66.1626 105.307 66.8475C104.954 67.5218 104.696 68.3542 104.528 69.3341C104.359 70.3192 104.275 71.4361 104.275 72.6847Z" fill="black"/>
<path d="M134.993 82.1042V80.7134H135.246C135.509 80.7134 135.752 80.7029 135.962 80.6713C136.173 80.6291 136.347 80.5606 136.489 80.4606C136.626 80.3499 136.731 80.2024 136.805 80.018C136.874 79.8231 136.911 79.565 136.911 79.2383V65.9203L131.6 82.1042H129.809L124.246 65.9203V79.0065C124.246 79.3753 124.288 79.6703 124.372 79.8916C124.467 80.1181 124.604 80.292 124.773 80.4184C124.941 80.5343 125.141 80.6081 125.384 80.6502C125.621 80.6924 125.895 80.7134 126.206 80.7134H126.353V82.1042H119.842V80.7134H120.937C121.132 80.7134 121.306 80.7029 121.464 80.6713C121.633 80.6291 121.77 80.5554 121.886 80.4395C122.012 80.3288 122.107 80.1761 122.181 79.9759C122.249 79.7651 122.286 79.4859 122.286 79.133V66.3207C122.286 65.973 122.249 65.6885 122.181 65.4778C122.107 65.2671 122.012 65.109 121.886 64.9931C121.77 64.8825 121.633 64.814 121.464 64.7824C121.306 64.7402 121.132 64.7192 120.937 64.7192H119.842V63.3284H127.407L131.769 76.0353L135.962 63.3284H143.401V64.7192H142.305C142.105 64.7192 141.926 64.7402 141.757 64.7824C141.599 64.814 141.462 64.8878 141.336 65.0142C141.22 65.1301 141.13 65.2987 141.062 65.5199C140.988 65.7465 140.956 66.0468 140.956 66.4261V79.0065C140.956 79.3753 140.988 79.6703 141.062 79.8916C141.13 80.1181 141.22 80.292 141.336 80.4184C141.462 80.5343 141.599 80.6081 141.757 80.6502C141.926 80.6924 142.105 80.7134 142.305 80.7134H143.401V82.1042H134.993Z" fill="black"/>
<path d="M166.888 68.1119C166.888 68.6914 166.809 69.1971 166.656 69.6291C166.498 70.0664 166.277 70.4404 165.982 70.746C165.687 71.0568 165.334 71.3255 164.928 71.5468C164.517 71.7733 164.069 71.9629 163.579 72.1157V72.2422C164.18 72.4002 164.738 72.6109 165.244 72.8743C165.75 73.143 166.177 73.4749 166.53 73.8648C166.893 74.2599 167.172 74.7182 167.372 75.2345C167.583 75.7402 167.689 76.3197 167.689 76.9625C167.689 78.6904 167.056 79.9864 165.792 80.8399C164.538 81.6828 162.663 82.1042 160.166 82.1042H151.694V80.7134H152.769C152.964 80.7134 153.148 80.6924 153.317 80.6502C153.486 80.6081 153.622 80.5343 153.738 80.4184C153.865 80.292 153.96 80.1181 154.033 79.8916C154.102 79.6703 154.139 79.3753 154.139 79.0065V66.405C154.139 66.0573 154.102 65.7728 154.033 65.5621C153.96 65.3408 153.865 65.1722 153.738 65.0563C153.612 64.9299 153.464 64.8456 153.296 64.8035C153.127 64.7508 152.948 64.7192 152.769 64.7192H151.694V63.3284H159.365C161.862 63.3284 163.737 63.7182 164.991 64.4874C166.256 65.2618 166.888 66.4682 166.888 68.1119ZM158.29 80.5027H160.039C160.613 80.5027 161.103 80.4395 161.514 80.313C161.936 80.1866 162.273 79.9864 162.526 79.7019C162.779 79.4069 162.958 79.0276 163.074 78.564C163.2 78.1004 163.263 77.5314 163.263 76.8571C163.263 76.2249 163.205 75.6718 163.095 75.1924C162.995 74.7182 162.821 74.3231 162.568 74.0123C162.326 73.7067 162.004 73.4749 161.599 73.3169C161.203 73.1641 160.698 73.0851 160.081 73.0851H158.29V80.5027ZM158.29 71.4835H159.281C159.897 71.4835 160.408 71.4203 160.819 71.2939C161.225 71.1674 161.546 70.9725 161.788 70.7038C162.041 70.4246 162.215 70.0717 162.315 69.6502C162.426 69.2182 162.484 68.7019 162.484 68.1119C162.484 67.5113 162.42 67.0108 162.294 66.6157C162.178 66.2101 161.999 65.8782 161.746 65.6253C161.493 65.3724 161.156 65.1986 160.735 65.0985C160.324 64.9879 159.828 64.9299 159.238 64.9299H158.29V71.4835Z" fill="black"/>
<path d="M178.962 63.3284V64.7192H177.34C176.86 64.7192 176.507 64.8403 176.286 65.0774C176.06 65.3039 175.949 65.7096 175.949 66.2996V71.5257H177.34C178.604 71.5257 179.679 71.6627 180.564 71.9261C181.449 72.1789 182.171 72.5372 182.734 73.0008C183.293 73.4644 183.704 74.0228 183.957 74.6655C184.21 75.3135 184.336 76.0247 184.336 76.7939C184.336 77.5841 184.194 78.3059 183.915 78.9644C183.63 79.6124 183.198 80.1655 182.608 80.6291C182.018 81.0927 181.27 81.4615 180.374 81.7249C179.489 81.9778 178.436 82.1042 177.213 82.1042H169.353V80.7134H170.449C170.712 80.7134 170.934 80.6818 171.102 80.6081C171.271 80.5396 171.403 80.4395 171.503 80.313C171.613 80.1761 171.692 79.9917 171.734 79.7651C171.777 79.5439 171.798 79.2752 171.798 78.9644V66.4261C171.798 66.0626 171.761 65.7728 171.692 65.5621C171.634 65.3408 171.55 65.1617 171.439 65.0353C171.324 64.9088 171.187 64.8245 171.018 64.7824C170.849 64.7402 170.66 64.7192 170.449 64.7192H169.353V63.3284H178.962ZM175.949 80.5448H176.982C177.498 80.5448 177.951 80.4764 178.33 80.3341C178.71 80.1813 179.01 79.9548 179.236 79.6598C179.458 79.3542 179.626 78.9749 179.742 78.5219C179.853 78.0741 179.911 77.542 179.911 76.9203C179.911 76.2197 179.848 75.6243 179.721 75.1291C179.605 74.6392 179.416 74.2388 179.152 73.928C178.899 73.6224 178.567 73.3959 178.162 73.2537C177.751 73.1167 177.261 73.0429 176.687 73.0429H175.949V80.5448ZM184.8 82.1042V80.7134H185.895C186.09 80.7134 186.264 80.6924 186.422 80.6502C186.591 80.6081 186.728 80.5343 186.844 80.4184C186.97 80.292 187.065 80.1181 187.139 79.8916C187.207 79.6703 187.244 79.3753 187.244 79.0065V66.4261C187.244 66.0468 187.207 65.7465 187.139 65.5199C187.065 65.2987 186.97 65.1301 186.844 65.0142C186.728 64.8878 186.591 64.814 186.422 64.7824C186.264 64.7402 186.09 64.7192 185.895 64.7192H184.8V63.3284H193.861V64.7192H192.765C192.565 64.7192 192.386 64.7402 192.217 64.7824C192.059 64.814 191.922 64.8878 191.796 65.0142C191.68 65.1301 191.59 65.2987 191.522 65.5199C191.448 65.7465 191.416 66.0468 191.416 66.4261V79.0065C191.416 79.3753 191.448 79.6703 191.522 79.8916C191.59 80.1181 191.68 80.292 191.796 80.4184C191.922 80.5343 192.059 80.6081 192.217 80.6502C192.386 80.6924 192.565 80.7134 192.765 80.7134H193.861V82.1042H184.8Z" fill="black"/>
<path d="M211.647 82.1042C210.973 82.1042 210.382 82.0568 209.877 81.9567C209.371 81.8461 208.928 81.6828 208.549 81.472C208.18 81.2508 207.859 80.9821 207.58 80.6713C207.311 80.3657 207.074 80.0075 206.863 79.5966L204.356 75.0448C204.145 74.6655 203.945 74.3705 203.766 74.1598C203.597 73.9491 203.407 73.791 203.197 73.6751C202.996 73.5645 202.775 73.496 202.522 73.4644C202.28 73.438 201.996 73.4222 201.658 73.4222V79.0065C201.658 79.3753 201.69 79.6703 201.764 79.8916C201.832 80.1181 201.922 80.292 202.038 80.4184C202.164 80.5343 202.312 80.6081 202.48 80.6502C202.649 80.6924 202.823 80.7134 203.007 80.7134H204.124V82.1042H195.315V80.7134H196.411C196.606 80.7134 196.78 80.7029 196.938 80.6713C197.107 80.6291 197.244 80.5554 197.359 80.4395C197.486 80.3288 197.581 80.1761 197.655 79.9759C197.723 79.7652 197.76 79.4859 197.76 79.133V66.3207C197.76 65.973 197.723 65.6885 197.655 65.4778C197.581 65.2671 197.486 65.109 197.359 64.9931C197.244 64.8825 197.107 64.814 196.938 64.7824C196.78 64.7402 196.606 64.7192 196.411 64.7192H195.315V63.3284H204.124V64.7192H203.007C202.823 64.7192 202.649 64.7402 202.48 64.7824C202.312 64.814 202.164 64.8878 202.038 65.0142C201.922 65.1301 201.832 65.2987 201.764 65.5199C201.69 65.7465 201.658 66.0468 201.658 66.4261V71.9261C201.938 71.9261 202.185 71.9155 202.396 71.8839C202.607 71.8576 202.796 71.8154 202.965 71.7575C203.133 71.7048 203.286 71.6258 203.428 71.5257C203.565 71.4309 203.702 71.3097 203.829 71.1675C204.066 70.9146 204.377 70.4826 204.756 69.8609C205.146 69.2288 205.583 68.428 206.063 67.4586C206.452 66.6895 206.821 66.0257 207.158 65.4778C207.496 64.9299 207.843 64.4874 208.212 64.1502C208.575 63.813 208.96 63.5707 209.371 63.4127C209.792 63.2441 210.267 63.1598 210.804 63.1598C211.547 63.1598 212.074 63.3231 212.384 63.6445C212.706 63.9553 212.869 64.3504 212.869 64.8245C212.869 65.3619 212.748 65.8044 212.511 66.1521C212.284 66.4893 211.973 66.6948 211.584 66.7632C211.552 66.5947 211.499 66.4261 211.415 66.2575C211.341 66.0889 211.246 65.9519 211.12 65.836C211.004 65.7096 210.867 65.6148 210.699 65.541C210.53 65.4567 210.33 65.4146 210.109 65.4146C209.84 65.4146 209.592 65.4725 209.371 65.5832C209.16 65.6833 208.95 65.8518 208.739 66.0889C208.539 66.3154 208.328 66.6105 208.107 66.974C207.896 67.3427 207.654 67.7905 207.39 68.3226C207.095 68.8705 206.832 69.3499 206.61 69.7556C206.384 70.1507 206.173 70.4931 205.978 70.7881C205.778 71.0726 205.583 71.315 205.388 71.5257C205.204 71.7259 205.014 71.8997 204.819 72.0525C205.199 72.0525 205.562 72.1157 205.915 72.2422C206.263 72.3686 206.589 72.5372 206.884 72.7479C207.19 72.9586 207.474 73.222 207.727 73.5276C207.991 73.8226 208.233 74.1545 208.444 74.518L210.572 78.3322C210.809 78.7537 211.036 79.1224 211.246 79.428C211.457 79.723 211.673 79.9706 211.9 80.1655C212.121 80.3499 212.348 80.4922 212.574 80.587C212.811 80.6713 213.069 80.7134 213.354 80.7134H213.522V82.1042H211.647Z" fill="black"/>
<path d="M231.756 64.7192H231.251C230.998 64.7192 230.776 64.7508 230.597 64.8035C230.429 64.8614 230.265 64.9668 230.113 65.1196C229.97 65.2776 229.828 65.4883 229.691 65.7517C229.565 66.0204 229.423 66.3576 229.27 66.7632L225.435 76.6674C225.14 77.4155 224.855 78.0688 224.592 78.6272C224.339 79.1751 224.065 79.6545 223.77 80.0602C223.475 80.4711 223.148 80.8083 222.8 81.0717C222.463 81.3403 222.068 81.5511 221.62 81.7038C221.167 81.8461 220.656 81.9515 220.082 82.0199C219.503 82.0779 218.839 82.1042 218.08 82.1042H216.458V80.5659H217.595C218.043 80.5659 218.491 80.5343 218.944 80.4606C219.392 80.3763 219.813 80.2604 220.208 80.1023C220.598 79.9337 220.946 79.7335 221.241 79.4912C221.547 79.2541 221.773 78.9644 221.915 78.6272L215.72 66.11C215.594 65.8571 215.472 65.6411 215.362 65.4567C215.246 65.2776 215.119 65.1354 214.982 65.0353C214.84 64.9246 214.677 64.8456 214.498 64.8035C214.329 64.7508 214.108 64.7192 213.844 64.7192H213.507V63.3284H222.526V64.7192H221.578C221.125 64.7192 220.777 64.8035 220.525 64.972C220.282 65.1301 220.166 65.404 220.166 65.7939C220.166 66.0468 220.198 66.2944 220.272 66.5314C220.356 66.7738 220.467 67.0266 220.609 67.2901L222.611 71.5257C222.748 71.8365 222.895 72.1684 223.053 72.5161C223.222 72.8533 223.375 73.201 223.517 73.5487C223.654 73.9016 223.78 74.2441 223.896 74.5812C224.007 74.9079 224.091 75.2134 224.149 75.5084C224.26 75.1449 224.381 74.7709 224.507 74.3916C224.644 74.0123 224.808 73.5803 224.992 73.0851L226.91 67.8169C227.078 67.3954 227.205 67.0319 227.289 66.7211C227.373 66.3997 227.415 66.1627 227.415 66.0046C227.415 65.5568 227.268 65.2355 226.973 65.0353C226.688 64.8245 226.262 64.7192 225.687 64.7192H225.118V63.3284H231.756V64.7192Z" fill="black"/>
<path d="M243.207 82.1042V80.7134H244.345C244.525 80.7134 244.693 80.6924 244.851 80.6502C245.02 80.6081 245.157 80.5343 245.273 80.4184C245.399 80.292 245.494 80.1181 245.568 79.8916C245.636 79.6703 245.673 79.3753 245.673 79.0065V64.9299H239.077V79.0065C239.077 79.3753 239.109 79.6703 239.183 79.8916C239.251 80.1181 239.341 80.292 239.457 80.4184C239.583 80.5343 239.73 80.6081 239.899 80.6502C240.068 80.6924 240.242 80.7134 240.426 80.7134H241.564V82.1042H232.481V80.7134H233.577C233.772 80.7134 233.946 80.6924 234.104 80.6502C234.273 80.6081 234.41 80.5343 234.526 80.4184C234.652 80.292 234.747 80.1181 234.821 79.8916C234.889 79.6703 234.926 79.3753 234.926 79.0065V66.3207C234.926 65.973 234.889 65.6885 234.821 65.4778C234.747 65.2671 234.652 65.109 234.526 64.9931C234.399 64.8825 234.252 64.814 234.083 64.7824C233.925 64.7402 233.756 64.7192 233.577 64.7192H232.481V63.3284H252.269V64.7192H251.173C250.989 64.7192 250.815 64.7402 250.646 64.7824C250.488 64.814 250.351 64.8878 250.225 65.0142C250.098 65.1301 249.998 65.2987 249.93 65.5199C249.872 65.7465 249.845 66.0468 249.845 66.4261V79.133C249.845 79.4859 249.877 79.7651 249.951 79.9759C250.019 80.1761 250.119 80.3288 250.246 80.4395C250.372 80.5554 250.509 80.6291 250.667 80.6713C250.82 80.7029 250.989 80.7134 251.173 80.7134H252.269V82.1042H243.207Z" fill="black"/>
<path d="M258.741 75.9299L257.982 78.1847C257.908 78.3954 257.84 78.6483 257.771 78.9433C257.698 79.2278 257.666 79.4701 257.666 79.6809C257.666 79.8652 257.692 80.018 257.75 80.1445C257.819 80.2709 257.908 80.3763 258.024 80.4606C258.135 80.5343 258.261 80.5975 258.404 80.6502C258.541 80.6924 258.688 80.7134 258.846 80.7134H259.963V82.1042H253.114V80.7134H253.43C253.667 80.7134 253.878 80.6871 254.063 80.6291C254.257 80.5765 254.442 80.4764 254.61 80.3341C254.779 80.1971 254.932 80.0075 255.074 79.7651C255.227 79.5123 255.38 79.1909 255.538 78.7958L261.248 63.3284H264.852L270.352 78.8169C270.478 79.1856 270.61 79.4912 270.752 79.7441C270.889 79.9864 271.047 80.1761 271.216 80.313C271.384 80.4553 271.558 80.5606 271.743 80.6291C271.922 80.6871 272.122 80.7134 272.333 80.7134H272.817V82.1042H264.135V80.7134H265.147C265.284 80.7134 265.421 80.6924 265.547 80.6502C265.684 80.6081 265.805 80.5554 265.905 80.4816C266.016 80.3973 266.106 80.292 266.179 80.1655C266.248 80.0286 266.285 79.8652 266.285 79.6809C266.285 79.4701 266.253 79.2699 266.2 79.0697C266.158 78.8748 266.106 78.7062 266.053 78.564L265.126 75.9299H258.741ZM263.208 70.0084C263.124 69.7134 263.029 69.4079 262.934 69.0812C262.834 68.7441 262.734 68.4069 262.639 68.0697C262.539 67.722 262.439 67.3743 262.344 67.0372C262.26 66.7 262.181 66.3787 262.112 66.0678C262.039 66.3365 261.949 66.6315 261.838 66.9529C261.738 67.2637 261.628 67.5851 261.501 67.9222C261.385 68.2489 261.275 68.5755 261.164 68.9127C261.048 69.2498 260.943 69.5765 260.848 69.882L259.289 74.3284H264.599L263.208 70.0084Z" fill="black"/>
</svg>
