<svg width="31" height="31" viewBox="0 0 31 31" fill="none" xmlns="http://www.w3.org/2000/svg">
<path d="M21.6419 2.58337H9.35812C7.86108 2.58337 7.11321 2.58337 6.50871 2.79392C5.9388 2.996 5.42314 3.32673 5.00177 3.76042C4.5804 4.19411 4.26467 4.71909 4.07908 5.29458C3.875 5.91717 3.875 6.687 3.875 8.22796V26.3165C3.875 27.4247 5.14729 28.0137 5.952 27.2775C6.17777 27.0688 6.47386 26.953 6.78125 26.953C7.08864 26.953 7.38473 27.0688 7.6105 27.2775L8.23437 27.8484C8.62989 28.2141 9.14879 28.4173 9.6875 28.4173C10.2262 28.4173 10.7451 28.2141 11.1406 27.8484C11.5361 27.4826 12.055 27.2795 12.5937 27.2795C13.1325 27.2795 13.6514 27.4826 14.0469 27.8484C14.4424 28.2141 14.9613 28.4173 15.5 28.4173C16.0387 28.4173 16.5576 28.2141 16.9531 27.8484C17.3486 27.4826 17.8675 27.2795 18.4062 27.2795C18.945 27.2795 19.4639 27.4826 19.8594 27.8484C20.2549 28.2141 20.7738 28.4173 21.3125 28.4173C21.8512 28.4173 22.3701 28.2141 22.7656 27.8484L23.3895 27.2775C23.6153 27.0688 23.9114 26.953 24.2187 26.953C24.5261 26.953 24.8222 27.0688 25.048 27.2775C25.8527 28.0137 27.125 27.4247 27.125 26.3165V8.22796C27.125 6.687 27.125 5.91587 26.9209 5.29587C26.7356 4.72009 26.42 4.19481 25.9986 3.76088C25.5772 3.32694 25.0614 2.99605 24.4913 2.79392C23.8868 2.58337 23.1389 2.58337 21.6419 2.58337Z" stroke="#A32015" stroke-width="1.5"/>
<path d="M13.5626 14.2083H21.9584M9.04175 14.2083H9.68758M9.04175 9.6875H9.68758M9.04175 18.7292H9.68758M13.5626 9.6875H21.9584M13.5626 18.7292H21.9584" stroke="#A32015" stroke-width="1.5" stroke-linecap="round"/>
</svg>
